{
.appVersion = "1141";
DisplayStrings = (
o,
"/circumflexcomb",
a
);
copyright = "Copyright (c) 2010 by Julia Petretta (www.juliapetretta.com), with Reserved Font Name \"Kreon\".";
customParameters = (
{
name = macintoshFONDFamilyID;
value = 128;
},
{
name = macintoshFONDName;
value = Kreon;
},
{
name = note;
value = "";
},
{
name = openTypeHeadFlags;
value = (
);
},
{
name = description;
value = "";
},
{
name = openTypeNameLicense;
value = "This Font Software is licensed under the SIL Open Font License,
Version 1.1. This license is available with a FAQ at:
http://scripts.sil.org/OFL";
},
{
name = openTypeNameLicenseURL;
value = "http://scripts.sil.org/OFL";
},
{
name = openTypeNameSampleText;
value = "";
},
{
name = openTypeNameUniqueID;
value = "JuliaPetretta: Kreon light: 2010";
},
{
name = openTypeNameVersion;
value = "1.001";
},
{
name = openTypeOS2FamilyClass;
value = (
0,
0
);
},
{
name = openTypeOS2Panose;
value = (
2,
0,
5,
6,
0,
0,
0,
2,
0,
3
);
},
{
name = openTypeOS2Selection;
value = (
);
},
{
name = openTypeOS2StrikeoutPosition;
value = 250;
},
{
name = openTypeOS2StrikeoutSize;
value = 50;
},
{
name = openTypeOS2SubscriptXOffset;
value = 0;
},
{
name = openTypeOS2SubscriptXSize;
value = 700;
},
{
name = openTypeOS2SubscriptYOffset;
value = 140;
},
{
name = openTypeOS2SubscriptYSize;
value = 650;
},
{
name = openTypeOS2SuperscriptXOffset;
value = 0;
},
{
name = openTypeOS2SuperscriptXSize;
value = 700;
},
{
name = openTypeOS2SuperscriptYOffset;
value = 477;
},
{
name = openTypeOS2SuperscriptYSize;
value = 650;
},
{
name = fsType;
value = (
);
},
{
name = unicodeRanges;
value = (
0,
1,
2,
7,
31,
33
);
},
{
name = vendorID;
value = pyrs;
},
{
name = blueFuzz;
value = 1;
},
{
name = blueScale;
value = 0.03963;
},
{
name = blueShift;
value = 7;
},
{
name = postscriptForceBold;
value = 0;
},
{
name = postscriptIsFixedPitch;
value = 0;
},
{
name = postscriptUniqueID;
value = -1;
},
{
name = trademark;
value = "Kreon is a trademark of Julia Petretta.";
},
{

glyphs = (
{
glyphname = A;
lastChange = "2018-07-24 15:57:05 +0000";
layers = (
{
anchors = (
{
name = bottom;
position = "{283, 0}";
},
{
name = top;
position = "{279, 691}";
}
);
layerId = "1178ECA0-A987-4969-BD6E-681EE9C1B9C8";
paths = (
{
closed = 1;
nodes = (
"364 44 LINE",
"445 65 LINE",
"392 241 LINE",
"169 241 LINE",
"117 62 LINE",
"205 45 LINE",
"205 0 LINE",
"11 0 LINE",
"-2 47 LINE",
"52 65 LINE",
"243 691 LINE {name = mh01;}",
"327 691 LINE {name = ah01;}",
"519 65 LINE",
"566 47 LINE",
"555 0 LINE",
"364 0 LINE {name = hr00;}"
);
},
{
closed = 1;
nodes = (
"188 304 LINE",
"373 304 LINE",
"279 616 LINE {name = mh02;}"
);
}
);
width = 570;
},
{
anchors = (
{
name = bottom;
position = "{293, -2}";
},
{
name = top;
position = "{304, 691}";
}
);
layerId = "753CA70B-25C4-47AF-A15F-390B5E4CCE16";
paths = (
{
closed = 1;
nodes = (
"349 75 LINE",
"429 96 LINE",
"393 218 LINE",
"197 218 LINE",
"159 92 LINE",
"247 76 LINE",
"247 0 LINE",
"8 0 LINE",
"-5 78 LINE",
"50 96 LINE {name = mv01;}",
"248 690 LINE {name = ah01;}",
"372 690 LINE {name = mv02;}",
"573 96 LINE",
"619 78 LINE",
"609 0 LINE",
"349 0 LINE {name = hr00;}"
);
},
{
closed = 1;
nodes = (
"349 323 LINE",
"296 548 LINE",
"228 323 LINE"
);
}
);
width = 621;
}
);
leftKerningGroup = A;
rightKerningGroup = A;
unicode = 0041;
userData = {
com.typemytype.robofont.mark = (
0.713,
0.6,
1,
1
);
};
},
{
glyphname = Aacute;
lastChange = "2018-07-24 15:13:01 +0000";
layers = (
{
components = (
{
name = A;
}
);
layerId = "1178ECA0-A987-4969-BD6E-681EE9C1B9C8";
paths = (
{
closed = 1;
nodes = (
"334 897 LINE {name = ah02;}",
"364 890 LINE",
"401 818 LINE",
"208 717 LINE",
"176 764 LINE {name = hr00;}"
);
}
);
width = 570;
},
{
components = (
{
name = A;
}
);
layerId = "753CA70B-25C4-47AF-A15F-390B5E4CCE16";
paths = (
{
closed = 1;
nodes = (
"316 959 LINE {name = mv02;}",
"353 974 LINE",
"431 865 LINE",
"234 741 LINE {name = mv03;}",
"187 795 LINE"
);
}
);
width = 621;
}
);
leftKerningGroup = A;
rightKerningGroup = A;
unicode = 00C1;
userData = {
com.typemytype.robofont.mark = (
0.713,
0.6,
1,
1
);
};
},
{
glyphname = Acircumflex;
lastChange = "2018-07-24 15:45:34 +0000";
layers = (
{
components = (
{
name = A;
}
);
layerId = "1178ECA0-A987-4969-BD6E-681EE9C1B9C8";
paths = (
{
closed = 1;
nodes = (
"289 884 LINE",
"429 727 LINE",
"356 727 LINE",
"280 790 LINE",
"205 727 LINE",
"131 727 LINE",
"273 884 LINE {name = hr00;}"
);
}
);
width = 570;
},
{
components = (
{
name = A;
}
);
layerId = "753CA70B-25C4-47AF-A15F-390B5E4CCE16";
paths = (
{
closed = 1;
nodes = (
"286 903 LINE {name = mv01;}",
"323 903 LINE",
"495 736 LINE",
"487 724 LINE",
"401 724 LINE",
"304 782 LINE",
"206 724 LINE",
"121 724 LINE",
"115 737 LINE {name = hr00;}"
);
}
);
width = 621;
}
);
leftKerningGroup = A;
rightKerningGroup = A;
unicode = 00C2;
userData = {
com.typemytype.robofont.mark = (
0.713,
0.6,
1,
1
);
};
},
{
glyphname = Adieresis;
lastChange = "2018-07-24 15:11:20 +0000";
layers = (
{
layerId = "1178ECA0-A987-4969-BD6E-681EE9C1B9C8";
paths = (
{
closed = 1;
nodes = (
"364 44 LINE",
"445 65 LINE",
"392 241 LINE",
"169 241 LINE",
"117 62 LINE",
"205 45 LINE",
"205 0 LINE",
"11 0 LINE",
"-2 47 LINE",
"52 65 LINE",
"243 691 LINE {name = mh01;}",
"327 691 LINE {name = mh02;}",
"519 65 LINE",
"566 47 LINE",
"555 0 LINE",
"364 0 LINE {name = hr00;}"
);
},
{
closed = 1;
nodes = (
"188 304 LINE",
"373 304 LINE",
"279 616 LINE {name = mh03;}"
);
},
{
closed = 1;
nodes = (
"127 804.131 OFFCURVE",
"151.869 829 OFFCURVE",
"184 829 CURVE SMOOTH {name = mh04;}",
"215.429 829 OFFCURVE",
"242 803.652 OFFCURVE",
"242 772 CURVE SMOOTH",
"242 740.478 OFFCURVE",
"215.577 714 OFFCURVE",
"184 714 CURVE SMOOTH",
"151.681 714 OFFCURVE",
"127 740.024 OFFCURVE",
"127 772 CURVE SMOOTH"
);
},
{
closed = 1;
nodes = (
"303 805.229 OFFCURVE",
"330.68 829 OFFCURVE",
"363 829 CURVE SMOOTH {name = mh05;}",
"394.755 829 OFFCURVE",
"418 803.139 OFFCURVE",
"418 772 CURVE SMOOTH",
"418 741.002 OFFCURVE",
"394.899 714 OFFCURVE",
"363 714 CURVE SMOOTH",
"330.494 714 OFFCURVE",
"303 738.885 OFFCURVE",
"303 772 CURVE SMOOTH"
);
}
);
width = 570;
},
{
layerId = "753CA70B-25C4-47AF-A15F-390B5E4CCE16";
paths = (
{
closed = 1;
nodes = (
"349 75 LINE",
"429 96 LINE",
"393 218 LINE",
"197 218 LINE",
"159 92 LINE",
"247 76 LINE",
"247 0 LINE",
"8 0 LINE",
"-5 78 LINE",
"50 96 LINE",
"248 690 LINE {name = ah01;}",
"372 690 LINE {name = mh01;}",
"573 96 LINE",
"619 78 LINE",
"609 0 LINE",
"349 0 LINE {name = hr00;}"
);
},
{
closed = 1;
nodes = (
"349 323 LINE",
"296 548 LINE {name = mh03;}",
"228 323 LINE {name = mh02;}"
);
},
{
closed = 1;
nodes = (
"155 841.995 OFFCURVE",
"184.629 873 OFFCURVE",
"223 873 CURVE SMOOTH",
"261.83 873 OFFCURVE",
"292 842.83 OFFCURVE",
"292 804 CURVE SMOOTH {name = mh04;}",
"292 765.041 OFFCURVE",
"261.66 736 OFFCURVE",
"223 736 CURVE SMOOTH {name = mv01;}",
"184.729 736 OFFCURVE",
"155 765.808 OFFCURVE",
"155 804 CURVE SMOOTH"
);
},
{
closed = 1;
nodes = (
"333 842.66 OFFCURVE",
"362.041 873 OFFCURVE",
"401 873 CURVE SMOOTH",
"440.124 873 OFFCURVE",
"468 842.443 OFFCURVE",
"468 804 CURVE SMOOTH",
"468 765.381 OFFCURVE",
"439.923 736 OFFCURVE",
"401 736 CURVE SMOOTH {name = mv02;}",
"362.209 736 OFFCURVE",
"333 765.209 OFFCURVE",
"333 804 CURVE SMOOTH"
);
}
);
width = 621;
}
);
leftKerningGroup = A;
rightKerningGroup = A;
unicode = 00C4;
userData = {
com.typemytype.robofont.mark = (
0.713,
0.6,
1,
1
);
};
},
{
glyphname = Agrave;
lastChange = "2018-07-24 15:11:20 +0000";
layers = (
{
layerId = "1178ECA0-A987-4969-BD6E-681EE9C1B9C8";
paths = (
{
closed = 1;
nodes = (
"168 818 LINE",
"205 890 LINE {name = mh01;}",
"235 897 LINE {name = mh02;}",
"403 764 LINE",
"372 717 LINE {name = hr00;}"
);
},
{
closed = 1;
nodes = (
"364 44 LINE",
"445 65 LINE",
"392 241 LINE",
"169 241 LINE",
"117 62 LINE",
"205 45 LINE",
"205 0 LINE",
"11 0 LINE",
"-2 47 LINE",
"52 65 LINE",
"243 691 LINE {name = mh03;}",
"327 691 LINE",
"519 65 LINE",
"566 47 LINE",
"555 0 LINE",
"364 0 LINE"
);
},
{
closed = 1;
nodes = (
"188 304 LINE",
"373 304 LINE",
"279 616 LINE"
);
}
);
width = 570;
},
{
layerId = "753CA70B-25C4-47AF-A15F-390B5E4CCE16";
paths = (
{
closed = 1;
nodes = (
"349 75 LINE",
"429 96 LINE",
"393 218 LINE",
"197 218 LINE",
"159 92 LINE",
"247 76 LINE",
"247 0 LINE",
"8 0 LINE",
"-5 78 LINE",
"50 96 LINE",
"248 691 LINE {name = mh01;}",
"372 691 LINE",
"573 96 LINE",
"619 78 LINE",
"609 0 LINE",
"349 0 LINE {name = hr00;}"
);
},
{
closed = 1;
nodes = (
"349 323 LINE",
"296 549 LINE",
"228 323 LINE"
);
},
{
closed = 1;
nodes = (
"194 868 LINE",
"271 959 LINE",
"306 942 LINE",
"418 765 LINE",
"377 724 LINE"
);
}
);
width = 621;
}
);
leftKerningGroup = A;
rightKerningGroup = A;
unicode = 00C0;
userData = {
com.typemytype.robofont.mark = (
0.713,
0.6,
1,
1
);
};
},
{
glyphname = Aring;
lastChange = "2018-07-24 15:11:20 +0000";
layers = (
{
layerId = "1178ECA0-A987-4969-BD6E-681EE9C1B9C8";
paths = (
{
closed = 1;
nodes = (
"363 44 LINE",
"444 65 LINE",
"391 241 LINE",
"168 241 LINE",
"116 62 LINE",
"204 45 LINE",
"204 0 LINE",
"10 0 LINE",
"-3 47 LINE",
"51 65 LINE",
"235 670 LINE",
"206.878 686.871 OFFCURVE",
"191 718.63 OFFCURVE",
"191 751 CURVE SMOOTH",
"191 803.59 OFFCURVE",
"233.77 845 OFFCURVE",
"286 845 CURVE SMOOTH {name = mh01;}",
"337.718 845 OFFCURVE",
"380 802.718 OFFCURVE",
"380 751 CURVE SMOOTH",
"380 716.486 OFFCURVE",
"362.259 686.11 OFFCURVE",
"333 668 CURVE",
"518 65 LINE",
"565 47 LINE",
"554 0 LINE",
"363 0 LINE {name = hr00;}"
);
},
{
closed = 1;
nodes = (
"187 304 LINE",
"372 304 LINE",
"278 616 LINE {name = mh02;}"
);
},
{
closed = 1;
nodes = (
"248 728.335 OFFCURVE",
"263.335 713 OFFCURVE",
"286 713 CURVE SMOOTH",
"308.804 713 OFFCURVE",
"323 728.521 OFFCURVE",
"323 751 CURVE SMOOTH",
"323 773.479 OFFCURVE",
"308.804 789 OFFCURVE",
"286 789 CURVE SMOOTH {name = mh03;}",
"263.335 789 OFFCURVE",
"248 773.665 OFFCURVE",
"248 751 CURVE SMOOTH"
);
}
);
width = 567;
},
{
layerId = "753CA70B-25C4-47AF-A15F-390B5E4CCE16";
paths = (
{
closed = 1;
nodes = (
"347 75 LINE",
"427 96 LINE",
"391 218 LINE",
"195 218 LINE",
"157 92 LINE",
"245 76 LINE",
"245 0 LINE",
"6 0 LINE",
"-7 78 LINE",
"48 96 LINE",
"234 656 LINE",
"208.381 675.925 OFFCURVE",
"195 707.96 OFFCURVE",
"195 740 CURVE SMOOTH",
"195 800.074 OFFCURVE",
"240.997 846 OFFCURVE",
"301 846 CURVE SMOOTH {name = mh01;}",
"360.164 846 OFFCURVE",
"407 799.253 OFFCURVE",
"407 740 CURVE SMOOTH",
"407 712.668 OFFCURVE",
"397.521 685.519 OFFCURVE",
"378 666 CURVE",
"571 96 LINE",
"617 78 LINE",
"607 0 LINE",
"347 0 LINE {name = hr00;}"
);
},
{
closed = 1;
nodes = (
"347 323 LINE",
"294 549 LINE",
"226 323 LINE"
);
},
{
closed = 1;
nodes = (
"262 715.372 OFFCURVE",
"276.484 701 OFFCURVE",
"301 701 CURVE SMOOTH",
"325.089 701 OFFCURVE",
"339 716.247 OFFCURVE",
"339 740 CURVE SMOOTH",
"339 763.753 OFFCURVE",
"325.089 779 OFFCURVE",
"301 779 CURVE SMOOTH",
"276.484 779 OFFCURVE",
"262 764.628 OFFCURVE",
"262 740 CURVE SMOOTH"
);
}
);
width = 617;
}
);
leftKerningGroup = A;
rightKerningGroup = A;
unicode = 00C5;
userData = {
com.typemytype.robofont.mark = (
0.713,
0.6,
1,
1
);
};
},
{
glyphname = Atilde;
lastChange = "2018-07-24 15:11:20 +0000";
layers = (
{
layerId = "1178ECA0-A987-4969-BD6E-681EE9C1B9C8";
paths = (
{
closed = 1;
nodes = (
"466 770 LINE",
"445.167 751.774 OFFCURVE",
"410.631 727 OFFCURVE",
"382 727 CURVE SMOOTH {name = mh01;}",
"327.425 727 OFFCURVE",
"296.91 778 OFFCURVE",
"243 778 CURVE SMOOTH {name = mh02;}",
"204.908 778 OFFCURVE",
"186.993 760.078 OFFCURVE",
"168 729 CURVE",
"131 760 LINE",
"131 776 LINE",
"153.313 820.437 OFFCURVE",
"196.549 842 OFFCURVE",
"245 842 CURVE SMOOTH {name = mh03;}",
"294.799 842 OFFCURVE",
"327.993 812.817 OFFCURVE",
"367 786 CURVE {name = mh04;}",
"429 836 LINE {name = hr00;}"
);
},
{
closed = 1;
nodes = (
"364 44 LINE",
"445 65 LINE",
"392 241 LINE",
"169 241 LINE",
"117 62 LINE",
"205 45 LINE",
"205 0 LINE",
"11 0 LINE",
"-2 47 LINE",
"52 65 LINE",
"243 691 LINE {name = mh05;}",
"327 691 LINE {name = mh06;}",
"519 65 LINE",
"566 47 LINE",
"555 0 LINE",
"364 0 LINE"
);
},
{
closed = 1;
nodes = (
"188 304 LINE",
"373 304 LINE",
"279 616 LINE"
);
}
);
width = 570;
},
{
layerId = "753CA70B-25C4-47AF-A15F-390B5E4CCE16";
paths = (
{
closed = 1;
nodes = (
"514 805 LINE",
"486.439 767.417 OFFCURVE",
"440.005 727 OFFCURVE",
"391 727 CURVE SMOOTH",
"335.099 727 OFFCURVE",
"305.475 772 OFFCURVE",
"253 772 CURVE SMOOTH",
"219.22 772 OFFCURVE",
"193.998 749.647 OFFCURVE",
"184 718 CURVE {name = hr01;}",
"110 762 LINE",
"110 781 LINE SMOOTH",
"110 785.15 OFFCURVE",
"121.85 804.966 OFFCURVE",
"124.5 809 CURVE SMOOTH",
"150.706 848.9 OFFCURVE",
"194.285 873 OFFCURVE",
"242 873 CURVE SMOOTH",
"303.836 873 OFFCURVE",
"363.616 823.131 OFFCURVE",
"379 823 CURVE",
"433 881 LINE {name = hr02;}"
);
},
{
closed = 1;
nodes = (
"349 75 LINE",
"429 96 LINE",
"393 218 LINE",
"197 218 LINE",
"159 92 LINE",
"247 76 LINE",
"247 0 LINE",
"8 0 LINE",
"-5 78 LINE",
"50 96 LINE",
"248 691 LINE {name = mh01;}",
"372 691 LINE",
"573 96 LINE",
"619 78 LINE",
"609 0 LINE",
"349 0 LINE"
);
},
{
closed = 1;
nodes = (
"349 323 LINE",
"296 549 LINE",
"228 323 LINE"
);
}
);
width = 621;
}
);
leftKerningGroup = A;
rightKerningGroup = A;
unicode = 00C3;
userData = {
com.typemytype.robofont.mark = (
0.713,
0.6,
1,
1
);
};
},
{
glyphname = AE;
lastChange = "2018-07-24 15:11:20 +0000";
layers = (
{
layerId = "1178ECA0-A987-4969-BD6E-681EE9C1B9C8";
paths = (
{
closed = 1;
nodes = (
"-12 47 LINE",
"41 65 LINE",
"278 691 LINE {name = mh01;}",
"650 691 LINE",
"670 520 LINE",
"622 520 LINE",
"588 623 LINE",
"399 623 LINE",
"399 364 LINE",
"541 364 LINE",
"541 301 LINE",
"399 301 LINE",
"399 68 LINE",
"598 68 LINE",
"633 171 LINE",
"680 171 LINE",
"661 0 LINE",
"291 0 LINE",
"283 56 LINE",
"331 68 LINE",
"331 298 LINE",
"196 298 LINE",
"107 62 LINE",
"193 45 LINE",
"193 0 LINE",
"1 0 LINE {name = hr00;}"
);
},
{
closed = 1;
nodes = (
"320 628 LINE {name = mh03;}",
"219 361 LINE",
"331 361 LINE",
"331 627 LINE {name = mh02;}"
);
}
);
width = 720;
},
{
layerId = "753CA70B-25C4-47AF-A15F-390B5E4CCE16";
paths = (
{
closed = 1;
nodes = (
"-12 78 LINE",
"41 96 LINE",
"266 691 LINE {name = ah01;}",
"745 691 LINE",
"765 487 LINE",
"686 487 LINE {name = hr03;}",
"646 586 LINE",
"484 586 LINE",
"484 408 LINE",
"636 408 LINE",
"636 303 LINE",
"484 303 LINE",
"484 105 LINE",
"653 105 LINE {name = hr02;}",
"690 204 LINE",
"768 204 LINE {name = hr01;}",
"747 0 LINE",
"313 0 LINE",
"298 88 LINE",
"353 101 LINE",
"353 260 LINE",
"215 260 LINE",
"152 92 LINE",
"240 76 LINE",
"240 0 LINE",
"1 0 LINE {name = hr00;}"
);
},
{
closed = 1;
nodes = (
"255 365 LINE",
"353 365 LINE",
"353 595 LINE",
"342 596 LINE"
);
}
);
width = 803;
}
);
rightKerningGroup = E;
unicode = 00C6;
userData = {
com.typemytype.robofont.mark = (
0.713,
0.6,
1,
1
);
};
},
{
glyphname = B;
lastChange = "2018-07-24 15:11:20 +0000";
layers = (
{
layerId = "1178ECA0-A987-4969-BD6E-681EE9C1B9C8";
paths = (
{
closed = 1;
nodes = (
"181 68 LINE",
"309 68 LINE SMOOTH",
"389.588 68 OFFCURVE",
"439 112.994 OFFCURVE",
"439 195 CURVE SMOOTH",
"439 273.564 OFFCURVE",
"363.034 314 OFFCURVE",
"293 314 CURVE SMOOTH",
"181 314 LINE {name = hr00;}"
);
},
{
closed = 1;
nodes = (
"409 593.027 OFFCURVE",
"338.046 623 OFFCURVE",
"261 623 CURVE SMOOTH {name = mh01;}",
"181 623 LINE {name = hr01;}",
"181 377 LINE",
"276 377 LINE SMOOTH",
"353.822 377 OFFCURVE",
"409 425.187 OFFCURVE",
"409 505 CURVE SMOOTH"
);
},
{
closed = 1;
nodes = (
"55 56 LINE",
"112 68 LINE",
"112 627 LINE",
"55 632 LINE",
"55 691 LINE {name = mh02;}",
"263 691 LINE SMOOTH",
"375.254 691 OFFCURVE",
"480 634.806 OFFCURVE",
"480 510 CURVE SMOOTH",
"480 441.647 OFFCURVE",
"453.712 386.929 OFFCURVE",
"392 354 CURVE",
"468.227 319.693 OFFCURVE",
"510 274.087 OFFCURVE",
"510 187 CURVE SMOOTH",
"510 52.875 OFFCURVE",
"410.727 0 OFFCURVE",
"289 0 CURVE SMOOTH",
"62 0 LINE"
);
}
);
width = 557;
},
{
layerId = "753CA70B-25C4-47AF-A15F-390B5E4CCE16";
paths = (
{
closed = 1;
nodes = (
"41 85 LINE",
"105 100 LINE",
"105 593 LINE",
"35 600 LINE",
"35 690 LINE {name = ah01;}",
"312 690 LINE SMOOTH",
"422.69 690 OFFCURVE",
"536 633.955 OFFCURVE",
"536 509 CURVE SMOOTH",
"536 441.187 OFFCURVE",
"492.599 370.218 OFFCURVE",
"424 353 CURVE",
"510.752 329.967 OFFCURVE",
"564 280.491 OFFCURVE",
"564 187 CURVE SMOOTH {name = ah02;}",
"564 52.704 OFFCURVE",
"463.598 0 OFFCURVE",
"342 0 CURVE SMOOTH",
"55 0 LINE {name = hr00;}"
);
},
{
closed = 1;
nodes = (
"236 105 LINE",
"310 105 LINE SMOOTH",
"373.375 105 OFFCURVE",
"427 126.798 OFFCURVE",
"427 199 CURVE SMOOTH",
"427 277.915 OFFCURVE",
"359.71 295 OFFCURVE",
"294 295 CURVE SMOOTH",
"236 295 LINE {name = hr01;}"
);
},
{
closed = 1;
nodes = (
"399 561.965 OFFCURVE",
"339.85 585 OFFCURVE",
"281 585 CURVE SMOOTH",
"236 585 LINE",
"236 400 LINE",
"295 400 LINE SMOOTH",
"355.298 400 OFFCURVE",
"399 429.681 OFFCURVE",
"399 494 CURVE SMOOTH"
);
}
);
width = 596;
}
);
leftKerningGroup = H;
unicode = 0042;
userData = {
com.typemytype.robofont.mark = (
0.713,
0.6,
1,
1
);
};
},
{
glyphname = C;
lastChange = "2018-07-24 15:11:20 +0000";
layers = (
{
layerId = "1178ECA0-A987-4969-BD6E-681EE9C1B9C8";
paths = (
{
closed = 1;
nodes = (
"111 192.619 OFFCURVE",
"209.234 64 OFFCURVE",
"372 64 CURVE SMOOTH",
"414.892 64 OFFCURVE",
"463.641 75.744 OFFCURVE",
"500 99 CURVE",
"525 38 LINE",
"484.643 10.088 OFFCURVE",
"421.614 -4 OFFCURVE",
"373 -4 CURVE SMOOTH",
"168.328 -4 OFFCURVE",
"40 147.134 OFFCURVE",
"40 346 CURVE SMOOTH",
"40 537.859 OFFCURVE",
"180.199 691 OFFCURVE",
"375 691 CURVE SMOOTH {name = mh01;}",
"414.442 691 OFFCURVE",
"453.417 685.984 OFFCURVE",
"492 678 CURVE",
"510 520 LINE",
"453 520 LINE",
"429 618 LINE",
"411.039 620.264 OFFCURVE",
"395.384 623 OFFCURVE",
"377 623 CURVE SMOOTH {name = mh02;}",
"223.135 623 OFFCURVE",
"111 499.764 OFFCURVE",
"111 348 CURVE SMOOTH {name = hr00;}"
);
}
);
width = 556;
},
{
layerId = "753CA70B-25C4-47AF-A15F-390B5E4CCE16";
paths = (
{
closed = 1;
nodes = (
"162 223.293 OFFCURVE",
"232.896 101 OFFCURVE",
"370 101 CURVE SMOOTH",
"424.73 101 OFFCURVE",
"482.899 120.897 OFFCURVE",
"522 160 CURVE",
"564 71 LINE",
"518.329 18.848 OFFCURVE",
"431.989 -4 OFFCURVE",
"365 -4 CURVE SMOOTH",
"161.597 -4 OFFCURVE",
"28 131.3 OFFCURVE",
"28 334 CURVE SMOOTH {name = av01;}",
"28 526.881 OFFCURVE",
"155.617 691 OFFCURVE",
"358 691 CURVE SMOOTH {name = ah02;}",
"416.296 691 OFFCURVE",
"471.009 683.419 OFFCURVE",
"527 667 CURVE",
"547 460 LINE",
"466 460 LINE",
"448.764 497.754 OFFCURVE",
"432.029 547.845 OFFCURVE",
"410 582 CURVE",
"407 584 LINE",
"394.074 585.838 OFFCURVE",
"381.033 586 OFFCURVE",
"368 586 CURVE SMOOTH {name = ah01;}",
"238.086 586 OFFCURVE",
"162 468.058 OFFCURVE",
"162 348 CURVE SMOOTH {name = hr00;}"
);
}
);
width = 587;
}
);
leftKerningGroup = C;
rightKerningGroup = C;
unicode = 0043;
userData = {
com.typemytype.robofont.mark = (
0.713,
0.6,
1,
1
);
};
},
{
glyphname = Ccedilla;
lastChange = "2018-07-24 15:11:20 +0000";
layers = (
{
layerId = "1178ECA0-A987-4969-BD6E-681EE9C1B9C8";
paths = (
{
closed = 1;
nodes = (
"278 -74 LINE",
"306 2 LINE",
"134.755 32.872 OFFCURVE",
"42 179.038 OFFCURVE",
"42 346 CURVE SMOOTH",
"42 537.785 OFFCURVE",
"182.139 691 OFFCURVE",
"377 691 CURVE SMOOTH",
"416.442 691 OFFCURVE",
"455.417 685.983 OFFCURVE",
"494 678 CURVE",
"512 520 LINE",
"455 520 LINE",
"431 618 LINE",
"412.998 620.269 OFFCURVE",
"397.402 623 OFFCURVE",
"379 623 CURVE SMOOTH",
"222.504 623 OFFCURVE",
"113 501.798 OFFCURVE",
"113 348 CURVE SMOOTH",
"113 191.671 OFFCURVE",
"210.072 64 OFFCURVE",
"374 64 CURVE SMOOTH",
"416.884 64 OFFCURVE",
"465.649 75.744 OFFCURVE",
"502 99 CURVE",
"527 38 LINE",
"484.614 8.675 OFFCURVE",
"414.075 -7.256 OFFCURVE",
"363 -3 CURVE",
"351 -41 LINE",
"403.753 -47.606 OFFCURVE",
"443 -80.077 OFFCURVE",
"443 -136 CURVE SMOOTH",
"443 -209.181 OFFCURVE",
"385.69 -236 OFFCURVE",
"321 -236 CURVE SMOOTH",
"279.014 -236 OFFCURVE",
"258.85 -223.776 OFFCURVE",
"221 -212 CURVE",
"258 -141 LINE",
"323 -181 LINE",
"349.901 -181.038 OFFCURVE",
"378 -167.462 OFFCURVE",
"378 -137 CURVE SMOOTH",
"378 -94.439 OFFCURVE",
"323.232 -90 OFFCURVE",
"293 -90 CURVE {name = hr00;}"
);
}
);
width = 559;
},
{
layerId = "753CA70B-25C4-47AF-A15F-390B5E4CCE16";
paths = (
{
closed = 1;
nodes = (
"301 1 LINE",
"127.032 28.464 OFFCURVE",
"30 162.372 OFFCURVE",
"30 334 CURVE SMOOTH {name = mh01;}",
"30 527.047 OFFCURVE",
"157.845 691 OFFCURVE",
"360 691 CURVE SMOOTH {name = mh02;}",
"418.278 691 OFFCURVE",
"473.033 683.425 OFFCURVE",
"529 667 CURVE",
"549 460 LINE",
"468 460 LINE",
"450.776 497.728 OFFCURVE",
"434.034 547.838 OFFCURVE",
"412 582 CURVE",
"409 584 LINE",
"396.074 585.838 OFFCURVE",
"383.033 586 OFFCURVE",
"370 586 CURVE SMOOTH",
"237.963 586 OFFCURVE",
"166 468.961 OFFCURVE",
"166 348 CURVE SMOOTH",
"166 222.332 OFFCURVE",
"232.631 101 OFFCURVE",
"372 101 CURVE SMOOTH {name = mh03;}",
"426.731 101 OFFCURVE",
"484.888 120.886 OFFCURVE",
"524 160 CURVE",
"566 71 LINE",
"529.743 26.878 OFFCURVE",
"457.981 4.467 OFFCURVE",
"403 -2 CURVE {name = mh04;}",
"391 -41 LINE {name = mh05;}",
"451.717 -53.14 OFFCURVE",
"495 -91.295 OFFCURVE",
"495 -156 CURVE SMOOTH",
"495 -245.089 OFFCURVE",
"407.873 -286 OFFCURVE",
"330 -286 CURVE SMOOTH {name = hr01;}",
"282.527 -286 OFFCURVE",
"246.123 -274.882 OFFCURVE",
"202 -259 CURVE",
"252 -162 LINE",
"324 -210 LINE",
"353.252 -209.739 OFFCURVE",
"387 -191.763 OFFCURVE",
"387 -159 CURVE SMOOTH",
"387 -103.912 OFFCURVE",
"335.299 -104.826 OFFCURVE",
"296 -101 CURVE",
"272 -82 LINE {name = hr00;}"
);
}
);
width = 589;
}
);
leftKerningGroup = C;
rightKerningGroup = C;
unicode = 00C7;
userData = {
com.typemytype.robofont.mark = (
0.713,
0.6,
1,
1
);
};
},
{
glyphname = D;
lastChange = "2018-07-24 15:11:20 +0000";
layers = (
{
layerId = "1178ECA0-A987-4969-BD6E-681EE9C1B9C8";
paths = (
{
closed = 1;
nodes = (
"112 69 LINE",
"112 627 LINE",
"55 632 LINE",
"55 691 LINE",
"198 691 LINE SMOOTH {name = mh01;}",
"413.93 691 OFFCURVE",
"561 572.621 OFFCURVE",
"561 349 CURVE SMOOTH",
"561 123.458 OFFCURVE",
"436.699 0 OFFCURVE",
"211 0 CURVE SMOOTH",
"62 0 LINE",
"55 56 LINE {name = hr00;}"
);
},
{
closed = 1;
nodes = (
"490 462.622 OFFCURVE",
"437.859 560.85 OFFCURVE",
"327.5 603 CURVE SMOOTH",
"279.201 621.447 OFFCURVE",
"231.986 623 OFFCURVE",
"181 623 CURVE",
"181 68 LINE",
"225 68 LINE SMOOTH",
"403.771 68 OFFCURVE",
"490 174.048 OFFCURVE",
"490 348 CURVE SMOOTH"
);
}
);
width = 605;
},
{
layerId = "753CA70B-25C4-47AF-A15F-390B5E4CCE16";
paths = (
{
closed = 1;
nodes = (
"104 101 LINE {name = ah05;}",
"104 594 LINE {name = mh01;}",
"41 602 LINE {name = fh01;}",
"41 690 LINE {name = ah08;}",
"219 690 LINE SMOOTH {name = ah01;}",
"441.506 690 OFFCURVE",
"606 594.282 OFFCURVE",
"606 353 CURVE SMOOTH {name = ah02;}",
"606 127.147 OFFCURVE",
"491.12 0 OFFCURVE",
"262 0 CURVE SMOOTH",
"53 0 LINE",
"39 88 LINE {name = hr00;}"
);
},
{
closed = 1;
nodes = (
"469 505.165 OFFCURVE",
"390.515 585.036 OFFCURVE",
"235 585 CURVE {name = ah07;}",
"235 105 LINE {name = ah06;}",
"241.358 105.004 OFFCURVE",
"247.642 104 OFFCURVE",
"254 104 CURVE SMOOTH",
"409.773 104 OFFCURVE",
"469 206.19 OFFCURVE",
"469 350 CURVE SMOOTH {name = ah03;}"
);
}
);
width = 637;
}
);
leftKerningGroup = E;
rightKerningGroup = D;
unicode = 0044;
userData = {
com.typemytype.robofont.mark = (
0.713,
0.6,
1,
1
);
};
},
{
glyphname = Eth;
lastChange = "2018-07-24 15:11:20 +0000";
layers = (
{
layerId = "1178ECA0-A987-4969-BD6E-681EE9C1B9C8";
paths = (
{
closed = 1;
nodes = (
"113 69 LINE",
"113 314 LINE",
"23 314 LINE",
"23 369 LINE",
"30 377 LINE",
"113 377 LINE",
"113 627 LINE",
"56 632 LINE",
"56 691 LINE",
"199 691 LINE SMOOTH",
"414.93 691 OFFCURVE",
"562 572.621 OFFCURVE",
"562 349 CURVE SMOOTH",
"562 123.458 OFFCURVE",
"437.699 0 OFFCURVE",
"212 0 CURVE SMOOTH",
"63 0 LINE",
"56 56 LINE {name = hr00;}"
);
},
{
closed = 1;
nodes = (
"491 462.677 OFFCURVE",
"438.792 560.907 OFFCURVE",
"328.5 603 CURVE SMOOTH",
"280.174 621.444 OFFCURVE",
"233.021 623 OFFCURVE",
"182 623 CURVE",
"182 377 LINE",
"350 377 LINE SMOOTH",
"354.441 377 OFFCURVE",
"357 374.441 OFFCURVE",
"357 370 CURVE SMOOTH",
"357 314 LINE",
"182 314 LINE",
"182 68 LINE",
"226 68 LINE SMOOTH",
"404.785 68 OFFCURVE",
"491 174.053 OFFCURVE",
"491 348 CURVE SMOOTH"
);
}
);
width = 606;
},
{
layerId = "753CA70B-25C4-47AF-A15F-390B5E4CCE16";
paths = (
{
closed = 1;
nodes = (
"106 101 LINE",
"106 309 LINE",
"14 309 LINE",
"14 391 LINE",
"28 403 LINE",
"106 403 LINE",
"106 595 LINE",
"43 603 LINE",
"43 691 LINE {name = mh01;}",
"222 691 LINE SMOOTH",
"444.221 691 OFFCURVE",
"608 594.68 OFFCURVE",
"608 354 CURVE SMOOTH",
"608 130.438 OFFCURVE",
"492.513 0 OFFCURVE",
"265 0 CURVE SMOOTH",
"48 0 LINE",
"41 88 LINE {name = hr00;}"
);
},
{
closed = 1;
nodes = (
"237 105 LINE",
"243.358 105.004 OFFCURVE",
"249.642 104 OFFCURVE",
"256 104 CURVE SMOOTH",
"411.741 104 OFFCURVE",
"472 207.063 OFFCURVE",
"472 351 CURVE SMOOTH {name = mh03;}",
"472 506.768 OFFCURVE",
"393.247 586.028 OFFCURVE",
"237 586 CURVE",
"237 403 LINE {name = mh05;}",
"362 403 LINE SMOOTH",
"366.441 403 OFFCURVE",
"369 400.441 OFFCURVE",
"369 396 CURVE SMOOTH",
"369 309 LINE",
"237 309 LINE"
);
}
);
width = 639;
}
);
leftKerningGroup = E;
rightKerningGroup = D;
unicode = 00D0;
userData = {
com.typemytype.robofont.mark = (
0.713,
0.6,
1,
1
);
};
},
{
glyphname = E;
lastChange = "2018-07-24 15:11:20 +0000";
layers = (
{
layerId = "1178ECA0-A987-4969-BD6E-681EE9C1B9C8";
paths = (
{
closed = 1;
nodes = (
"55 691 LINE {name = mh01;}",
"453 691 LINE",
"473 520 LINE",
"425 520 LINE",
"391 623 LINE",
"181 623 LINE {name = mh02;}",
"181 377 LINE",
"343 377 LINE",
"343 314 LINE",
"181 314 LINE {name = hr01;}",
"181 68 LINE",
"401 68 LINE {name = hr02;}",
"436 171 LINE",
"483 171 LINE",
"464 0 LINE",
"62 0 LINE",
"55 56 LINE",
"112 68 LINE",
"112 627 LINE",
"55 632 LINE {name = hr00;}"
);
}
);
width = 523;
},
{
layerId = "753CA70B-25C4-47AF-A15F-390B5E4CCE16";
paths = (
{
closed = 1;
nodes = (
"516 486 LINE",
"438 486 LINE {name = hr03;}",
"397 585 LINE {name = mh02;}",
"235 585 LINE {name = mh03;}",
"235 407 LINE {name = mh04;}",
"387 407 LINE {name = mh05;}",
"387 302 LINE {name = mv01;}",
"235 302 LINE {name = mh06;}",
"235 105 LINE {name = mv02;}",
"404 105 LINE {name = hr02;}",
"441 204 LINE {name = mh07;}",
"520 204 LINE {name = hr01;}",
"499 0 LINE",
"53 0 LINE",
"39 88 LINE",
"104 101 LINE",
"104 594 LINE {name = mh08;}",
"41 601 LINE",
"41 690 LINE {name = mh09;}",
"497 690 LINE {name = mh01;}"
);
}
);
width = 555;
}
);
leftKerningGroup = E;
rightKerningGroup = E;
unicode = 0045;
userData = {
com.typemytype.robofont.mark = (
0.713,
0.6,
1,
1
);
};
},
{
glyphname = Eacute;
lastChange = "2018-07-24 15:11:20 +0000";
layers = (
{
layerId = "1178ECA0-A987-4969-BD6E-681EE9C1B9C8";
paths = (
{
closed = 1;
nodes = (
"331 897 LINE",
"361 890 LINE",
"398 818 LINE",
"205 717 LINE",
"173 764 LINE {name = hr00;}"
);
},
{
closed = 1;
nodes = (
"55 691 LINE {name = mh01;}",
"453 691 LINE",
"473 520 LINE",
"425 520 LINE",
"391 623 LINE {name = hr01;}",
"181 623 LINE",
"181 377 LINE {name = hr02;}",
"343 377 LINE",
"343 314 LINE",
"181 314 LINE",
"181 68 LINE",
"401 68 LINE",
"436 171 LINE",
"483 171 LINE",
"464 0 LINE",
"62 0 LINE",
"55 56 LINE",
"112 68 LINE",
"112 627 LINE",
"55 632 LINE"
);
}
);
width = 523;
},
{
layerId = "753CA70B-25C4-47AF-A15F-390B5E4CCE16";
paths = (
{
closed = 1;
nodes = (
"516 486 LINE {name = mh02;}",
"438 486 LINE",
"397 585 LINE",
"235 585 LINE {name = mh03;}",
"235 407 LINE",
"387 407 LINE {name = mh04;}",
"387 302 LINE {name = mv01;}",
"235 302 LINE",
"235 105 LINE {name = mh05;}",
"404 105 LINE",
"441 204 LINE {name = mh06;}",
"520 204 LINE {name = hr01;}",
"499 0 LINE",
"53 0 LINE {name = hr02;}",
"39 88 LINE",
"104 101 LINE",
"104 594 LINE {name = mh07;}",
"41 601 LINE",
"41 690 LINE {name = mh08;}",
"497 690 LINE {name = mh01;}"
);
},
{
closed = 1;
nodes = (
"334 959 LINE",
"371 974 LINE {name = hr03;}",
"449 865 LINE",
"252 741 LINE {name = mh09;}",
"205 795 LINE"
);
}
);
width = 555;
}
);
leftKerningGroup = E;
rightKerningGroup = E;
unicode = 00C9;
userData = {
com.typemytype.robofont.mark = (
0.713,
0.6,
1,
1
);
};
},
{
glyphname = Ecircumflex;
lastChange = "2018-07-24 15:11:20 +0000";
layers = (
{
layerId = "1178ECA0-A987-4969-BD6E-681EE9C1B9C8";
paths = (
{
closed = 1;
nodes = (
"267 884 LINE",
"408 727 LINE",
"334 727 LINE",
"258 790 LINE",
"183 727 LINE",
"109 727 LINE",
"251 884 LINE {name = ah02;}"
);
},
{
closed = 1;
nodes = (
"55 691 LINE {name = ah01;}",
"453 691 LINE",
"473 520 LINE {name = hr01;}",
"425 520 LINE",
"391 623 LINE {name = hr02;}",
"181 623 LINE",
"181 377 LINE",
"343 377 LINE",
"343 314 LINE",
"181 314 LINE {name = hr03;}",
"181 68 LINE",
"401 68 LINE",
"436 171 LINE {name = hr04;}",
"483 171 LINE",
"464 0 LINE",
"62 0 LINE",
"55 56 LINE",
"112 68 LINE",
"112 627 LINE",
"55 632 LINE"
);
}
);
width = 523;
},
{
layerId = "753CA70B-25C4-47AF-A15F-390B5E4CCE16";
paths = (
{
closed = 1;
nodes = (
"263 903 LINE {name = av01;}",
"300 903 LINE",
"472 736 LINE",
"465 724 LINE",
"379 724 LINE",
"281 782 LINE",
"184 724 LINE",
"99 724 LINE",
"92 737 LINE {name = hr00;}"
);
},
{
closed = 1;
nodes = (
"516 487 LINE {name = hr01;}",
"438 487 LINE",
"397 586 LINE {name = hr02;}",
"235 586 LINE",
"235 408 LINE",
"387 408 LINE",
"387 303 LINE",
"235 303 LINE",
"235 105 LINE",
"404 105 LINE",
"441 204 LINE",
"520 204 LINE",
"499 0 LINE",
"53 0 LINE",
"39 88 LINE",
"104 101 LINE",
"104 595 LINE",
"41 602 LINE",
"41 691 LINE",
"497 691 LINE {name = mh01;}"
);
}
);
width = 555;
}
);
leftKerningGroup = E;
rightKerningGroup = E;
unicode = 00CA;
userData = {
com.typemytype.robofont.mark = (
0.713,
0.6,
1,
1
);
};
},
{
glyphname = Edieresis;
lastChange = "2018-07-24 15:11:20 +0000";
layers = (
{
layerId = "1178ECA0-A987-4969-BD6E-681EE9C1B9C8";
paths = (
{
closed = 1;
nodes = (
"55 691 LINE {name = ah01;}",
"453 691 LINE",
"473 520 LINE",
"425 520 LINE",
"391 623 LINE",
"181 623 LINE",
"181 377 LINE",
"343 377 LINE",
"343 314 LINE",
"181 314 LINE",
"181 68 LINE",
"401 68 LINE",
"436 171 LINE",
"483 171 LINE",
"464 0 LINE",
"62 0 LINE",
"55 56 LINE",
"112 68 LINE {name = hr01;}",
"112 627 LINE",
"55 632 LINE {name = hr00;}"
);
},
{
closed = 1;
nodes = (
"119 825.131 OFFCURVE",
"143.869 850 OFFCURVE",
"176 850 CURVE SMOOTH {name = ah02;}",
"207.429 850 OFFCURVE",
"234 824.652 OFFCURVE",
"234 793 CURVE SMOOTH",
"234 761.478 OFFCURVE",
"207.577 735 OFFCURVE",
"176 735 CURVE SMOOTH",
"143.681 735 OFFCURVE",
"119 761.024 OFFCURVE",
"119 793 CURVE SMOOTH {name = hr02;}"
);
},
{
closed = 1;
nodes = (
"295 826.229 OFFCURVE",
"322.68 850 OFFCURVE",
"355 850 CURVE SMOOTH",
"386.755 850 OFFCURVE",
"410 824.139 OFFCURVE",
"410 793 CURVE SMOOTH {name = hr03;}",
"410 762.002 OFFCURVE",
"386.899 735 OFFCURVE",
"355 735 CURVE SMOOTH",
"322.494 735 OFFCURVE",
"295 759.885 OFFCURVE",
"295 793 CURVE SMOOTH"
);
}
);
width = 523;
},
{
layerId = "753CA70B-25C4-47AF-A15F-390B5E4CCE16";
paths = (
{
closed = 1;
nodes = (
"516 487 LINE",
"438 487 LINE {name = hr03;}",
"397 586 LINE",
"235 586 LINE",
"235 408 LINE",
"387 408 LINE",
"387 303 LINE",
"235 303 LINE",
"235 105 LINE",
"404 105 LINE {name = hr02;}",
"441 204 LINE",
"520 204 LINE {name = hr01;}",
"499 0 LINE",
"53 0 LINE",
"39 88 LINE",
"104 101 LINE",
"104 595 LINE",
"41 602 LINE",
"41 691 LINE {name = mv01;}",
"497 691 LINE {name = hr00;}"
);
},
{
closed = 1;
nodes = (
"131 841.995 OFFCURVE",
"160.629 873 OFFCURVE",
"199 873 CURVE SMOOTH",
"237.83 873 OFFCURVE",
"268 842.83 OFFCURVE",
"268 804 CURVE SMOOTH",
"268 765.041 OFFCURVE",
"237.66 736 OFFCURVE",
"199 736 CURVE SMOOTH",
"160.729 736 OFFCURVE",
"131 765.808 OFFCURVE",
"131 804 CURVE SMOOTH"
);
},
{
closed = 1;
nodes = (
"309 842.66 OFFCURVE",
"338.041 873 OFFCURVE",
"377 873 CURVE SMOOTH",
"416.124 873 OFFCURVE",
"444 842.443 OFFCURVE",
"444 804 CURVE SMOOTH",
"444 765.381 OFFCURVE",
"415.923 736 OFFCURVE",
"377 736 CURVE SMOOTH",
"338.209 736 OFFCURVE",
"309 765.209 OFFCURVE",
"309 804 CURVE SMOOTH"
);
}
);
width = 555;
}
);
leftKerningGroup = E;
rightKerningGroup = E;
unicode = 00CB;
userData = {
com.typemytype.robofont.mark = (
0.713,
0.6,
1,
1
);
};
},
{
glyphname = Egrave;
lastChange = "2018-07-24 15:11:20 +0000";
layers = (
{
layerId = "1178ECA0-A987-4969-BD6E-681EE9C1B9C8";
paths = (
{
closed = 1;
nodes = (
"124 818 LINE",
"161 890 LINE {name = ah02;}",
"191 897 LINE",
"359 764 LINE",
"328 717 LINE {name = hr00;}"
);
},
{
closed = 1;
nodes = (
"55 691 LINE {name = ah01;}",
"453 691 LINE",
"473 520 LINE",
"425 520 LINE",
"391 623 LINE {name = hr01;}",
"181 623 LINE",
"181 377 LINE {name = hr02;}",
"343 377 LINE",
"343 314 LINE",
"181 314 LINE",
"181 68 LINE",
"401 68 LINE",
"436 171 LINE",
"483 171 LINE",
"464 0 LINE",
"62 0 LINE",
"55 56 LINE",
"112 68 LINE",
"112 627 LINE",
"55 632 LINE"
);
}
);
width = 523;
},
{
layerId = "753CA70B-25C4-47AF-A15F-390B5E4CCE16";
paths = (
{
closed = 1;
nodes = (
"516 487 LINE",
"438 487 LINE {name = hr03;}",
"397 586 LINE",
"235 586 LINE",
"235 408 LINE",
"387 408 LINE",
"387 303 LINE",
"235 303 LINE",
"235 105 LINE",
"404 105 LINE {name = hr02;}",
"441 204 LINE",
"520 204 LINE {name = hr01;}",
"499 0 LINE",
"53 0 LINE",
"39 88 LINE",
"104 101 LINE",
"104 595 LINE",
"41 602 LINE",
"41 691 LINE {name = mv01;}",
"497 691 LINE {name = hr00;}"
);
},
{
closed = 1;
nodes = (
"170 868 LINE",
"247 959 LINE",
"282 942 LINE",
"394 765 LINE",
"353 724 LINE"
);
}
);
width = 555;
}
);
leftKerningGroup = E;
rightKerningGroup = E;
unicode = 00C8;
userData = {
com.typemytype.robofont.mark = (
0.713,
0.6,
1,
1
);
};
},
{
glyphname = F;
lastChange = "2018-07-24 15:11:20 +0000";
layers = (
{
layerId = "1178ECA0-A987-4969-BD6E-681EE9C1B9C8";
paths = (
{
closed = 1;
nodes = (
"61 0 LINE",
"55 56 LINE",
"112 68 LINE {name = hr01;}",
"112 627 LINE",
"55 632 LINE {name = hr02;}",
"55 691 LINE {name = mh01;}",
"453 691 LINE",
"474 520 LINE",
"426 520 LINE",
"391 624 LINE",
"181 624 LINE {name = mh02;}",
"181 377 LINE",
"343 377 LINE",
"343 314 LINE",
"181 314 LINE",
"181 72 LINE",
"333 51 LINE",
"328 0 LINE {name = hr00;}"
);
}
);
width = 492;
},
{
layerId = "753CA70B-25C4-47AF-A15F-390B5E4CCE16";
paths = (
{
closed = 1;
nodes = (
"53 0 LINE",
"39 88 LINE",
"104 101 LINE",
"104 594 LINE {name = mh01;}",
"41 601 LINE {name = mh02;}",
"41 690 LINE {name = mv01;}",
"497 690 LINE {name = mh03;}",
"516 485 LINE",
"440 485 LINE {name = hr01;}",
"397 585 LINE {name = mh04;}",
"235 585 LINE {name = mh05;}",
"235 407 LINE {name = mh06;}",
"387 407 LINE {name = av01;}",
"387 302 LINE {name = mv02;}",
"235 302 LINE",
"235 105 LINE",
"405 79 LINE {name = mv03;}",
"398 0 LINE {name = hr00;}"
);
}
);
width = 528;
}
);
leftKerningGroup = E;
unicode = 0046;
userData = {
com.typemytype.robofont.mark = (
0.713,
0.6,
1,
1
);
};
},
{
glyphname = G;
lastChange = "2018-07-24 15:11:20 +0000";
layers = (
{
layerId = "1178ECA0-A987-4969-BD6E-681EE9C1B9C8";
paths = (
{
closed = 1;
nodes = (
"544 17 LINE",
"492.879 1.803 OFFCURVE",
"439.217 -4 OFFCURVE",
"386 -4 CURVE SMOOTH",
"185.687 -4 OFFCURVE",
"40 139.064 OFFCURVE",
"40 340 CURVE SMOOTH",
"40 546.387 OFFCURVE",
"177.849 691 OFFCURVE",
"386 691 CURVE SMOOTH {name = mh01;}",
"432.868 691 OFFCURVE",
"479.568 684.356 OFFCURVE",
"525 673 CURVE",
"536 519 LINE",
"473 519 LINE",
"450 618 LINE",
"427.21 621.028 OFFCURVE",
"404.001 623 OFFCURVE",
"381 623 CURVE SMOOTH {name = mh02;}",
"214.357 623 OFFCURVE",
"111 506.243 OFFCURVE",
"111 343 CURVE SMOOTH",
"111 175.879 OFFCURVE",
"225.577 64 OFFCURVE",
"392 64 CURVE SMOOTH",
"419.477 64 OFFCURVE",
"448.109 65.041 OFFCURVE",
"475 71 CURVE",
"475 238 LINE",
"352 252 LINE",
"370 313 LINE",
"544 313 LINE {name = hr00;}"
);
}
);
width = 607;
},
{
layerId = "753CA70B-25C4-47AF-A15F-390B5E4CCE16";
paths = (
{
closed = 1;
nodes = (
"572 9 LINE",
"509.275 0.066 OFFCURVE",
"443.345 -4 OFFCURVE",
"380 -4 CURVE SMOOTH",
"169.551 -4 OFFCURVE",
"27 122.68 OFFCURVE",
"27 337 CURVE SMOOTH {name = av01;}",
"27 545.969 OFFCURVE",
"161.939 692 OFFCURVE",
"374 692 CURVE SMOOTH {name = ah01;}",
"433.566 692 OFFCURVE",
"489.53 681.43 OFFCURVE",
"547 667 CURVE",
"565 461 LINE",
"484 461 LINE",
"433 584 LINE",
"412.509 586.271 OFFCURVE",
"392.617 587 OFFCURVE",
"372 587 CURVE SMOOTH {name = ah06;}",
"235.486 587 OFFCURVE",
"164 459.916 OFFCURVE",
"164 337 CURVE SMOOTH",
"164 184.864 OFFCURVE",
"262.073 98 OFFCURVE",
"411 98 CURVE SMOOTH",
"420.982 98 OFFCURVE",
"431.166 98.064 OFFCURVE",
"441 100 CURVE",
"441 229 LINE",
"338 243 LINE",
"356 324 LINE",
"572 324 LINE {name = hr00;}"
);
}
);
width = 620;
}
);
leftKerningGroup = C;
unicode = 0047;
userData = {
com.typemytype.robofont.mark = (
0.713,
0.6,
1,
1
);
};
},
{
glyphname = H;
lastChange = "2018-07-24 15:11:20 +0000";
layers = (
{
layerId = "1178ECA0-A987-4969-BD6E-681EE9C1B9C8";
paths = (
{
closed = 1;
nodes = (
"476 324 LINE",
"180 324 LINE",
"180 64 LINE",
"238 60 LINE {name = hr01;}",
"238 0 LINE",
"62 0 LINE",
"57 56 LINE",
"112 64 LINE {name = hr02;}",
"112 627 LINE",
"54 631 LINE {name = hr03;}",
"54 691 LINE",
"231 691 LINE {name = mh01;}",
"235 635 LINE",
"180 627 LINE",
"180 387 LINE",
"476 387 LINE {name = hr04;}",
"476 627 LINE",
"418 631 LINE {name = hr05;}",
"418 691 LINE",
"594 691 LINE",
"599 635 LINE",
"544 627 LINE {name = hr06;}",
"544 64 LINE",
"602 60 LINE {name = hr07;}",
"602 0 LINE",
"425 0 LINE",
"421 56 LINE",
"476 64 LINE {name = hr00;}"
);
}
);
width = 656;
},
{
layerId = "753CA70B-25C4-47AF-A15F-390B5E4CCE16";
paths = (
{
closed = 1;
nodes = (
"461 102 LINE",
"461 302 LINE",
"236 302 LINE",
"236 99 LINE",
"299 87 LINE",
"299 57.987 OFFCURVE",
"300 29.011 OFFCURVE",
"300 0 CURVE",
"55 0 LINE",
"40 89 LINE",
"105 102 LINE",
"105 592 LINE",
"42 599 LINE",
"42 690 LINE",
"286 690 LINE",
"301 597 LINE",
"236 585 LINE",
"236 407 LINE",
"461 407 LINE",
"461 592 LINE",
"405 599 LINE",
"405 690 LINE",
"652 690 LINE",
"667 597 LINE",
"592 585 LINE",
"592 99 LINE",
"665 87 LINE",
"665 68 LINE SMOOTH",
"665 45.329 OFFCURVE",
"664 22.687 OFFCURVE",
"664 0 CURVE",
"418 0 LINE",
"403 89 LINE {name = hr00;}"
);
}
);
width = 702;
}
);
leftKerningGroup = H;
rightKerningGroup = H;
unicode = 0048;
userData = {
com.typemytype.robofont.mark = (
0.713,
0.6,
1,
1
);
};
},
{
glyphname = I;
lastChange = "2018-07-24 15:11:20 +0000";
layers = (
{
layerId = "1178ECA0-A987-4969-BD6E-681EE9C1B9C8";
paths = (
{
closed = 1;
nodes = (
"112 627 LINE",
"55 631 LINE",
"55 691 LINE",
"231 691 LINE {name = hr01;}",
"235 635 LINE",
"181 627 LINE",
"181 64 LINE",
"238 60 LINE {name = hr02;}",
"238 0 LINE",
"62 0 LINE {name = hr03;}",
"58 56 LINE",
"112 64 LINE {name = hr00;}"
);
}
);
width = 293;
},
{
layerId = "753CA70B-25C4-47AF-A15F-390B5E4CCE16";
paths = (
{
closed = 1;
nodes = (
"107 102 LINE",
"107 592 LINE",
"39 599 LINE",
"39 690 LINE",
"299 690 LINE",
"314 597 LINE",
"238 585 LINE",
"238 99 LINE",
"312 87 LINE",
"312 68 LINE SMOOTH",
"312 45.329 OFFCURVE",
"311 22.687 OFFCURVE",
"311 0 CURVE",
"51 0 LINE",
"37 89 LINE {name = hr00;}"
);
}
);
width = 348;
}
);
leftKerningGroup = I;
rightKerningGroup = I;
unicode = 0049;
userData = {
com.typemytype.robofont.mark = (
0.713,
0.6,
1,
1
);
};
},
{
glyphname = Iacute;
lastChange = "2018-07-24 15:11:20 +0000";
layers = (
{
layerId = "1178ECA0-A987-4969-BD6E-681EE9C1B9C8";
paths = (
{
closed = 1;
nodes = (
"194 897 LINE {name = ah01;}",
"225 890 LINE",
"261 818 LINE",
"68 717 LINE {name = hr01;}",
"37 764 LINE {name = hr00;}"
);
},
{
closed = 1;
nodes = (
"112 627 LINE",
"55 631 LINE",
"55 691 LINE {name = hr02;}",
"231 691 LINE",
"235 635 LINE {name = hr03;}",
"181 627 LINE",
"181 64 LINE",
"238 60 LINE",
"238 0 LINE",
"62 0 LINE",
"58 56 LINE",
"112 64 LINE"
);
}
);
width = 293;
},
{
layerId = "753CA70B-25C4-47AF-A15F-390B5E4CCE16";
paths = (
{
closed = 1;
nodes = (
"107 102 LINE",
"107 593 LINE",
"39 600 LINE",
"39 691 LINE",
"299 691 LINE",
"314 598 LINE",
"238 586 LINE",
"238 99 LINE",
"312 87 LINE",
"312 68 LINE SMOOTH",
"312 45.329 OFFCURVE",
"311 22.687 OFFCURVE",
"311 0 CURVE",
"51 0 LINE",
"37 89 LINE {name = hr00;}"
);
},
{
closed = 1;
nodes = (
"200 959 LINE",
"237 974 LINE",
"315 865 LINE",
"118 741 LINE",
"71 795 LINE"
);
}
);
width = 348;
}
);
leftKerningGroup = I;
rightKerningGroup = I;
unicode = 00CD;
userData = {
com.typemytype.robofont.mark = (
0.713,
0.6,
1,
1
);
};
},
{
glyphname = Icircumflex;
lastChange = "2018-07-24 15:11:20 +0000";
layers = (
{
layerId = "1178ECA0-A987-4969-BD6E-681EE9C1B9C8";
paths = (
{
closed = 1;
nodes = (
"157 884 LINE",
"297 727 LINE",
"224 727 LINE",
"148 790 LINE {name = hr01;}",
"73 727 LINE",
"-1 727 LINE",
"141 884 LINE {name = ah01;}"
);
},
{
closed = 1;
nodes = (
"112 627 LINE {name = hr02;}",
"55 631 LINE",
"55 691 LINE {name = hr03;}",
"231 691 LINE",
"235 635 LINE",
"181 627 LINE",
"181 64 LINE",
"238 60 LINE",
"238 0 LINE",
"62 0 LINE",
"58 56 LINE",
"112 64 LINE"
);
}
);
width = 293;
},
{
layerId = "753CA70B-25C4-47AF-A15F-390B5E4CCE16";
paths = (
{
closed = 1;
nodes = (
"107 102 LINE",
"107 593 LINE",
"39 600 LINE",
"39 691 LINE",
"299 691 LINE",
"314 598 LINE",
"238 586 LINE",
"238 99 LINE",
"312 87 LINE",
"312 68 LINE SMOOTH",
"312 45.329 OFFCURVE",
"311 22.687 OFFCURVE",
"311 0 CURVE",
"51 0 LINE",
"37 89 LINE {name = hr00;}"
);
},
{
closed = 1;
nodes = (
"157 903 LINE",
"194 903 LINE",
"366 736 LINE",
"359 724 LINE",
"273 724 LINE",
"175 782 LINE",
"77 724 LINE",
"-8 724 LINE",
"-14 737 LINE"
);
}
);
width = 348;
}
);
leftKerningGroup = I;
rightKerningGroup = I;
unicode = 00CE;
userData = {
com.typemytype.robofont.mark = (
0.713,
0.6,
1,
1
);
};
},
{
glyphname = Idieresis;
lastChange = "2018-07-24 15:11:20 +0000";
layers = (
{
layerId = "1178ECA0-A987-4969-BD6E-681EE9C1B9C8";
paths = (
{
closed = 1;
nodes = (
"20 824.367 OFFCURVE",
"44.368 850 OFFCURVE",
"76 850 CURVE SMOOTH {name = ah02;}",
"107.347 850 OFFCURVE",
"134 824.693 OFFCURVE",
"134 793 CURVE SMOOTH",
"134 760.945 OFFCURVE",
"108.055 735 OFFCURVE",
"76 735 CURVE SMOOTH",
"43.553 735 OFFCURVE",
"20 761.202 OFFCURVE",
"20 793 CURVE SMOOTH {name = hr01;}"
);
},
{
closed = 1;
nodes = (
"165 824.693 OFFCURVE",
"191.653 850 OFFCURVE",
"223 850 CURVE SMOOTH",
"254.632 850 OFFCURVE",
"279 824.367 OFFCURVE",
"279 793 CURVE SMOOTH",
"279 761.202 OFFCURVE",
"255.447 735 OFFCURVE",
"223 735 CURVE SMOOTH",
"190.945 735 OFFCURVE",
"165 760.945 OFFCURVE",
"165 793 CURVE SMOOTH"
);
},
{
closed = 1;
nodes = (
"112 627 LINE",
"55 631 LINE",
"55 691 LINE {name = ah01;}",
"231 691 LINE",
"235 635 LINE",
"181 627 LINE",
"181 64 LINE",
"238 60 LINE",
"238 0 LINE",
"62 0 LINE",
"58 56 LINE",
"112 64 LINE"
);
}
);
width = 293;
},
{
layerId = "753CA70B-25C4-47AF-A15F-390B5E4CCE16";
paths = (
{
closed = 1;
nodes = (
"107 102 LINE",
"107 593 LINE",
"39 600 LINE",
"39 691 LINE",
"299 691 LINE",
"314 598 LINE",
"238 586 LINE",
"238 99 LINE",
"312 87 LINE",
"312 68 LINE SMOOTH",
"312 45.329 OFFCURVE",
"311 22.687 OFFCURVE",
"311 0 CURVE",
"51 0 LINE",
"37 89 LINE {name = hr00;}"
);
},
{
closed = 1;
nodes = (
"23 841.995 OFFCURVE",
"52.63 873 OFFCURVE",
"91 873 CURVE SMOOTH",
"129.83 873 OFFCURVE",
"160 842.83 OFFCURVE",
"160 804 CURVE SMOOTH {name = hr01;}",
"160 765.041 OFFCURVE",
"129.66 736 OFFCURVE",
"91 736 CURVE SMOOTH",
"52.729 736 OFFCURVE",
"23 765.808 OFFCURVE",
"23 804 CURVE SMOOTH"
);
},
{
closed = 1;
nodes = (
"201 842.66 OFFCURVE",
"230.041 873 OFFCURVE",
"269 873 CURVE SMOOTH",
"308.124 873 OFFCURVE",
"336 842.443 OFFCURVE",
"336 804 CURVE SMOOTH",
"336 765.381 OFFCURVE",
"307.923 736 OFFCURVE",
"269 736 CURVE SMOOTH",
"230.209 736 OFFCURVE",
"201 765.209 OFFCURVE",
"201 804 CURVE SMOOTH"
);
}
);
width = 348;
}
);
leftKerningGroup = I;
rightKerningGroup = I;
unicode = 00CF;
userData = {
com.typemytype.robofont.mark = (
0.713,
0.6,
1,
1
);
};
},
{
glyphname = Igrave;
lastChange = "2018-07-24 15:11:20 +0000";
layers = (
{
layerId = "1178ECA0-A987-4969-BD6E-681EE9C1B9C8";
paths = (
{
closed = 1;
nodes = (
"40 818 LINE",
"76 890 LINE",
"107 897 LINE",
"275 764 LINE {name = hr01;}",
"243 717 LINE {name = hr00;}"
);
},
{
closed = 1;
nodes = (
"112 627 LINE",
"55 631 LINE",
"55 691 LINE {name = hr02;}",
"231 691 LINE",
"235 635 LINE {name = hr03;}",
"181 627 LINE",
"181 64 LINE",
"238 60 LINE",
"238 0 LINE",
"62 0 LINE",
"58 56 LINE",
"112 64 LINE"
);
}
);
width = 293;
},
{
layerId = "753CA70B-25C4-47AF-A15F-390B5E4CCE16";
paths = (
{
closed = 1;
nodes = (
"107 102 LINE",
"107 593 LINE",
"39 600 LINE",
"39 691 LINE",
"299 691 LINE",
"314 598 LINE",
"238 586 LINE",
"238 99 LINE",
"312 87 LINE",
"312 68 LINE SMOOTH",
"312 45.329 OFFCURVE",
"311 22.687 OFFCURVE",
"311 0 CURVE",
"51 0 LINE",
"37 89 LINE {name = hr00;}"
);
},
{
closed = 1;
nodes = (
"58 868 LINE",
"135 959 LINE",
"170 942 LINE",
"282 765 LINE",
"241 724 LINE"
);
}
);
width = 348;
}
);
leftKerningGroup = I;
rightKerningGroup = I;
unicode = 00CC;
userData = {
com.typemytype.robofont.mark = (
0.713,
0.6,
1,
1
);
};
},
{
glyphname = J;
lastChange = "2018-07-24 15:11:20 +0000";
layers = (
{
layerId = "1178ECA0-A987-4969-BD6E-681EE9C1B9C8";
paths = (
{
closed = 1;
nodes = (
"122 691 LINE",
"315 691 LINE {name = mh01;}",
"315 631 LINE",
"257 627 LINE",
"257 144 LINE SMOOTH",
"257 60.447 OFFCURVE",
"225.877 -4 OFFCURVE",
"133 -4 CURVE SMOOTH",
"88.41 -4 OFFCURVE",
"44.356 14.815 OFFCURVE",
"11 44 CURVE",
"50 102 LINE",
"74.251 77.799 OFFCURVE",
"103.324 62 OFFCURVE",
"138 62 CURVE SMOOTH",
"175.9 62 OFFCURVE",
"189 89.216 OFFCURVE",
"189 123 CURVE SMOOTH",
"189 627 LINE",
"116 635 LINE {name = hr00;}"
);
}
);
width = 358;
},
{
layerId = "753CA70B-25C4-47AF-A15F-390B5E4CCE16";
paths = (
{
closed = 1;
nodes = (
"105.436 -4 OFFCURVE",
"41.376 22.919 OFFCURVE",
"2 59 CURVE",
"72 160 LINE {name = mv02;}",
"90.512 145.317 OFFCURVE",
"132.805 110 OFFCURVE",
"156 110 CURVE SMOOTH",
"170.393 110 OFFCURVE",
"173 124.464 OFFCURVE",
"173 136 CURVE SMOOTH {name = mh03;}",
"173 585 LINE",
"93 597 LINE {name = mh04;}",
"108 690 LINE {name = ah01;}",
"372 690 LINE {name = mh05;}",
"372 599 LINE",
"304 592 LINE {name = mh06;}",
"304 175 LINE SMOOTH {name = hr00;}",
"304 78.229 OFFCURVE",
"269.116 -4 OFFCURVE",
"159 -4 CURVE SMOOTH {name = hr00;}"
);
}
);
width = 397;
}
);
unicode = 004A;
userData = {
com.typemytype.robofont.mark = (
0.713,
0.6,
1,
1
);
};
},
{
glyphname = K;
lastChange = "2018-07-24 15:11:20 +0000";
layers = (
{
layerId = "1178ECA0-A987-4969-BD6E-681EE9C1B9C8";
paths = (
{
closed = 1;
nodes = (
"112 627 LINE",
"55 631 LINE",
"55 691 LINE",
"231 691 LINE {name = hr01;}",
"235 635 LINE",
"181 627 LINE",
"181 286 LINE",
"461 631 LINE",
"382 637 LINE",
"382 691 LINE",
"572 691 LINE",
"572 635 LINE",
"538 628 LINE",
"338 381 LINE",
"517 66 LINE",
"577 57 LINE",
"577 0 LINE",
"471 0 LINE",
"291 323 LINE",
"181 187 LINE",
"181 64 LINE",
"238 60 LINE {name = hr02;}",
"238 0 LINE",
"62 0 LINE {name = hr03;}",
"58 56 LINE",
"112 64 LINE {name = hr00;}"
);
}
);
width = 594;
},
{
layerId = "753CA70B-25C4-47AF-A15F-390B5E4CCE16";
paths = (
{
closed = 1;
nodes = (
"107 102 LINE",
"107 592 LINE",
"39 597 LINE",
"39 690 LINE",
"292 690 LINE",
"307 600 LINE",
"238 585 LINE",
"238 345 LINE",
"439 585 LINE",
"362 601 LINE",
"362 690 LINE",
"614 690 LINE",
"614 601 LINE",
"575 593 LINE",
"521.235 522.697 OFFCURVE",
"459.95 457.865 OFFCURVE",
"402 391 CURVE",
"564 97 LINE",
"618 87 LINE",
"618 0 LINE",
"460 0 LINE",
"314 291 LINE",
"288.151 261.78 OFFCURVE",
"262.801 232.115 OFFCURVE",
"238 202 CURVE",
"238 99 LINE",
"304 87 LINE",
"304 57.988 OFFCURVE",
"305 29.01 OFFCURVE",
"305 0 CURVE",
"51 0 LINE",
"37 89 LINE {name = hr00;}"
);
}
);
width = 635;
}
);
leftKerningGroup = I;
unicode = 004B;
userData = {
com.typemytype.robofont.mark = (
0.713,
0.6,
1,
1
);
};
},
{
glyphname = L;
lastChange = "2018-07-24 15:11:20 +0000";
layers = (
{
layerId = "1178ECA0-A987-4969-BD6E-681EE9C1B9C8";
paths = (
{
closed = 1;
nodes = (
"54 691 LINE {name = mh01;}",
"240 691 LINE",
"244 635 LINE",
"180 627 LINE",
"180 68 LINE",
"400 68 LINE",
"435 171 LINE",
"482 171 LINE",
"463 0 LINE",
"61 0 LINE",
"54 56 LINE",
"111 64 LINE",
"111 627 LINE",
"54 631 LINE {name = hr00;}"
);
}
);
width = 496;
},
{
layerId = "753CA70B-25C4-47AF-A15F-390B5E4CCE16";
paths = (
{
closed = 1;
nodes = (
"310 599 LINE",
"235 585 LINE {name = mv02;}",
"235 105 LINE {name = mv03;}",
"404 105 LINE {name = hr02;}",
"441 204 LINE",
"520 204 LINE {name = hr01;}",
"499 0 LINE",
"53 0 LINE",
"39 88 LINE",
"104 101 LINE",
"104 594 LINE",
"41 601 LINE",
"41 690 LINE {name = mh01;}",
"295 690 LINE {name = mv01;}"
);
}
);
width = 524;
}
);
unicode = 004C;
userData = {
com.typemytype.robofont.mark = (
0.713,
0.6,
1,
1
);
};
},
{
glyphname = M;
lastChange = "2018-07-24 15:11:20 +0000";
layers = (
{
layerId = "1178ECA0-A987-4969-BD6E-681EE9C1B9C8";
paths = (
{
closed = 1;
nodes = (
"421 87 LINE",
"608 691 LINE",
"766 691 LINE",
"772 631 LINE",
"720 626 LINE",
"720 67 LINE",
"780 55 LINE",
"780 0 LINE",
"600 0 LINE",
"595 55 LINE",
"651 68 LINE",
"651 636 LINE",
"458 15 LINE",
"371 15 LINE",
"175 623 LINE",
"175 66 LINE",
"238 56 LINE",
"238 0 LINE",
"62 0 LINE",
"54 56 LINE",
"112 68 LINE",
"112 627 LINE",
"55 632 LINE",
"55 691 LINE {name = mh01;}",
"226 691 LINE {name = hr00;}"
);
}
);
width = 831;
},
{
layerId = "753CA70B-25C4-47AF-A15F-390B5E4CCE16";
paths = (
{
closed = 1;
nodes = (
"306 690 LINE {name = mh01;}",
"450 178 LINE {name = mh02;}",
"595 690 LINE {name = mh03;}",
"834 690 LINE {name = mh04;}",
"849 597 LINE",
"794 585 LINE {name = mh05;}",
"794 94 LINE",
"845 87 LINE",
"845 0 LINE",
"633 0 LINE {name = mh06;}",
"624 90 LINE",
"668 103 LINE",
"668 596 LINE {name = mh07;}",
"501 13 LINE {name = mh08;}",
"367 13 LINE {name = mh09;}",
"204 589 LINE {name = mh10;}",
"204 98 LINE {name = mh11;}",
"250 87 LINE",
"250.024 58.016 OFFCURVE",
"251 29.026 OFFCURVE",
"251 0 CURVE",
"51 0 LINE",
"45 87 LINE",
"104 95 LINE",
"104 590 LINE {name = mh12;}",
"49 596 LINE",
"49 690 LINE {name = hr00;}"
);
}
);
width = 895;
}
);
leftKerningGroup = H;
rightKerningGroup = H;
unicode = 004D;
userData = {
com.typemytype.robofont.mark = (
0.713,
0.6,
1,
1
);
};
},
{
glyphname = N;
lastChange = "2018-07-24 15:11:20 +0000";
layers = (
{
layerId = "1178ECA0-A987-4969-BD6E-681EE9C1B9C8";
paths = (
{
closed = 1;
nodes = (
"174 66 LINE",
"241 56 LINE",
"241 0 LINE",
"62 0 LINE",
"54 56 LINE",
"112 68 LINE",
"112 627 LINE",
"54 632 LINE",
"54 691 LINE {name = mh01;}",
"221 691 LINE {name = mh02;}",
"491 75 LINE",
"491 625 LINE",
"427 635 LINE",
"427 691 LINE",
"605 691 LINE",
"615 635 LINE",
"554 623 LINE",
"554 0 LINE",
"449 0 LINE {name = mh03;}",
"174 629 LINE {name = hr00;}"
);
}
);
width = 659;
},
{
layerId = "753CA70B-25C4-47AF-A15F-390B5E4CCE16";
paths = (
{
closed = 1;
nodes = (
"211 104 LINE",
"262 88 LINE",
"262 65 LINE SMOOTH",
"262 43.326 OFFCURVE",
"261 21.678 OFFCURVE",
"261 0 CURVE",
"53 0 LINE",
"37 87 LINE",
"106 100 LINE",
"106 590 LINE",
"42 597 LINE",
"42 690 LINE",
"298 690 LINE",
"525 96 LINE",
"525 592 LINE",
"467 599 LINE",
"467 690 LINE",
"682 690 LINE",
"697 597 LINE",
"630 585 LINE",
"630 0 LINE",
"428 0 LINE",
"211 562 LINE {name = hr00;}"
);
}
);
width = 727;
}
);
leftKerningGroup = H;
rightKerningGroup = N;
unicode = 004E;
userData = {
com.typemytype.robofont.mark = (
0.713,
0.6,
1,
1
);
};
},
{
glyphname = Ntilde;
lastChange = "2018-07-24 15:11:20 +0000";
layers = (
{
layerId = "1178ECA0-A987-4969-BD6E-681EE9C1B9C8";
paths = (
{
closed = 1;
nodes = (
"504 770 LINE",
"483.167 751.774 OFFCURVE",
"448.631 727 OFFCURVE",
"420 727 CURVE SMOOTH",
"365.425 727 OFFCURVE",
"334.91 778 OFFCURVE",
"281 778 CURVE SMOOTH {name = mh02;}",
"242.908 778 OFFCURVE",
"224.993 760.078 OFFCURVE",
"206 729 CURVE",
"169 760 LINE",
"169 776 LINE",
"191.313 820.437 OFFCURVE",
"234.549 842 OFFCURVE",
"283 842 CURVE SMOOTH {name = mh03;}",
"332.799 842 OFFCURVE",
"365.993 812.817 OFFCURVE",
"405 786 CURVE {name = mh04;}",
"467 836 LINE {name = hr00;}"
);
},
{
closed = 1;
nodes = (
"174 66 LINE",
"241 56 LINE",
"241 0 LINE",
"62 0 LINE",
"54 56 LINE",
"112 68 LINE",
"112 627 LINE",
"54 632 LINE",
"54 691 LINE {name = mh05;}",
"221 691 LINE",
"491 75 LINE",
"491 625 LINE",
"427 635 LINE",
"427 691 LINE",
"605 691 LINE",
"615 635 LINE",
"554 623 LINE",
"554 0 LINE",
"449 0 LINE",
"174 629 LINE"
);
}
);
width = 659;
},
{
layerId = "753CA70B-25C4-47AF-A15F-390B5E4CCE16";
paths = (
{
closed = 1;
nodes = (
"211 104 LINE",
"262 88 LINE",
"262 65 LINE SMOOTH",
"262 43.326 OFFCURVE",
"261 21.678 OFFCURVE",
"261 0 CURVE",
"53 0 LINE",
"37 87 LINE",
"106 100 LINE",
"106 590 LINE",
"42 597 LINE",
"42 690 LINE",
"298 690 LINE",
"525 96 LINE",
"525 592 LINE",
"467 599 LINE",
"467 690 LINE",
"682 690 LINE",
"697 597 LINE",
"630 585 LINE",
"630 0 LINE",
"428 0 LINE",
"211 562 LINE {name = hr00;}"
);
},
{
closed = 1;
nodes = (
"567 805 LINE",
"539.439 767.417 OFFCURVE",
"493.005 727 OFFCURVE",
"444 727 CURVE SMOOTH",
"388.099 727 OFFCURVE",
"358.475 772 OFFCURVE",
"306 772 CURVE SMOOTH",
"272.22 772 OFFCURVE",
"246.998 749.647 OFFCURVE",
"237 718 CURVE",
"163 762 LINE {name = hr01;}",
"163 781 LINE SMOOTH",
"163 785.15 OFFCURVE",
"174.85 804.966 OFFCURVE",
"177.5 809 CURVE SMOOTH",
"203.706 848.9 OFFCURVE",
"247.285 873 OFFCURVE",
"295 873 CURVE SMOOTH",
"356.836 873 OFFCURVE",
"416.616 823.131 OFFCURVE",
"432 823 CURVE",
"486 881 LINE"
);
}
);
width = 727;
}
);
leftKerningGroup = H;
rightKerningGroup = N;
unicode = 00D1;
userData = {
com.typemytype.robofont.mark = (
0.713,
0.6,
1,
1
);
};
},
{
glyphname = O;
lastChange = "2018-07-24 15:11:20 +0000";
layers = (
{
layerId = "1178ECA0-A987-4969-BD6E-681EE9C1B9C8";
paths = (
{
closed = 1;
nodes = (
"132.916 -4 OFFCURVE",
"50 176.165 OFFCURVE",
"50 343 CURVE SMOOTH",
"50 509.141 OFFCURVE",
"133.425 691 OFFCURVE",
"323 691 CURVE SMOOTH {name = mh01;}",
"512.668 691 OFFCURVE",
"595 508.925 OFFCURVE",
"595 343 CURVE SMOOTH {name = mh02;}",
"595 176.381 OFFCURVE",
"513.174 -4 OFFCURVE",
"323 -4 CURVE SMOOTH {name = hr00;}"
);
},
{
closed = 1;
nodes = (
"121 213.252 OFFCURVE",
"171.36 64 OFFCURVE",
"323 64 CURVE SMOOTH {name = mh03;}",
"473.919 64 OFFCURVE",
"524 214.071 OFFCURVE",
"524 341 CURVE SMOOTH",
"524 467.092 OFFCURVE",
"474.083 623 OFFCURVE",
"323 623 CURVE SMOOTH",
"171.185 623 OFFCURVE",
"121 467.915 OFFCURVE",
"121 341 CURVE SMOOTH"
);
}
);
width = 645;
},
{
layerId = "753CA70B-25C4-47AF-A15F-390B5E4CCE16";
paths = (
{
closed = 1;
nodes = (
"123.698 -4 OFFCURVE",
"36 160.889 OFFCURVE",
"36 345 CURVE SMOOTH {name = mh01;}",
"36 529.995 OFFCURVE",
"123.1 693 OFFCURVE",
"328 693 CURVE SMOOTH {name = mh03;}",
"532.919 693 OFFCURVE",
"619 529.715 OFFCURVE",
"619 345 CURVE SMOOTH {name = mh04;}",
"619 161.164 OFFCURVE",
"532.318 -4 OFFCURVE",
"328 -4 CURVE SMOOTH {name = hr00;}"
);
},
{
closed = 1;
nodes = (
"173 249.148 OFFCURVE",
"210.068 101 OFFCURVE",
"328 101 CURVE SMOOTH",
"444.905 101 OFFCURVE",
"482 250.206 OFFCURVE",
"482 343 CURVE SMOOTH {name = mh05;}",
"482 435.518 OFFCURVE",
"445.226 588 OFFCURVE",
"328 588 CURVE SMOOTH",
"209.791 588 OFFCURVE",
"173 436.585 OFFCURVE",
"173 343 CURVE SMOOTH"
);
}
);
width = 655;
}
);
leftKerningGroup = O;
rightKerningGroup = O;
unicode = 004F;
userData = {
com.typemytype.robofont.mark = (
0.713,
0.6,
1,
1
);
};
},
{
glyphname = Oacute;
lastChange = "2018-07-24 15:11:20 +0000";
layers = (
{
layerId = "1178ECA0-A987-4969-BD6E-681EE9C1B9C8";
paths = (
{
closed = 1;
nodes = (
"366 897 LINE {name = ah02;}",
"396 890 LINE",
"433 818 LINE",
"240 717 LINE {name = ah05;}",
"208 764 LINE {name = hr00;}"
);
},
{
closed = 1;
nodes = (
"132.916 -4 OFFCURVE",
"50 176.165 OFFCURVE",
"50 343 CURVE SMOOTH {name = ah03;}",
"50 509.141 OFFCURVE",
"133.425 691 OFFCURVE",
"323 691 CURVE SMOOTH {name = ah01;}",
"512.668 691 OFFCURVE",
"595 508.925 OFFCURVE",
"595 343 CURVE SMOOTH {name = ah04;}",
"595 176.381 OFFCURVE",
"513.174 -4 OFFCURVE",
"323 -4 CURVE SMOOTH"
);
},
{
closed = 1;
nodes = (
"121 213.252 OFFCURVE",
"171.36 64 OFFCURVE",
"323 64 CURVE SMOOTH",
"473.919 64 OFFCURVE",
"524 214.071 OFFCURVE",
"524 341 CURVE SMOOTH",
"524 467.092 OFFCURVE",
"474.083 623 OFFCURVE",
"323 623 CURVE SMOOTH",
"171.185 623 OFFCURVE",
"121 467.915 OFFCURVE",
"121 341 CURVE SMOOTH"
);
}
);
width = 645;
},
{
layerId = "753CA70B-25C4-47AF-A15F-390B5E4CCE16";
paths = (
{
closed = 1;
nodes = (
"123.698 -4 OFFCURVE",
"36 160.889 OFFCURVE",
"36 345 CURVE SMOOTH",
"36 529.995 OFFCURVE",
"123.1 693 OFFCURVE",
"328 693 CURVE SMOOTH {name = mv01;}",
"532.919 693 OFFCURVE",
"619 529.715 OFFCURVE",
"619 345 CURVE SMOOTH",
"619 161.164 OFFCURVE",
"532.318 -4 OFFCURVE",
"328 -4 CURVE SMOOTH {name = hr00;}"
);
},
{
closed = 1;
nodes = (
"173 249.148 OFFCURVE",
"210.068 101 OFFCURVE",
"328 101 CURVE SMOOTH",
"444.905 101 OFFCURVE",
"482 250.206 OFFCURVE",
"482 343 CURVE SMOOTH",
"482 435.518 OFFCURVE",
"445.226 588 OFFCURVE",
"328 588 CURVE SMOOTH",
"209.791 588 OFFCURVE",
"173 436.585 OFFCURVE",
"173 343 CURVE SMOOTH"
);
},
{
closed = 1;
nodes = (
"358 959 LINE",
"395 974 LINE",
"473 865 LINE",
"276 741 LINE",
"229 795 LINE"
);
}
);
width = 655;
}
);
leftKerningGroup = O;
rightKerningGroup = O;
unicode = 00D3;
userData = {
com.typemytype.robofont.mark = (
0.713,
0.6,
1,
1
);
};
},
{
glyphname = Ocircumflex;
lastChange = "2018-07-24 15:11:20 +0000";
layers = (
{
layerId = "1178ECA0-A987-4969-BD6E-681EE9C1B9C8";
paths = (
{
closed = 1;
nodes = (
"323 884 LINE",
"464 727 LINE",
"390 727 LINE",
"314 790 LINE",
"239 727 LINE",
"165 727 LINE",
"307 884 LINE {name = hr00;}"
);
},
{
closed = 1;
nodes = (
"132.916 -4 OFFCURVE",
"50 176.165 OFFCURVE",
"50 343 CURVE SMOOTH",
"50 509.141 OFFCURVE",
"133.425 691 OFFCURVE",
"323 691 CURVE SMOOTH {name = ah01;}",
"512.668 691 OFFCURVE",
"595 508.925 OFFCURVE",
"595 343 CURVE SMOOTH",
"595 176.381 OFFCURVE",
"513.174 -4 OFFCURVE",
"323 -4 CURVE SMOOTH"
);
},
{
closed = 1;
nodes = (
"121 213.252 OFFCURVE",
"171.36 64 OFFCURVE",
"323 64 CURVE SMOOTH",
"473.919 64 OFFCURVE",
"524 214.071 OFFCURVE",
"524 341 CURVE SMOOTH",
"524 467.092 OFFCURVE",
"474.083 623 OFFCURVE",
"323 623 CURVE SMOOTH {name = ah02;}",
"171.185 623 OFFCURVE",
"121 467.915 OFFCURVE",
"121 341 CURVE SMOOTH"
);
}
);
width = 645;
},
{
layerId = "753CA70B-25C4-47AF-A15F-390B5E4CCE16";
paths = (
{
closed = 1;
nodes = (
"318 903 LINE {name = mv01;}",
"355 903 LINE",
"527 736 LINE {name = mh02;}",
"520 724 LINE",
"434 724 LINE",
"336 782 LINE",
"238 724 LINE",
"153 724 LINE",
"147 737 LINE {name = mh01;}"
);
},
{
closed = 1;
nodes = (
"123.698 -4 OFFCURVE",
"36 160.889 OFFCURVE",
"36 345 CURVE SMOOTH",
"36 529.995 OFFCURVE",
"123.1 693 OFFCURVE",
"328 693 CURVE SMOOTH {name = mv02;}",
"532.919 693 OFFCURVE",
"619 529.715 OFFCURVE",
"619 345 CURVE SMOOTH",
"619 161.164 OFFCURVE",
"532.318 -4 OFFCURVE",
"328 -4 CURVE SMOOTH"
);
},
{
closed = 1;
nodes = (
"173 249.148 OFFCURVE",
"210.068 101 OFFCURVE",
"328 101 CURVE SMOOTH",
"444.905 101 OFFCURVE",
"482 250.206 OFFCURVE",
"482 343 CURVE SMOOTH",
"482 435.518 OFFCURVE",
"445.226 588 OFFCURVE",
"328 588 CURVE SMOOTH",
"209.791 588 OFFCURVE",
"173 436.585 OFFCURVE",
"173 343 CURVE SMOOTH"
);
}
);
width = 655;
}
);
leftKerningGroup = O;
rightKerningGroup = O;
unicode = 00D4;
userData = {
com.typemytype.robofont.mark = (
0.713,
0.6,
1,
1
);
};
},
{
glyphname = Odieresis;
lastChange = "2018-07-24 15:11:20 +0000";
layers = (
{
layerId = "1178ECA0-A987-4969-BD6E-681EE9C1B9C8";
paths = (
{
closed = 1;
nodes = (
"132.916 -4 OFFCURVE",
"50 176.165 OFFCURVE",
"50 343 CURVE SMOOTH",
"50 509.141 OFFCURVE",
"133.425 691 OFFCURVE",
"323 691 CURVE SMOOTH {name = mh01;}",
"512.668 691 OFFCURVE",
"595 508.925 OFFCURVE",
"595 343 CURVE SMOOTH",
"595 176.381 OFFCURVE",
"513.174 -4 OFFCURVE",
"323 -4 CURVE SMOOTH {name = hr00;}"
);
},
{
closed = 1;
nodes = (
"121 213.252 OFFCURVE",
"171.36 64 OFFCURVE",
"323 64 CURVE SMOOTH",
"473.919 64 OFFCURVE",
"524 214.071 OFFCURVE",
"524 341 CURVE SMOOTH",
"524 467.092 OFFCURVE",
"474.083 623 OFFCURVE",
"323 623 CURVE SMOOTH",
"171.185 623 OFFCURVE",
"121 467.915 OFFCURVE",
"121 341 CURVE SMOOTH"
);
},
{
closed = 1;
nodes = (
"187 825.131 OFFCURVE",
"211.869 850 OFFCURVE",
"244 850 CURVE SMOOTH {name = mh02;}",
"275.429 850 OFFCURVE",
"302 824.652 OFFCURVE",
"302 793 CURVE SMOOTH",
"302 761.478 OFFCURVE",
"275.577 735 OFFCURVE",
"244 735 CURVE SMOOTH",
"211.681 735 OFFCURVE",
"187 761.024 OFFCURVE",
"187 793 CURVE SMOOTH"
);
},
{
closed = 1;
nodes = (
"363 826.229 OFFCURVE",
"390.68 850 OFFCURVE",
"423 850 CURVE SMOOTH {name = mh03;}",
"454.755 850 OFFCURVE",
"478 824.139 OFFCURVE",
"478 793 CURVE SMOOTH",
"478 762.002 OFFCURVE",
"454.899 735 OFFCURVE",
"423 735 CURVE SMOOTH",
"390.494 735 OFFCURVE",
"363 759.885 OFFCURVE",
"363 793 CURVE SMOOTH"
);
}
);
width = 645;
},
{
layerId = "753CA70B-25C4-47AF-A15F-390B5E4CCE16";
paths = (
{
closed = 1;
nodes = (
"123.698 -4 OFFCURVE",
"36 160.889 OFFCURVE",
"36 345 CURVE SMOOTH {name = mh01;}",
"36 529.995 OFFCURVE",
"123.1 693 OFFCURVE",
"328 693 CURVE SMOOTH {name = mv01;}",
"532.919 693 OFFCURVE",
"619 529.715 OFFCURVE",
"619 345 CURVE SMOOTH {name = mh02;}",
"619 161.164 OFFCURVE",
"532.318 -4 OFFCURVE",
"328 -4 CURVE SMOOTH {name = hr00;}"
);
},
{
closed = 1;
nodes = (
"173 249.148 OFFCURVE",
"210.068 101 OFFCURVE",
"328 101 CURVE SMOOTH",
"444.905 101 OFFCURVE",
"482 250.206 OFFCURVE",
"482 343 CURVE SMOOTH",
"482 435.518 OFFCURVE",
"445.226 588 OFFCURVE",
"328 588 CURVE SMOOTH",
"209.791 588 OFFCURVE",
"173 436.585 OFFCURVE",
"173 343 CURVE SMOOTH"
);
},
{
closed = 1;
nodes = (
"174 841.995 OFFCURVE",
"203.629 873 OFFCURVE",
"242 873 CURVE SMOOTH",
"280.83 873 OFFCURVE",
"311 842.83 OFFCURVE",
"311 804 CURVE SMOOTH",
"311 765.041 OFFCURVE",
"280.66 736 OFFCURVE",
"242 736 CURVE SMOOTH",
"203.729 736 OFFCURVE",
"174 765.808 OFFCURVE",
"174 804 CURVE SMOOTH"
);
},
{
closed = 1;
nodes = (
"352 842.66 OFFCURVE",
"381.041 873 OFFCURVE",
"420 873 CURVE SMOOTH",
"459.124 873 OFFCURVE",
"487 842.443 OFFCURVE",
"487 804 CURVE SMOOTH {name = mh03;}",
"487 765.381 OFFCURVE",
"458.923 736 OFFCURVE",
"420 736 CURVE SMOOTH {name = mv02;}",
"381.209 736 OFFCURVE",
"352 765.209 OFFCURVE",
"352 804 CURVE SMOOTH {name = hr01;}"
);
}
);
width = 655;
}
);
leftKerningGroup = O;
rightKerningGroup = O;
unicode = 00D6;
userData = {
com.typemytype.robofont.mark = (
0.713,
0.6,
1,
1
);
};
},
{
glyphname = Ograve;
lastChange = "2018-07-24 15:11:20 +0000";
layers = (
{
layerId = "1178ECA0-A987-4969-BD6E-681EE9C1B9C8";
paths = (
{
closed = 1;
nodes = (
"212 818 LINE",
"248 890 LINE",
"279 897 LINE {name = ah03;}",
"447 764 LINE",
"415 717 LINE {name = hr00;}"
);
},
{
closed = 1;
nodes = (
"132.916 -4 OFFCURVE",
"50 176.165 OFFCURVE",
"50 343 CURVE SMOOTH",
"50 509.141 OFFCURVE",
"133.425 691 OFFCURVE",
"323 691 CURVE SMOOTH {name = ah01;}",
"512.668 691 OFFCURVE",
"595 508.925 OFFCURVE",
"595 343 CURVE SMOOTH",
"595 176.381 OFFCURVE",
"513.174 -4 OFFCURVE",
"323 -4 CURVE SMOOTH"
);
},
{
closed = 1;
nodes = (
"121 213.252 OFFCURVE",
"171.36 64 OFFCURVE",
"323 64 CURVE SMOOTH",
"473.919 64 OFFCURVE",
"524 214.071 OFFCURVE",
"524 341 CURVE SMOOTH",
"524 467.092 OFFCURVE",
"474.083 623 OFFCURVE",
"323 623 CURVE SMOOTH {name = ah02;}",
"171.185 623 OFFCURVE",
"121 467.915 OFFCURVE",
"121 341 CURVE SMOOTH"
);
}
);
width = 645;
},
{
layerId = "753CA70B-25C4-47AF-A15F-390B5E4CCE16";
paths = (
{
closed = 1;
nodes = (
"123.698 -4 OFFCURVE",
"36 160.889 OFFCURVE",
"36 345 CURVE SMOOTH",
"36 529.995 OFFCURVE",
"123.1 693 OFFCURVE",
"328 693 CURVE SMOOTH {name = mh01;}",
"532.919 693 OFFCURVE",
"619 529.715 OFFCURVE",
"619 345 CURVE SMOOTH",
"619 161.164 OFFCURVE",
"532.318 -4 OFFCURVE",
"328 -4 CURVE SMOOTH {name = hr00;}"
);
},
{
closed = 1;
nodes = (
"173 249.148 OFFCURVE",
"210.068 101 OFFCURVE",
"328 101 CURVE SMOOTH",
"444.905 101 OFFCURVE",
"482 250.206 OFFCURVE",
"482 343 CURVE SMOOTH",
"482 435.518 OFFCURVE",
"445.226 588 OFFCURVE",
"328 588 CURVE SMOOTH",
"209.791 588 OFFCURVE",
"173 436.585 OFFCURVE",
"173 343 CURVE SMOOTH"
);
},
{
closed = 1;
nodes = (
"205 868 LINE",
"282 959 LINE",
"317 942 LINE",
"429 765 LINE",
"388 724 LINE"
);
}
);
width = 655;
}
);
leftKerningGroup = O;
rightKerningGroup = O;
unicode = 00D2;
userData = {
com.typemytype.robofont.mark = (
0.713,
0.6,
1,
1
);
};
},
{
glyphname = Oslash;
lastChange = "2018-07-24 15:11:20 +0000";
layers = (
{
layerId = "1178ECA0-A987-4969-BD6E-681EE9C1B9C8";
paths = (
{
closed = 1;
nodes = (
"277.512 -4 OFFCURVE",
"232.116 6.25 OFFCURVE",
"193 30 CURVE",
"158 -42 LINE",
"94 -42 LINE",
"91 -29 LINE",
"141 73 LINE",
"75.691 143.867 OFFCURVE",
"50 248.645 OFFCURVE",
"50 343 CURVE SMOOTH",
"50 509.096 OFFCURVE",
"133.397 691 OFFCURVE",
"323 691 CURVE SMOOTH {name = mh01;}",
"361.16 691 OFFCURVE",
"398.777 683.11 OFFCURVE",
"433 666 CURVE",
"472 745 LINE",
"539 745 LINE",
"538 731 LINE",
"488 629 LINE",
"564.939 557.661 OFFCURVE",
"595 445.149 OFFCURVE",
"595 343 CURVE SMOOTH",
"595 176.436 OFFCURVE",
"513.205 -4 OFFCURVE",
"323 -4 CURVE SMOOTH {name = hr00;}"
);
},
{
closed = 1;
nodes = (
"473.914 64 OFFCURVE",
"524 214.064 OFFCURVE",
"524 341 CURVE SMOOTH",
"524 417.525 OFFCURVE",
"506.995 504.505 OFFCURVE",
"456 564 CURVE {name = mh02;}",
"224 92 LINE",
"252.989 71.707 OFFCURVE",
"288.041 64 OFFCURVE",
"323 64 CURVE SMOOTH"
);
},
{
closed = 1;
nodes = (
"121 272.096 OFFCURVE",
"134.562 197.75 OFFCURVE",
"174 140 CURVE",
"403 605 LINE",
"377.978 616.77 OFFCURVE",
"350.651 623 OFFCURVE",
"323 623 CURVE SMOOTH {name = mh03;}",
"171.19 623 OFFCURVE",
"121 467.92 OFFCURVE",
"121 341 CURVE SMOOTH"
);
}
);
width = 645;
},
{
layerId = "753CA70B-25C4-47AF-A15F-390B5E4CCE16";
paths = (
{
closed = 1;
nodes = (
"296.192 -4 OFFCURVE",
"264.349 0.345 OFFCURVE",
"234 10 CURVE",
"201 -63 LINE",
"76 -63 LINE",
"72 -40 LINE",
"125 77 LINE",
"56.917 148.108 OFFCURVE",
"36 249.49 OFFCURVE",
"36 345 CURVE SMOOTH {name = mh01;}",
"36 529.995 OFFCURVE",
"123.1 693 OFFCURVE",
"328 693 CURVE SMOOTH {name = ah01;}",
"353.238 693 OFFCURVE",
"378.531 690.289 OFFCURVE",
"403 684 CURVE",
"436 757 LINE",
"563 757 LINE",
"563 733 LINE",
"515 627 LINE",
"593.162 556.501 OFFCURVE",
"619 446.57 OFFCURVE",
"619 345 CURVE SMOOTH",
"619 160.989 OFFCURVE",
"532.174 -4 OFFCURVE",
"328 -4 CURVE SMOOTH {name = hr00;}"
);
},
{
closed = 1;
nodes = (
"482 393.839 OFFCURVE",
"474.395 445.515 OFFCURVE",
"453 492 CURVE {name = mh03;}",
"280 111 LINE",
"294.948 103.885 OFFCURVE",
"311.525 101 OFFCURVE",
"328 101 CURVE SMOOTH",
"444.855 101 OFFCURVE",
"482 250.133 OFFCURVE",
"482 343 CURVE SMOOTH {name = mh02;}"
);
},
{
closed = 1;
nodes = (
"173 301.782 OFFCURVE",
"177.928 260.221 OFFCURVE",
"191 221 CURVE",
"357 584 LINE",
"347.622 586.876 OFFCURVE",
"337.786 588 OFFCURVE",
"328 588 CURVE SMOOTH {name = ah02;}",
"209.827 588 OFFCURVE",
"173 436.688 OFFCURVE",
"173 343 CURVE SMOOTH {name = ah03;}"
);
}
);
width = 655;
}
);
leftKerningGroup = O;
rightKerningGroup = O;
unicode = 00D8;
userData = {
com.typemytype.robofont.mark = (
0.713,
0.6,
1,
1
);
};
},
{
glyphname = Otilde;
lastChange = "2018-07-24 15:11:20 +0000";
layers = (
{
layerId = "1178ECA0-A987-4969-BD6E-681EE9C1B9C8";
paths = (
{
closed = 1;
nodes = (
"499 770 LINE",
"478.167 751.774 OFFCURVE",
"443.631 727 OFFCURVE",
"415 727 CURVE SMOOTH {name = mh01;}",
"360.425 727 OFFCURVE",
"329.91 778 OFFCURVE",
"276 778 CURVE SMOOTH {name = mh02;}",
"237.908 778 OFFCURVE",
"219.993 760.078 OFFCURVE",
"201 729 CURVE",
"164 760 LINE",
"164 776 LINE",
"186.313 820.437 OFFCURVE",
"229.549 842 OFFCURVE",
"278 842 CURVE SMOOTH {name = mh03;}",
"327.799 842 OFFCURVE",
"360.993 812.817 OFFCURVE",
"400 786 CURVE {name = mh04;}",
"462 836 LINE {name = hr00;}"
);
},
{
closed = 1;
nodes = (
"132.916 -4 OFFCURVE",
"50 176.165 OFFCURVE",
"50 343 CURVE SMOOTH",
"50 509.141 OFFCURVE",
"133.425 691 OFFCURVE",
"323 691 CURVE SMOOTH {name = mh05;}",
"512.668 691 OFFCURVE",
"595 508.925 OFFCURVE",
"595 343 CURVE SMOOTH",
"595 176.381 OFFCURVE",
"513.174 -4 OFFCURVE",
"323 -4 CURVE SMOOTH"
);
},
{
closed = 1;
nodes = (
"121 213.252 OFFCURVE",
"171.36 64 OFFCURVE",
"323 64 CURVE SMOOTH",
"473.919 64 OFFCURVE",
"524 214.071 OFFCURVE",
"524 341 CURVE SMOOTH",
"524 467.092 OFFCURVE",
"474.083 623 OFFCURVE",
"323 623 CURVE SMOOTH {name = mh06;}",
"171.185 623 OFFCURVE",
"121 467.915 OFFCURVE",
"121 341 CURVE SMOOTH"
);
}
);
width = 645;
},
{
layerId = "753CA70B-25C4-47AF-A15F-390B5E4CCE16";
paths = (
{
closed = 1;
nodes = (
"524 805 LINE",
"496.838 766.198 OFFCURVE",
"450.607 727 OFFCURVE",
"401 727 CURVE SMOOTH",
"345.099 727 OFFCURVE",
"315.475 772 OFFCURVE",
"263 772 CURVE SMOOTH",
"228.372 772 OFFCURVE",
"205.518 749.253 OFFCURVE",
"194 718 CURVE {name = hr01;}",
"121 762 LINE",
"121 781 LINE SMOOTH",
"121 784.93 OFFCURVE",
"132.513 805.03 OFFCURVE",
"135 809 CURVE SMOOTH",
"160.144 849.13 OFFCURVE",
"204.965 873 OFFCURVE",
"252 873 CURVE SMOOTH",
"315.015 873 OFFCURVE",
"374.997 823.128 OFFCURVE",
"390 823 CURVE",
"443 881 LINE {name = hr02;}"
);
},
{
closed = 1;
nodes = (
"123.698 -4 OFFCURVE",
"36 160.889 OFFCURVE",
"36 345 CURVE SMOOTH",
"36 529.995 OFFCURVE",
"123.1 693 OFFCURVE",
"328 693 CURVE SMOOTH {name = ah01;}",
"532.919 693 OFFCURVE",
"619 529.715 OFFCURVE",
"619 345 CURVE SMOOTH",
"619 161.164 OFFCURVE",
"532.318 -4 OFFCURVE",
"328 -4 CURVE SMOOTH {name = ab01;}"
);
},
{
closed = 1;
nodes = (
"173 249.148 OFFCURVE",
"210.068 101 OFFCURVE",
"328 101 CURVE SMOOTH {name = av01;}",
"444.905 101 OFFCURVE",
"482 250.206 OFFCURVE",
"482 343 CURVE SMOOTH",
"482 435.518 OFFCURVE",
"445.226 588 OFFCURVE",
"328 588 CURVE SMOOTH {name = ah02;}",
"209.791 588 OFFCURVE",
"173 436.585 OFFCURVE",
"173 343 CURVE SMOOTH"
);
}
);
width = 655;
}
);
leftKerningGroup = O;
rightKerningGroup = O;
unicode = 00D5;
userData = {
com.typemytype.robofont.mark = (
0.713,
0.6,
1,
1
);
};
},
{
glyphname = OE;
lastChange = "2018-07-24 15:11:20 +0000";
layers = (
{
layerId = "1178ECA0-A987-4969-BD6E-681EE9C1B9C8";
paths = (
{
closed = 1;
nodes = (
"139.806 -4 OFFCURVE",
"48 171.84 OFFCURVE",
"48 343 CURVE SMOOTH",
"48 464.062 OFFCURVE",
"96.817 596.943 OFFCURVE",
"203.5 663 CURVE SMOOTH",
"245.591 689.063 OFFCURVE",
"286.405 695 OFFCURVE",
"335 695 CURVE SMOOTH",
"355.733 695 OFFCURVE",
"376.642 691 OFFCURVE",
"397 691 CURVE SMOOTH",
"788 691 LINE",
"808 520 LINE",
"760 520 LINE",
"726 623 LINE",
"516 623 LINE",
"516 377 LINE",
"688 377 LINE",
"688 314 LINE",
"516 314 LINE",
"516 68 LINE",
"736 68 LINE",
"771 171 LINE",
"818 171 LINE",
"799 0 LINE",
"387 0 LINE SMOOTH",
"368.672 0 OFFCURVE",
"349.761 -4 OFFCURVE",
"331 -4 CURVE SMOOTH {name = hr00;}"
);
},
{
closed = 1;
nodes = (
"192.616 624 OFFCURVE",
"119 465.798 OFFCURVE",
"119 341 CURVE SMOOTH",
"119 210.798 OFFCURVE",
"180.532 64 OFFCURVE",
"331 64 CURVE SMOOTH",
"373.256 64 OFFCURVE",
"414.997 72.768 OFFCURVE",
"447 102 CURVE",
"447 591 LINE",
"414.156 619.585 OFFCURVE",
"378.023 624 OFFCURVE",
"336 624 CURVE SMOOTH"
);
}
);
width = 858;
},
{
layerId = "753CA70B-25C4-47AF-A15F-390B5E4CCE16";
paths = (
{
closed = 1;
nodes = (
"840 487 LINE",
"762 487 LINE {name = hr04;}",
"721 586 LINE",
"559 586 LINE",
"559 408 LINE",
"711 408 LINE",
"711 303 LINE",
"559 303 LINE",
"559 105 LINE",
"728 105 LINE {name = hr03;}",
"765 204 LINE",
"844 204 LINE {name = hr02;}",
"823 0 LINE",
"658.017 0 OFFCURVE",
"492.953 -1 OFFCURVE",
"328 -1 CURVE SMOOTH",
"123.919 -1 OFFCURVE",
"36 160.127 OFFCURVE",
"36 345 CURVE SMOOTH",
"36 513.069 OFFCURVE",
"129.451 691 OFFCURVE",
"318 691 CURVE SMOOTH {name = mv01;}",
"821 691 LINE {name = hr00;}"
);
},
{
closed = 1;
nodes = (
"372.292 104 OFFCURVE",
"409.199 113.131 OFFCURVE",
"428 129 CURVE",
"428 562 LINE",
"408.976 580.829 OFFCURVE",
"373.531 586 OFFCURVE",
"348 586 CURVE SMOOTH",
"215.577 586 OFFCURVE",
"173 453.671 OFFCURVE",
"173 343 CURVE SMOOTH",
"173 227.78 OFFCURVE",
"210.912 104 OFFCURVE",
"348 104 CURVE SMOOTH"
);
}
);
width = 879;
}
);
leftKerningGroup = O;
rightKerningGroup = E;
unicode = 0152;
userData = {
com.typemytype.robofont.mark = (
0.713,
0.6,
1,
1
);
};
},
{
glyphname = P;
lastChange = "2018-07-24 15:11:20 +0000";
layers = (
{
layerId = "1178ECA0-A987-4969-BD6E-681EE9C1B9C8";
paths = (
{
closed = 1;
nodes = (
"338.612 332 OFFCURVE",
"423 360.682 OFFCURVE",
"423 480 CURVE SMOOTH",
"423 584.716 OFFCURVE",
"337.424 623 OFFCURVE",
"245 623 CURVE SMOOTH",
"181 623 LINE",
"181 332 LINE",
"235 332 LINE SMOOTH {name = hr00;}"
);
},
{
closed = 1;
nodes = (
"112 68 LINE",
"112 627 LINE",
"55 632 LINE",
"55 691 LINE",
"219 691 LINE SMOOTH {name = mh01;}",
"356.134 691 OFFCURVE",
"494 641.779 OFFCURVE",
"494 481 CURVE SMOOTH",
"494 375.812 OFFCURVE",
"433.885 303.604 OFFCURVE",
"333.5 276.5 CURVE SMOOTH",
"282.569 262.749 OFFCURVE",
"233.438 264 OFFCURVE",
"181 264 CURVE",
"181 70 LINE",
"321 51 LINE",
"321 0 LINE",
"62 0 LINE",
"55 55 LINE"
);
}
);
width = 520;
},
{
layerId = "753CA70B-25C4-47AF-A15F-390B5E4CCE16";
paths = (
{
closed = 1;
nodes = (
"339.679 326.992 OFFCURVE",
"434 338.976 OFFCURVE",
"434 463 CURVE SMOOTH {name = mh03;}",
"434 551.621 OFFCURVE",
"374.028 585 OFFCURVE",
"293 585 CURVE SMOOTH {name = mh05;}",
"238 585 LINE {name = mh06;}",
"238 327 LINE {name = hr00;}"
);
},
{
closed = 1;
nodes = (
"107 100 LINE",
"107 592 LINE {name = mh07;}",
"39 599 LINE {name = mh08;}",
"39 690 LINE {name = mh09;}",
"289 690 LINE SMOOTH {name = mh10;}",
"440.142 690 OFFCURVE",
"571 630.748 OFFCURVE",
"571 460 CURVE SMOOTH {name = mh13;}",
"571 349.696 OFFCURVE",
"515.778 272.533 OFFCURVE",
"410.5 239 CURVE SMOOTH",
"354.078 221.029 OFFCURVE",
"296.55 222 OFFCURVE",
"238 222 CURVE {name = mh16;}",
"238 114 LINE SMOOTH {name = mh17;}",
"238 110.161 OFFCURVE",
"238.667 106.236 OFFCURVE",
"242.5 104.5 CURVE SMOOTH",
"248.414 101.822 OFFCURVE",
"370.966 86.167 OFFCURVE",
"390 83 CURVE",
"384 0 LINE",
"51 0 LINE {name = mh18;}",
"37 86 LINE"
);
}
);
width = 585;
}
);
leftKerningGroup = H;
unicode = 0050;
userData = {
com.typemytype.robofont.mark = (
0.713,
0.6,
1,
1
);
};
},
{
glyphname = Thorn;
lastChange = "2018-07-24 15:11:20 +0000";
layers = (
{
layerId = "1178ECA0-A987-4969-BD6E-681EE9C1B9C8";
paths = (
{
closed = 1;
nodes = (
"112 627 LINE {name = mv01;}",
"55 631 LINE {name = mv02;}",
"55 691 LINE {name = at01;}",
"232 691 LINE {name = mv03;}",
"236 635 LINE",
"181 627 LINE {name = mv04;}",
"181 561 LINE {name = mh01;}",
"316.081 561 OFFCURVE",
"475 545.315 OFFCURVE",
"475 371 CURVE SMOOTH {name = av01;}",
"475 196.827 OFFCURVE",
"317.512 175 OFFCURVE",
"181 175 CURVE",
"181 64 LINE",
"291 51 LINE",
"291 0 LINE",
"63 0 LINE",
"58 56 LINE",
"112 64 LINE {name = hr00;}"
);
},
{
closed = 1;
nodes = (
"304.426 244 OFFCURVE",
"402 261.619 OFFCURVE",
"402 370 CURVE SMOOTH {name = hr01;}",
"402 478.813 OFFCURVE",
"304.69 492 OFFCURVE",
"218 492 CURVE SMOOTH",
"181 492 LINE",
"181 244 LINE",
"217 244 LINE SMOOTH"
);
}
);
width = 500;
},
{
layerId = "753CA70B-25C4-47AF-A15F-390B5E4CCE16";
paths = (
{
closed = 1;
nodes = (
"108 102 LINE",
"108 593 LINE",
"40 600 LINE",
"40 691 LINE",
"301 691 LINE",
"315 598 LINE",
"240 586 LINE",
"240 558 LINE",
"252.012 558.002 OFFCURVE",
"263.99 559 OFFCURVE",
"276 559 CURVE SMOOTH",
"410.037 559 OFFCURVE",
"545 507.756 OFFCURVE",
"545 352 CURVE SMOOTH {name = hr01;}",
"545 183.05 OFFCURVE",
"381.634 134.058 OFFCURVE",
"240 147 CURVE",
"240 99 LINE",
"354 87 LINE",
"354 0 LINE",
"40 0 LINE",
"40 89 LINE {name = hr00;}"
);
},
{
closed = 1;
nodes = (
"409 444.164 OFFCURVE",
"310.753 451.643 OFFCURVE",
"240 453 CURVE",
"240 251 LINE",
"311.833 250.996 OFFCURVE",
"409 258.835 OFFCURVE",
"409 352 CURVE SMOOTH"
);
}
);
width = 556;
}
);
leftKerningGroup = I;
unicode = 00DE;
userData = {
com.typemytype.robofont.mark = (
0.713,
0.6,
1,
1
);
};
},
{
glyphname = Q;
lastChange = "2018-07-24 15:11:20 +0000";
layers = (
{
layerId = "1178ECA0-A987-4969-BD6E-681EE9C1B9C8";
paths = (
{
closed = 1;
nodes = (
"496 -102 LINE",
"501 -130 LINE",
"417 -191 LINE",
"363.221 -147.715 OFFCURVE",
"310.78 -102.771 OFFCURVE",
"260 -56 CURVE",
"283 -29 LINE {name = hr00;}"
);
},
{
closed = 1;
nodes = (
"134.364 -4 OFFCURVE",
"50 175.142 OFFCURVE",
"50 343 CURVE SMOOTH",
"50 510.161 OFFCURVE",
"134.874 691 OFFCURVE",
"325 691 CURVE SMOOTH {name = mh01;}",
"514.237 691 OFFCURVE",
"600 509.568 OFFCURVE",
"600 343 CURVE SMOOTH",
"600 175.736 OFFCURVE",
"514.743 -4 OFFCURVE",
"325 -4 CURVE SMOOTH"
);
},
{
closed = 1;
nodes = (
"123 213.252 OFFCURVE",
"173.36 64 OFFCURVE",
"325 64 CURVE SMOOTH",
"475.919 64 OFFCURVE",
"526 214.071 OFFCURVE",
"526 341 CURVE SMOOTH",
"526 467.063 OFFCURVE",
"476.208 624 OFFCURVE",
"325 624 CURVE SMOOTH",
"173.057 624 OFFCURVE",
"123 467.887 OFFCURVE",
"123 341 CURVE SMOOTH"
);
}
);
width = 649;
},
{
layerId = "753CA70B-25C4-47AF-A15F-390B5E4CCE16";
paths = (
{
closed = 1;
nodes = (
"522 -91 LINE",
"529 -129 LINE",
"435 -227 LINE",
"259 -72 LINE",
"314 -15 LINE {name = hr00;}"
);
},
{
closed = 1;
nodes = (
"123.698 -4 OFFCURVE",
"36 160.889 OFFCURVE",
"36 345 CURVE SMOOTH",
"36 529.995 OFFCURVE",
"123.1 693 OFFCURVE",
"328 693 CURVE SMOOTH {name = mh01;}",
"532.919 693 OFFCURVE",
"619 529.715 OFFCURVE",
"619 345 CURVE SMOOTH",
"619 161.164 OFFCURVE",
"532.318 -4 OFFCURVE",
"328 -4 CURVE SMOOTH"
);
},
{
closed = 1;
nodes = (
"173 249.148 OFFCURVE",
"210.068 101 OFFCURVE",
"328 101 CURVE SMOOTH",
"444.905 101 OFFCURVE",
"482 250.206 OFFCURVE",
"482 343 CURVE SMOOTH",
"482 435.518 OFFCURVE",
"445.226 588 OFFCURVE",
"328 588 CURVE SMOOTH",
"209.791 588 OFFCURVE",
"173 436.585 OFFCURVE",
"173 343 CURVE SMOOTH"
);
}
);
width = 655;
}
);
leftKerningGroup = O;
rightKerningGroup = O;
unicode = 0051;
userData = {
com.typemytype.robofont.mark = (
0.713,
0.6,
1,
1
);
};
},
{
glyphname = R;
lastChange = "2018-07-24 15:11:20 +0000";
layers = (
{
layerId = "1178ECA0-A987-4969-BD6E-681EE9C1B9C8";
paths = (
{
closed = 1;
nodes = (
"112 68 LINE",
"112 627 LINE",
"55 632 LINE",
"55 691 LINE",
"229 691 LINE SMOOTH {name = mh01;}",
"366.078 691 OFFCURVE",
"494 637.572 OFFCURVE",
"494 481 CURVE SMOOTH {name = mh02;}",
"494 381.951 OFFCURVE",
"436.477 311.208 OFFCURVE",
"343 282 CURVE",
"445 65 LINE",
"510 51 LINE",
"510 0 LINE",
"392 0 LINE",
"272 266 LINE",
"241.74 263.249 OFFCURVE",
"211.349 264 OFFCURVE",
"181 264 CURVE",
"181 70 LINE",
"259 51 LINE",
"259 0 LINE",
"62 0 LINE",
"55 55 LINE {name = hr00;}"
);
},
{
closed = 1;
nodes = (
"335.821 332 OFFCURVE",
"423 364.105 OFFCURVE",
"423 480 CURVE SMOOTH {name = mh04;}",
"423 582.322 OFFCURVE",
"348.333 623 OFFCURVE",
"255 623 CURVE SMOOTH",
"181 623 LINE",
"181 332 LINE",
"235 332 LINE SMOOTH {name = mh03;}"
);
}
);
width = 544;
},
{
layerId = "753CA70B-25C4-47AF-A15F-390B5E4CCE16";
paths = (
{
closed = 1;
nodes = (
"107 99 LINE",
"107 592 LINE",
"39 599 LINE",
"39 690 LINE",
"284 690 LINE SMOOTH",
"429.99 690 OFFCURVE",
"572 633.707 OFFCURVE",
"572 465 CURVE SMOOTH",
"572 367.521 OFFCURVE",
"522.237 300.489 OFFCURVE",
"433 264 CURVE",
"521 97 LINE",
"584 87 LINE",
"584 0 LINE",
"415 0 LINE",
"311 234 LINE",
"286.727 231.92 OFFCURVE",
"262.36 230.999 OFFCURVE",
"238 231 CURVE",
"238 95 LINE",
"290 87 LINE",
"290 0 LINE",
"47 0 LINE",
"38 85 LINE {name = hr00;}"
);
},
{
closed = 1;
nodes = (
"248.825 335.229 OFFCURVE",
"260.085 336 OFFCURVE",
"271 336 CURVE SMOOTH",
"352.364 336 OFFCURVE",
"437 366.633 OFFCURVE",
"437 462 CURVE SMOOTH",
"437 576.491 OFFCURVE",
"326.719 584.003 OFFCURVE",
"238 584 CURVE",
"238 337 LINE"
);
}
);
width = 612;
}
);
leftKerningGroup = H;
unicode = 0052;
userData = {
com.typemytype.robofont.mark = (
0.713,
0.6,
1,
1
);
};
},
{
glyphname = S;
lastChange = "2018-07-24 15:11:20 +0000";
layers = (
{
layerId = "1178ECA0-A987-4969-BD6E-681EE9C1B9C8";
paths = (
{
closed = 1;
nodes = (
"139 84 LINE",
"165.907 71.265 OFFCURVE",
"203.281 64 OFFCURVE",
"233 64 CURVE SMOOTH",
"303.82 64 OFFCURVE",
"375 102.25 OFFCURVE",
"375 181 CURVE SMOOTH",
"375 363.141 OFFCURVE",
"54 307.459 OFFCURVE",
"54 520 CURVE SMOOTH {name = mh02;}",
"54 630.836 OFFCURVE",
"156.123 691 OFFCURVE",
"257 691 CURVE SMOOTH {name = mh03;}",
"310.434 691 OFFCURVE",
"361.306 677.803 OFFCURVE",
"411 659 CURVE",
"424 505 LINE",
"369 505 LINE",
"327 611 LINE",
"302.097 621.49 OFFCURVE",
"275.788 624 OFFCURVE",
"249 624 CURVE SMOOTH",
"191.709 624 OFFCURVE",
"125 593.73 OFFCURVE",
"125 528 CURVE SMOOTH",
"125 368.083 OFFCURVE",
"446 415.406 OFFCURVE",
"446 189 CURVE SMOOTH {name = mh04;}",
"446 67.858 OFFCURVE",
"347.698 -4 OFFCURVE",
"233 -4 CURVE SMOOTH",
"175.967 -4 OFFCURVE",
"116.908 4.412 OFFCURVE",
"65 29 CURVE",
"54 183 LINE",
"112 183 LINE {name = hr00;}"
);
}
);
width = 491;
},
{
layerId = "753CA70B-25C4-47AF-A15F-390B5E4CCE16";
paths = (
{
closed = 1;
nodes = (
"352 312.095 OFFCURVE",
"44 280.247 OFFCURVE",
"44 504 CURVE SMOOTH {name = mh03;}",
"44 631.519 OFFCURVE",
"165.072 692 OFFCURVE",
"278 692 CURVE SMOOTH {name = mh06;}",
"341.891 692 OFFCURVE",
"406.525 682.337 OFFCURVE",
"468 665 CURVE",
"483 475 LINE",
"399 475 LINE {name = mh07;}",
"350 581 LINE",
"327.55 584.447 OFFCURVE",
"304.735 587 OFFCURVE",
"282 587 CURVE SMOOTH",
"233.089 587 OFFCURVE",
"180 569.337 OFFCURVE",
"180 511 CURVE SMOOTH {name = mh08;}",
"180 401.568 OFFCURVE",
"489 410.649 OFFCURVE",
"489 201 CURVE SMOOTH",
"489 57.25 OFFCURVE",
"368.893 -4 OFFCURVE",
"240 -4 CURVE SMOOTH",
"169.349 -4 OFFCURVE",
"101.217 14.915 OFFCURVE",
"36 41 CURVE {name = mh12;}",
"56 234 LINE",
"140 227 LINE",
"148 116 LINE",
"177.275 109.235 OFFCURVE",
"203.538 101 OFFCURVE",
"234 101 CURVE SMOOTH",
"286.777 101 OFFCURVE",
"352 118.568 OFFCURVE",
"352 183 CURVE SMOOTH {name = hr00;}"
);
}
);
width = 528;
}
);
unicode = 0053;
userData = {
com.typemytype.robofont.mark = (
0.713,
0.6,
1,
1
);
};
},
{
glyphname = T;
lastChange = "2018-07-24 15:11:20 +0000";
layers = (
{
layerId = "1178ECA0-A987-4969-BD6E-681EE9C1B9C8";
paths = (
{
closed = 1;
nodes = (
"127 52 LINE",
"240 70 LINE",
"240 623 LINE",
"103 623 LINE",
"64 526 LINE {name = hr01;}",
"18 526 LINE",
"41 691 LINE {name = mh01;}",
"506 691 LINE",
"529 526 LINE",
"483 526 LINE",
"444 623 LINE {name = hr02;}",
"308 623 LINE",
"308 70 LINE",
"423 52 LINE",
"423 0 LINE",
"127 0 LINE {name = hr00;}"
);
}
);
width = 547;
},
{
layerId = "753CA70B-25C4-47AF-A15F-390B5E4CCE16";
paths = (
{
closed = 1;
nodes = (
"243 102 LINE",
"243 585 LINE {name = mh01;}",
"130 585 LINE {name = hr02;}",
"87 485 LINE",
"10 485 LINE {name = hr01;}",
"29 690 LINE {name = mv01;}",
"584 690 LINE",
"606 486 LINE",
"530 486 LINE",
"486 585 LINE",
"372 585 LINE {name = mh02;}",
"372 102 LINE",
"488 80 LINE",
"478 0 LINE",
"138 0 LINE",
"128 80 LINE {name = hr00;}"
);
}
);
width = 615;
}
);
unicode = 0054;
userData = {
com.typemytype.robofont.mark = (
0.713,
0.6,
1,
1
);
};
},
{
glyphname = U;
lastChange = "2018-07-24 15:11:20 +0000";
layers = (
{
layerId = "1178ECA0-A987-4969-BD6E-681EE9C1B9C8";
paths = (
{
closed = 1;
nodes = (
"417 691 LINE",
"587 691 LINE",
"591 635 LINE",
"536 627 LINE",
"536 202 LINE SMOOTH",
"536 72.047 OFFCURVE",
"437.327 -4 OFFCURVE",
"313 -4 CURVE SMOOTH",
"189.082 -4 OFFCURVE",
"96 74.492 OFFCURVE",
"96 202 CURVE SMOOTH",
"96 627 LINE",
"38 631 LINE",
"38 691 LINE {name = mh01;}",
"215 691 LINE",
"219 635 LINE",
"164 627 LINE",
"164 213 LINE SMOOTH",
"164 115.386 OFFCURVE",
"223.134 63 OFFCURVE",
"319 63 CURVE SMOOTH",
"414.845 63 OFFCURVE",
"474 115.325 OFFCURVE",
"474 213 CURVE SMOOTH",
"474 627 LINE",
"417 631 LINE {name = hr00;}"
);
}
);
width = 628;
},
{
layerId = "753CA70B-25C4-47AF-A15F-390B5E4CCE16";
paths = (
{
closed = 1;
nodes = (
"219 153.396 OFFCURVE",
"250.648 101 OFFCURVE",
"353 101 CURVE SMOOTH",
"448.748 101 OFFCURVE",
"479 165.318 OFFCURVE",
"479 251 CURVE SMOOTH",
"479 593 LINE {name = mh01;}",
"415 602 LINE",
"415 690 LINE {name = mv01;}",
"643 690 LINE {name = mh02;}",
"643 599 LINE {name = hr02;}",
"584 586 LINE {name = mh03;}",
"584 248 LINE SMOOTH",
"584 98.488 OFFCURVE",
"509.85 -4 OFFCURVE",
"353 -4 CURVE SMOOTH",
"177.079 -4 OFFCURVE",
"88 66.255 OFFCURVE",
"88 248 CURVE SMOOTH {name = hr01;}",
"88 592 LINE {name = mh05;}",
"21 601 LINE",
"21 690 LINE {name = mh06;}",
"290 690 LINE",
"290 602 LINE",
"219 591 LINE {name = mh07;}",
"219 250 LINE SMOOTH {name = hr00;}"
);
}
);
width = 670;
}
);
leftKerningGroup = U;
rightKerningGroup = U;
unicode = 0055;
userData = {
com.typemytype.robofont.mark = (
0.713,
0.6,
1,
1
);
};
},
{
glyphname = Uacute;
lastChange = "2018-07-24 15:11:20 +0000";
layers = (
{
layerId = "1178ECA0-A987-4969-BD6E-681EE9C1B9C8";
paths = (
{
closed = 1;
nodes = (
"377 897 LINE {name = ah02;}",
"407 890 LINE",
"444 818 LINE",
"251 717 LINE",
"219 764 LINE {name = hr00;}"
);
},
{
closed = 1;
nodes = (
"417 691 LINE",
"587 691 LINE",
"591 635 LINE",
"536 627 LINE",
"536 202 LINE SMOOTH",
"536 72.047 OFFCURVE",
"437.327 -4 OFFCURVE",
"313 -4 CURVE SMOOTH",
"189.082 -4 OFFCURVE",
"96 74.492 OFFCURVE",
"96 202 CURVE SMOOTH",
"96 627 LINE",
"38 631 LINE",
"38 691 LINE {name = ah01;}",
"215 691 LINE",
"219 635 LINE",
"164 627 LINE",
"164 213 LINE SMOOTH",
"164 115.386 OFFCURVE",
"223.134 63 OFFCURVE",
"319 63 CURVE SMOOTH",
"414.845 63 OFFCURVE",
"474 115.325 OFFCURVE",
"474 213 CURVE SMOOTH",
"474 627 LINE",
"417 631 LINE"
);
}
);
width = 628;
},
{
layerId = "753CA70B-25C4-47AF-A15F-390B5E4CCE16";
paths = (
{
closed = 1;
nodes = (
"219 153.396 OFFCURVE",
"250.648 101 OFFCURVE",
"353 101 CURVE SMOOTH",
"448.748 101 OFFCURVE",
"479 165.318 OFFCURVE",
"479 251 CURVE SMOOTH",
"479 594 LINE",
"415 603 LINE",
"415 691 LINE",
"643 691 LINE",
"643 600 LINE {name = hr02;}",
"584 587 LINE",
"584 248 LINE SMOOTH",
"584 98.488 OFFCURVE",
"509.85 -4 OFFCURVE",
"353 -4 CURVE SMOOTH",
"177.079 -4 OFFCURVE",
"88 66.255 OFFCURVE",
"88 248 CURVE SMOOTH {name = hr01;}",
"88 593 LINE",
"21 602 LINE",
"21 691 LINE {name = mh01;}",
"290 691 LINE",
"290 603 LINE",
"219 592 LINE",
"219 250 LINE SMOOTH {name = hr00;}"
);
},
{
closed = 1;
nodes = (
"376 959 LINE",
"413 974 LINE",
"491 865 LINE",
"294 741 LINE",
"247 795 LINE"
);
}
);
width = 670;
}
);
leftKerningGroup = U;
rightKerningGroup = U;
unicode = 00DA;
userData = {
com.typemytype.robofont.mark = (
0.713,
0.6,
1,
1
);
};
},
{
glyphname = Ucircumflex;
lastChange = "2018-07-24 15:11:20 +0000";
layers = (
{
layerId = "1178ECA0-A987-4969-BD6E-681EE9C1B9C8";
paths = (
{
closed = 1;
nodes = (
"319 884 LINE",
"460 727 LINE",
"386 727 LINE",
"310 790 LINE",
"235 727 LINE",
"161 727 LINE",
"303 884 LINE {name = hr00;}"
);
},
{
closed = 1;
nodes = (
"417 691 LINE",
"587 691 LINE",
"591 635 LINE",
"536 627 LINE",
"536 202 LINE SMOOTH",
"536 72.047 OFFCURVE",
"437.327 -4 OFFCURVE",
"313 -4 CURVE SMOOTH",
"189.082 -4 OFFCURVE",
"96 74.492 OFFCURVE",
"96 202 CURVE SMOOTH",
"96 627 LINE",
"38 631 LINE",
"38 691 LINE {name = ah01;}",
"215 691 LINE {name = ah02;}",
"219 635 LINE",
"164 627 LINE",
"164 213 LINE SMOOTH",
"164 115.386 OFFCURVE",
"223.134 63 OFFCURVE",
"319 63 CURVE SMOOTH",
"414.845 63 OFFCURVE",
"474 115.325 OFFCURVE",
"474 213 CURVE SMOOTH",
"474 627 LINE",
"417 631 LINE"
);
}
);
width = 628;
},
{
layerId = "753CA70B-25C4-47AF-A15F-390B5E4CCE16";
paths = (
{
closed = 1;
nodes = (
"322 903 LINE {name = av01;}",
"359 903 LINE",
"531 736 LINE",
"524 724 LINE",
"438 724 LINE",
"340 782 LINE",
"242 724 LINE",
"157 724 LINE",
"151 737 LINE {name = hr00;}"
);
},
{
closed = 1;
nodes = (
"219 153.396 OFFCURVE",
"250.648 101 OFFCURVE",
"353 101 CURVE SMOOTH",
"448.748 101 OFFCURVE",
"479 165.318 OFFCURVE",
"479 251 CURVE SMOOTH",
"479 594 LINE",
"415 603 LINE",
"415 691 LINE",
"643 691 LINE",
"643 600 LINE {name = hr02;}",
"584 587 LINE",
"584 248 LINE SMOOTH",
"584 98.488 OFFCURVE",
"509.85 -4 OFFCURVE",
"353 -4 CURVE SMOOTH",
"177.079 -4 OFFCURVE",
"88 66.255 OFFCURVE",
"88 248 CURVE SMOOTH {name = hr01;}",
"88 593 LINE",
"21 602 LINE",
"21 691 LINE",
"290 691 LINE",
"290 603 LINE",
"219 592 LINE",
"219 250 LINE SMOOTH"
);
}
);
width = 670;
}
);
leftKerningGroup = U;
rightKerningGroup = U;
unicode = 00DB;
userData = {
com.typemytype.robofont.mark = (
0.713,
0.6,
1,
1
);
};
},
{
glyphname = Udieresis;
lastChange = "2018-07-24 15:11:20 +0000";
layers = (
{
layerId = "1178ECA0-A987-4969-BD6E-681EE9C1B9C8";
paths = (
{
closed = 1;
nodes = (
"417 691 LINE {name = mh01;}",
"587 691 LINE",
"591 635 LINE",
"536 627 LINE",
"536 202 LINE SMOOTH",
"536 72.047 OFFCURVE",
"437.327 -4 OFFCURVE",
"313 -4 CURVE SMOOTH",
"189.082 -4 OFFCURVE",
"96 74.492 OFFCURVE",
"96 202 CURVE SMOOTH",
"96 627 LINE",
"38 631 LINE",
"38 691 LINE",
"215 691 LINE {name = mh02;}",
"219 635 LINE",
"164 627 LINE",
"164 213 LINE SMOOTH",
"164 115.386 OFFCURVE",
"223.134 63 OFFCURVE",
"319 63 CURVE SMOOTH",
"414.845 63 OFFCURVE",
"474 115.325 OFFCURVE",
"474 213 CURVE SMOOTH",
"474 627 LINE",
"417 631 LINE {name = hr00;}"
);
},
{
closed = 1;
nodes = (
"164 825.131 OFFCURVE",
"188.869 850 OFFCURVE",
"221 850 CURVE SMOOTH {name = mh03;}",
"252.429 850 OFFCURVE",
"279 824.652 OFFCURVE",
"279 793 CURVE SMOOTH",
"279 761.478 OFFCURVE",
"252.577 735 OFFCURVE",
"221 735 CURVE SMOOTH",
"188.681 735 OFFCURVE",
"164 761.024 OFFCURVE",
"164 793 CURVE SMOOTH"
);
},
{
closed = 1;
nodes = (
"340 826.229 OFFCURVE",
"367.68 850 OFFCURVE",
"400 850 CURVE SMOOTH {name = mh04;}",
"431.755 850 OFFCURVE",
"455 824.139 OFFCURVE",
"455 793 CURVE SMOOTH",
"455 762.002 OFFCURVE",
"431.899 735 OFFCURVE",
"400 735 CURVE SMOOTH",
"367.494 735 OFFCURVE",
"340 759.885 OFFCURVE",
"340 793 CURVE SMOOTH"
);
}
);
width = 628;
},
{
layerId = "753CA70B-25C4-47AF-A15F-390B5E4CCE16";
paths = (
{
closed = 1;
nodes = (
"219 153.396 OFFCURVE",
"250.648 101 OFFCURVE",
"353 101 CURVE SMOOTH",
"448.748 101 OFFCURVE",
"479 165.318 OFFCURVE",
"479 251 CURVE SMOOTH",
"479 593 LINE {name = mh01;}",
"415 602 LINE",
"415 690 LINE",
"643 690 LINE",
"643 599 LINE",
"584 586 LINE",
"584 248 LINE SMOOTH",
"584 98.488 OFFCURVE",
"509.85 -4 OFFCURVE",
"353 -4 CURVE SMOOTH {name = hr01;}",
"177.079 -4 OFFCURVE",
"88 66.255 OFFCURVE",
"88 248 CURVE SMOOTH",
"88 592 LINE {name = mh02;}",
"21 601 LINE",
"21 690 LINE {name = mh03;}",
"290 690 LINE",
"290 602 LINE",
"219 591 LINE",
"219 250 LINE SMOOTH {name = hr00;}"
);
},
{
closed = 1;
nodes = (
"193 841.995 OFFCURVE",
"222.629 873 OFFCURVE",
"261 873 CURVE SMOOTH",
"299.83 873 OFFCURVE",
"330 842.83 OFFCURVE",
"330 804 CURVE SMOOTH {name = hr02;}",
"330 765.041 OFFCURVE",
"299.66 736 OFFCURVE",
"261 736 CURVE SMOOTH {name = mv01;}",
"222.729 736 OFFCURVE",
"193 765.808 OFFCURVE",
"193 804 CURVE SMOOTH {name = mh04;}"
);
},
{
closed = 1;
nodes = (
"371 842.66 OFFCURVE",
"400.041 873 OFFCURVE",
"439 873 CURVE SMOOTH",
"478.124 873 OFFCURVE",
"506 842.443 OFFCURVE",
"506 804 CURVE SMOOTH {name = hr03;}",
"506 765.381 OFFCURVE",
"477.923 736 OFFCURVE",
"439 736 CURVE SMOOTH {name = mv02;}",
"400.209 736 OFFCURVE",
"371 765.209 OFFCURVE",
"371 804 CURVE SMOOTH {name = mh05;}"
);
}
);
width = 670;
}
);
leftKerningGroup = U;
rightKerningGroup = U;
unicode = 00DC;
userData = {
com.typemytype.robofont.mark = (
0.713,
0.6,
1,
1
);
};
},
{
glyphname = Ugrave;
lastChange = "2018-07-24 15:11:20 +0000";
layers = (
{
layerId = "1178ECA0-A987-4969-BD6E-681EE9C1B9C8";
paths = (
{
closed = 1;
nodes = (
"189 818 LINE",
"225 890 LINE",
"256 897 LINE",
"424 764 LINE",
"392 717 LINE {name = hr00;}"
);
},
{
closed = 1;
nodes = (
"417 691 LINE",
"587 691 LINE",
"591 635 LINE",
"536 627 LINE",
"536 202 LINE SMOOTH",
"536 72.047 OFFCURVE",
"437.327 -4 OFFCURVE",
"313 -4 CURVE SMOOTH",
"189.082 -4 OFFCURVE",
"96 74.492 OFFCURVE",
"96 202 CURVE SMOOTH",
"96 627 LINE",
"38 631 LINE",
"38 691 LINE {name = ah01;}",
"215 691 LINE",
"219 635 LINE",
"164 627 LINE",
"164 213 LINE SMOOTH",
"164 115.386 OFFCURVE",
"223.134 63 OFFCURVE",
"319 63 CURVE SMOOTH",
"414.845 63 OFFCURVE",
"474 115.325 OFFCURVE",
"474 213 CURVE SMOOTH",
"474 627 LINE",
"417 631 LINE"
);
}
);
width = 628;
},
{
layerId = "753CA70B-25C4-47AF-A15F-390B5E4CCE16";
paths = (
{
closed = 1;
nodes = (
"219 153.396 OFFCURVE",
"250.648 101 OFFCURVE",
"353 101 CURVE SMOOTH",
"448.748 101 OFFCURVE",
"479 165.318 OFFCURVE",
"479 251 CURVE SMOOTH",
"479 594 LINE",
"415 603 LINE",
"415 691 LINE",
"643 691 LINE",
"643 600 LINE {name = hr02;}",
"584 587 LINE {name = mh01;}",
"584 248 LINE SMOOTH",
"584 98.488 OFFCURVE",
"509.85 -4 OFFCURVE",
"353 -4 CURVE SMOOTH",
"177.079 -4 OFFCURVE",
"88 66.255 OFFCURVE",
"88 248 CURVE SMOOTH {name = hr01;}",
"88 593 LINE",
"21 602 LINE",
"21 691 LINE {name = ah01;}",
"290 691 LINE",
"290 603 LINE",
"219 592 LINE {name = mh02;}",
"219 250 LINE SMOOTH {name = hr00;}"
);
},
{
closed = 1;
nodes = (
"212 868 LINE",
"289 959 LINE",
"324 942 LINE",
"436 765 LINE",
"395 724 LINE"
);
}
);
width = 670;
}
);
leftKerningGroup = U;
rightKerningGroup = U;
unicode = 00D9;
userData = {
com.typemytype.robofont.mark = (
0.713,
0.6,
1,
1
);
};
},
{
glyphname = V;
lastChange = "2018-07-24 15:11:20 +0000";
layers = (
{
layerId = "1178ECA0-A987-4969-BD6E-681EE9C1B9C8";
paths = (
{
closed = 1;
nodes = (
"205 647 LINE",
"117 626 LINE {name = mh01;}",
"284 111 LINE {name = mh02;}",
"455 629 LINE {name = mh03;}",
"364 646 LINE",
"364 691 LINE",
"560 691 LINE",
"560 644 LINE",
"520 626 LINE",
"312 0 LINE",
"247 0 LINE",
"44 626 LINE",
"8 644 LINE",
"8 691 LINE {name = mh04;}",
"205 691 LINE {name = hr00;}"
);
}
);
width = 562;
},
{
layerId = "753CA70B-25C4-47AF-A15F-390B5E4CCE16";
paths = (
{
closed = 1;
nodes = (
"258 611 LINE",
"181 594 LINE",
"338 130 LINE",
"348.805 169.34 OFFCURVE",
"364.442 208.278 OFFCURVE",
"377.5 247 CURVE SMOOTH",
"416.402 362.359 OFFCURVE",
"457.19 477.643 OFFCURVE",
"493 594 CURVE",
"402 612 LINE",
"402 690 LINE",
"635 690 LINE",
"635 601 LINE",
"598 594 LINE",
"391 0 LINE",
"250 0 LINE",
"40 594 LINE",
"4 601 LINE",
"4 690 LINE",
"244 690 LINE {name = hr00;}"
);
}
);
width = 639;
}
);
unicode = 0056;
userData = {
com.typemytype.robofont.mark = (
0.713,
0.6,
1,
1
);
};
},
{
glyphname = W;
lastChange = "2018-07-24 15:11:20 +0000";
layers = (
{
layerId = "1178ECA0-A987-4969-BD6E-681EE9C1B9C8";
paths = (
{
closed = 1;
nodes = (
"201 647 LINE",
"123 626 LINE",
"236 88 LINE",
"391 668 LINE {name = mh01;}",
"476 668 LINE",
"628 82 LINE",
"742 629 LINE",
"664 646 LINE",
"664 691 LINE {name = mh02;}",
"846 691 LINE",
"846 644 LINE",
"806 626 LINE",
"673 0 LINE",
"582 0 LINE",
"431 576 LINE",
"281 0 LINE",
"181 0 LINE",
"52 626 LINE",
"13 644 LINE",
"13 691 LINE {name = mh03;}",
"201 691 LINE {name = hr00;}"
);
}
);
width = 856;
},
{
layerId = "753CA70B-25C4-47AF-A15F-390B5E4CCE16";
paths = (
{
closed = 1;
nodes = (
"988 602 LINE",
"910 582 LINE",
"800 0 LINE {name = mh01;}",
"632 0 LINE {name = mh02;}",
"491 506 LINE",
"355 0 LINE {name = mh03;}",
"181 0 LINE {name = mh04;}",
"71 587 LINE {name = mh05;}",
"16 600 LINE",
"16 690 LINE {name = mh06;}",
"260 690 LINE {name = hr02;}",
"277 611 LINE",
"207 601 LINE {name = mh07;}",
"289 143 LINE {name = mh08;}",
"443 677 LINE {name = mh09;}",
"585 677 LINE {name = hr01;}",
"734 129 LINE",
"812 601 LINE",
"728 614 LINE",
"739 690 LINE",
"988 690 LINE {name = hr00;}"
);
}
);
width = 985;
}
);
unicode = 0057;
userData = {
com.typemytype.robofont.mark = (
0.713,
0.6,
1,
1
);
};
},
{
glyphname = X;
lastChange = "2018-07-24 15:11:20 +0000";
layers = (
{
layerId = "1178ECA0-A987-4969-BD6E-681EE9C1B9C8";
paths = (
{
closed = 1;
nodes = (
"20 54 LINE",
"65 61 LINE",
"240 347 LINE",
"69 627 LINE",
"22 638 LINE",
"22 691 LINE {name = mh01;}",
"217 691 LINE",
"217 648 LINE",
"146 633 LINE",
"288 401 LINE",
"417 633 LINE",
"358 643 LINE",
"358 691 LINE",
"537 691 LINE",
"537 637 LINE",
"492 630 LINE",
"325 341 LINE",
"490 75 LINE",
"554 52 LINE",
"554 0 LINE",
"356 0 LINE",
"356 52 LINE",
"418 58 LINE",
"276 289 LINE",
"139 58 LINE",
"197 48 LINE",
"197 0 LINE",
"20 0 LINE {name = hr00;}"
);
}
);
width = 566;
},
{
layerId = "753CA70B-25C4-47AF-A15F-390B5E4CCE16";
paths = (
{
closed = 1;
nodes = (
"577 600 LINE",
"536 592 LINE {name = mh01;}",
"370 334 LINE {name = mh02;}",
"416.849 253.186 OFFCURVE",
"464.668 172.935 OFFCURVE",
"513 93 CURVE",
"577 71 LINE",
"577 0 LINE",
"306 0 LINE",
"306 71 LINE",
"363 77 LINE",
"273 232 LINE",
"183 76 LINE",
"238 70 LINE",
"238 0 LINE",
"13 0 LINE",
"13 71 LINE",
"59 79 LINE",
"216 331 LINE",
"66 591 LINE {name = mh03;}",
"24 603 LINE",
"24 690 LINE {name = mh04;}",
"277 690 LINE",
"291 612 LINE {name = mh05;}",
"221 597 LINE {name = mh06;}",
"251.123 543.214 OFFCURVE",
"281.973 489.842 OFFCURVE",
"312 436 CURVE {name = mv01;}",
"412 595 LINE {name = mh07;}",
"354 613 LINE",
"354 690 LINE",
"577 690 LINE {name = hr00;}"
);
}
);
width = 594;
}
);
unicode = 0058;
userData = {
com.typemytype.robofont.mark = (
0.713,
0.6,
1,
1
);
};
},
{
glyphname = Y;
lastChange = "2018-07-24 15:11:20 +0000";
layers = (
{
layerId = "1178ECA0-A987-4969-BD6E-681EE9C1B9C8";
paths = (
{
closed = 1;
nodes = (
"189 638 LINE",
"126 628 LINE",
"278 330 LINE",
"418 629 LINE",
"357 637 LINE",
"357 691 LINE",
"529 691 LINE",
"529 631 LINE",
"486 621 LINE",
"305 243 LINE",
"305 70 LINE",
"420 52 LINE",
"411 0 LINE",
"131 0 LINE",
"121 52 LINE",
"237 70 LINE",
"237 257 LINE",
"50 622 LINE",
"7 631 LINE",
"7 691 LINE {name = mh01;}",
"189 691 LINE {name = hr00;}"
);
}
);
width = 539;
},
{
layerId = "753CA70B-25C4-47AF-A15F-390B5E4CCE16";
paths = (
{
closed = 1;
nodes = (
"257 611 LINE",
"186 597 LINE",
"310 381 LINE",
"422 600 LINE",
"361 611 LINE",
"361 690 LINE",
"582 690 LINE",
"582 602 LINE",
"538 591 LINE",
"360 251 LINE",
"360 96 LINE",
"475 73 LINE",
"466 0 LINE",
"125 0 LINE",
"115 73 LINE",
"229 96 LINE",
"229 252 LINE",
"38 591 LINE",
"-2 601 LINE",
"-2 690 LINE {name = mh01;}",
"242 690 LINE {name = hr00;}"
);
}
);
width = 583;
}
);
leftKerningGroup = Y;
rightKerningGroup = Y;
unicode = 0059;
userData = {
com.typemytype.robofont.mark = (
0.713,
0.6,
1,
1
);
};
},
{
glyphname = Yacute;
lastChange = "2018-07-24 15:11:20 +0000";
layers = (
{
layerId = "1178ECA0-A987-4969-BD6E-681EE9C1B9C8";
paths = (
{
closed = 1;
nodes = (
"326 897 LINE",
"356 890 LINE",
"393 818 LINE",
"200 717 LINE",
"168 764 LINE {name = hr00;}"
);
},
{
closed = 1;
nodes = (
"189 638 LINE",
"126 628 LINE",
"278 330 LINE",
"418 629 LINE",
"357 637 LINE",
"357 691 LINE",
"529 691 LINE",
"529 631 LINE",
"486 621 LINE",
"305 243 LINE",
"305 70 LINE",
"420 52 LINE",
"411 0 LINE",
"131 0 LINE",
"121 52 LINE",
"237 70 LINE",
"237 257 LINE",
"50 622 LINE",
"7 631 LINE",
"7 691 LINE {name = at01;}",
"189 691 LINE"
);
}
);
width = 539;
},
{
layerId = "753CA70B-25C4-47AF-A15F-390B5E4CCE16";
paths = (
{
closed = 1;
nodes = (
"257 612 LINE",
"186 598 LINE {name = mh01;}",
"310 382 LINE {name = mv01;}",
"422 601 LINE",
"361 612 LINE",
"361 691 LINE",
"582 691 LINE",
"582 603 LINE",
"538 592 LINE",
"360 251 LINE",
"360 96 LINE",
"475 73 LINE",
"466 0 LINE",
"125 0 LINE",
"115 73 LINE",
"229 96 LINE",
"229 252 LINE",
"38 592 LINE {name = mh02;}",
"-2 602 LINE",
"-2 691 LINE {name = mh03;}",
"242 691 LINE {name = hr00;}"
);
},
{
closed = 1;
nodes = (
"361 959 LINE",
"398 974 LINE",
"476 865 LINE",
"279 741 LINE",
"232 795 LINE"
);
}
);
width = 583;
}
);
leftKerningGroup = Y;
rightKerningGroup = Y;
unicode = 00DD;
userData = {
com.typemytype.robofont.mark = (
0.713,
0.6,
1,
1
);
};
},
{
glyphname = Z;
lastChange = "2018-07-24 15:11:20 +0000";
layers = (
{
layerId = "1178ECA0-A987-4969-BD6E-681EE9C1B9C8";
paths = (
{
closed = 1;
nodes = (
"127 68 LINE",
"426 68 LINE",
"446 170 LINE",
"493 170 LINE",
"493 0 LINE",
"56 0 LINE",
"47 75 LINE",
"415 623 LINE",
"119 623 LINE",
"99 521 LINE",
"52 521 LINE",
"52 691 LINE {name = mh01;}",
"477 691 LINE",
"487 604 LINE {name = hr00;}"
);
}
);
width = 542;
},
{
layerId = "753CA70B-25C4-47AF-A15F-390B5E4CCE16";
paths = (
{
closed = 1;
nodes = (
"365 585 LINE",
"144 585 LINE {name = hr01;}",
"125 475 LINE",
"47 475 LINE",
"47 690 LINE {name = mh01;}",
"507 690 LINE",
"527 597 LINE",
"481.978 520.839 OFFCURVE",
"431.72 446.868 OFFCURVE",
"383 373 CURVE SMOOTH",
"323.978 283.512 OFFCURVE",
"265.013 193.82 OFFCURVE",
"205 105 CURVE",
"420 105 LINE",
"438 215 LINE",
"518 215 LINE",
"518 0 LINE",
"47 0 LINE",
"28 79 LINE {name = hr00;}"
);
}
);
width = 562;
}
);
unicode = 005A;
userData = {
com.typemytype.robofont.mark = (
0.713,
0.6,
1,
1
);
};
},
{
glyphname = a;
lastChange = "2018-07-24 16:27:56 +0000";
layers = (
{
anchors = (
{
name = bottom;
position = "{262, 0}";
},
{
name = ogonek;
position = "{421, 0}";
},
{
name = top;
position = "{222, 481}";
}
);
layerId = "1178ECA0-A987-4969-BD6E-681EE9C1B9C8";
paths = (
{
closed = 1;
nodes = (
"234.145 -4 OFFCURVE",
"275.164 10.018 OFFCURVE",
"308 40 CURVE",
"316.007 9.512 OFFCURVE",
"334.992 -4 OFFCURVE",
"366 -4 CURVE SMOOTH",
"386.144 -4 OFFCURVE",
"406.574 2.563 OFFCURVE",
"421 17 CURVE",
"410 55 LINE",
"403.366 52.349 OFFCURVE",
"396.217 50 OFFCURVE",
"389 50 CURVE SMOOTH {name = hr00;}",
"371.021 50 OFFCURVE",
"366 62.933 OFFCURVE",
"366 79 CURVE SMOOTH {name = hr00;}",
"366 337 LINE SMOOTH",
"366 437.625 OFFCURVE",
"304.308 479 OFFCURVE",
"209 479 CURVE SMOOTH {name = mh02;}",
"137.016 479 OFFCURVE",
"70.774 441.882 OFFCURVE",
"48 371 CURVE",
"130 356 LINE",
"146 409 LINE",
"164.01 420.067 OFFCURVE",
"194.169 422 OFFCURVE",
"215 422 CURVE SMOOTH",
"258.855 422 OFFCURVE",
"303 401.882 OFFCURVE",
"303 352 CURVE SMOOTH",
"303 288 LINE {name = mh01;}",
"200.428 285.147 OFFCURVE",
"41 261.139 OFFCURVE",
"41 128 CURVE SMOOTH",
"41 44.138 OFFCURVE",
"111.625 -4 OFFCURVE",
"190 -4 CURVE SMOOTH"
);
},
{
closed = 1;
nodes = (
"148.295 53 OFFCURVE",
"107 77.987 OFFCURVE",
"107 131 CURVE SMOOTH",
"107 219.973 OFFCURVE",
"237.564 231.994 OFFCURVE",
"303 232 CURVE {name = mh04;}",
"303 108 LINE",
"280.168 73.072 OFFCURVE",
"238.298 53 OFFCURVE",
"197 53 CURVE SMOOTH {name = mh03;}"
);
}
);
width = 448;
},
{
anchors = (
{
name = bottom;
position = "{233, 0}";
},
{
name = ogonek;
position = "{421, 0}";
},
{
name = top;
position = "{230, 491}";
}
);
layerId = "753CA70B-25C4-47AF-A15F-390B5E4CCE16";
paths = (
{
closed = 1;
nodes = (
"216.647 -4 OFFCURVE",
"255.98 13.982 OFFCURVE",
"286 44 CURVE",
"302.335 11.314 OFFCURVE",
"329.993 -4 OFFCURVE",
"366 -4 CURVE SMOOTH",
"397.666 -4 OFFCURVE",
"422.242 8.722 OFFCURVE",
"446 29 CURVE",
"428 85 LINE {name = hr00;}",
"421 82 OFFCURVE",
"414 80 OFFCURVE",
"410 80 CURVE SMOOTH",
"402 80 OFFCURVE",
"395 88 OFFCURVE",
"395 105 CURVE SMOOTH {name = hr00;}",
"395 330 LINE SMOOTH {name = mh06;}",
"395 436.642 OFFCURVE",
"326 491 OFFCURVE",
"223 491 CURVE SMOOTH {name = mh05;}",
"145 491 OFFCURVE",
"60.912 448.187 OFFCURVE",
"30 374 CURVE",
"154 320 LINE {name = mh02;}",
"180 394 LINE",
"188.683 397.418 OFFCURVE",
"199.791 397 OFFCURVE",
"209 397 CURVE SMOOTH",
"226.832 397 OFFCURVE",
"274 393.082 OFFCURVE",
"274 367 CURVE SMOOTH",
"274 288 LINE",
"176.44 285.62 OFFCURVE",
"29 251.805 OFFCURVE",
"29 129 CURVE SMOOTH",
"29 42.644 OFFCURVE",
"92.103 -4 OFFCURVE",
"174 -4 CURVE SMOOTH"
);
},
{
closed = 1;
nodes = (
"170.897 92 OFFCURVE",
"153 110.968 OFFCURVE",
"153 138 CURVE SMOOTH {name = mh08;}",
"153 192.779 OFFCURVE",
"233.58 201.872 OFFCURVE",
"274 204 CURVE",
"274 139 LINE {name = mh07;}",
"260.443 110.206 OFFCURVE",
"229.331 92 OFFCURVE",
"198 92 CURVE SMOOTH"
);
}
);
width = 463;
}
);
leftKerningGroup = a;
rightKerningGroup = a;
unicode = 0061;
userData = {
com.typemytype.robofont.mark = (
0.713,
0.6,
1,
1
);
};
},
{
glyphname = aacute;
lastChange = "2018-07-24 15:11:20 +0000";
layers = (
{
layerId = "1178ECA0-A987-4969-BD6E-681EE9C1B9C8";
paths = (
{
closed = 1;
nodes = (
"396.217 50 OFFCURVE",
"403.366 52.349 OFFCURVE",
"410 55 CURVE",
"421 17 LINE",
"406.574 2.563 OFFCURVE",
"386.144 -4 OFFCURVE",
"366 -4 CURVE SMOOTH",
"334.992 -4 OFFCURVE",
"316.007 9.512 OFFCURVE",
"308 40 CURVE",
"275.164 10.018 OFFCURVE",
"234.145 -4 OFFCURVE",
"190 -4 CURVE SMOOTH",
"111.625 -4 OFFCURVE",
"41 44.138 OFFCURVE",
"41 128 CURVE SMOOTH",
"41 261.139 OFFCURVE",
"200.428 285.147 OFFCURVE",
"303 288 CURVE",
"303 352 LINE SMOOTH",
"303 401.882 OFFCURVE",
"258.855 422 OFFCURVE",
"215 422 CURVE SMOOTH",
"194.169 422 OFFCURVE",
"164.01 420.067 OFFCURVE",
"146 409 CURVE",
"130 356 LINE",
"48 371 LINE",
"70.774 441.882 OFFCURVE",
"137.016 479 OFFCURVE",
"209 479 CURVE SMOOTH {name = mh01;}",
"304.308 479 OFFCURVE",
"366 437.625 OFFCURVE",
"366 337 CURVE SMOOTH",
"366 79 LINE SMOOTH {name = hr00;}",
"366 62.933 OFFCURVE",
"371.021 50 OFFCURVE",
"389 50 CURVE SMOOTH {name = hr00;}"
);
},
{
closed = 1;
nodes = (
"107 77.987 OFFCURVE",
"148.295 53 OFFCURVE",
"197 53 CURVE SMOOTH",
"238.298 53 OFFCURVE",
"280.168 73.072 OFFCURVE",
"303 108 CURVE",
"303 232 LINE",
"237.564 231.994 OFFCURVE",
"107 219.973 OFFCURVE",
"107 131 CURVE SMOOTH"
);
},
{
closed = 1;
nodes = (
"253 725 LINE {name = mh02;}",
"280 725 LINE",
"324 673 LINE",
"184 553 LINE",
"149 586 LINE"
);
}
);
width = 448;
},
{
layerId = "753CA70B-25C4-47AF-A15F-390B5E4CCE16";
paths = (
{
closed = 1;
nodes = (
"446 29 LINE",
"422.242 8.722 OFFCURVE",
"397.666 -4 OFFCURVE",
"366 -4 CURVE SMOOTH",
"329.993 -4 OFFCURVE",
"302.335 11.314 OFFCURVE",
"286 44 CURVE",
"255.98 13.982 OFFCURVE",
"216.647 -4 OFFCURVE",
"174 -4 CURVE SMOOTH",
"92.103 -4 OFFCURVE",
"29 42.644 OFFCURVE",
"29 129 CURVE SMOOTH",
"29 251.805 OFFCURVE",
"176.44 285.62 OFFCURVE",
"274 288 CURVE",
"274 367 LINE SMOOTH",
"274 393.082 OFFCURVE",
"226.832 397 OFFCURVE",
"209 397 CURVE SMOOTH",
"199.791 397 OFFCURVE",
"188.683 397.418 OFFCURVE",
"180 394 CURVE",
"154 320 LINE {name = mh01;}",
"30 374 LINE",
"60.912 448.187 OFFCURVE",
"145.415 491 OFFCURVE",
"223 491 CURVE SMOOTH",
"325.935 491 OFFCURVE",
"395 436.642 OFFCURVE",
"395 330 CURVE SMOOTH",
"395 105 LINE SMOOTH {name = hr00;}",
"395 78.975 OFFCURVE",
"409.055 83.21 OFFCURVE",
"428 85 CURVE {name = hr00;}"
);
},
{
closed = 1;
nodes = (
"229.331 92 OFFCURVE",
"260.443 110.206 OFFCURVE",
"274 139 CURVE",
"274 204 LINE",
"233.58 201.872 OFFCURVE",
"153 192.779 OFFCURVE",
"153 138 CURVE SMOOTH",
"153 110.968 OFFCURVE",
"170.897 92 OFFCURVE",
"198 92 CURVE SMOOTH"
);
},
{
closed = 1;
nodes = (
"238 722 LINE",
"274 736 LINE",
"351 630 LINE",
"158 509 LINE {name = mh02;}",
"112 561 LINE"
);
}
);
width = 463;
}
);
leftKerningGroup = a;
rightKerningGroup = a;
unicode = 00E1;
userData = {
com.typemytype.robofont.mark = (
0.713,
0.6,
1,
1
);
};
},
{
glyphname = acircumflex;
lastChange = "2018-07-24 15:11:20 +0000";
layers = (
{
layerId = "1178ECA0-A987-4969-BD6E-681EE9C1B9C8";
paths = (
{
closed = 1;
nodes = (
"203 691 LINE {name = mh02;}",
"219 691 LINE",
"335 550 LINE",
"332 544 LINE",
"277 544 LINE",
"211 602 LINE {name = mh03;}",
"145 544 LINE",
"91 544 LINE",
"87 548 LINE {name = mh01;}"
);
},
{
closed = 1;
nodes = (
"396.217 50 OFFCURVE",
"403.366 52.349 OFFCURVE",
"410 55 CURVE",
"421 17 LINE",
"406.574 2.563 OFFCURVE",
"386.144 -4 OFFCURVE",
"366 -4 CURVE SMOOTH",
"334.992 -4 OFFCURVE",
"316.007 9.512 OFFCURVE",
"308 40 CURVE",
"275.164 10.018 OFFCURVE",
"234.145 -4 OFFCURVE",
"190 -4 CURVE SMOOTH",
"111.625 -4 OFFCURVE",
"41 44.138 OFFCURVE",
"41 128 CURVE SMOOTH {name = hr01;}",
"41 261.139 OFFCURVE",
"200.428 285.147 OFFCURVE",
"303 288 CURVE",
"303 352 LINE SMOOTH",
"303 401.882 OFFCURVE",
"258.855 422 OFFCURVE",
"215 422 CURVE SMOOTH",
"194.169 422 OFFCURVE",
"164.01 420.067 OFFCURVE",
"146 409 CURVE",
"130 356 LINE",
"48 371 LINE",
"70.774 441.882 OFFCURVE",
"137.016 479 OFFCURVE",
"209 479 CURVE SMOOTH {name = mh04;}",
"304.308 479 OFFCURVE",
"366 437.625 OFFCURVE",
"366 337 CURVE SMOOTH",
"366 79 LINE SMOOTH",
"366 62.933 OFFCURVE",
"371.021 50 OFFCURVE",
"389 50 CURVE SMOOTH"
);
},
{
closed = 1;
nodes = (
"107 77.987 OFFCURVE",
"148.295 53 OFFCURVE",
"197 53 CURVE SMOOTH",
"238.298 53 OFFCURVE",
"280.168 73.072 OFFCURVE",
"303 108 CURVE",
"303 232 LINE",
"237.564 231.994 OFFCURVE",
"107 219.973 OFFCURVE",
"107 131 CURVE SMOOTH"
);
}
);
width = 448;
},
{
layerId = "753CA70B-25C4-47AF-A15F-390B5E4CCE16";
paths = (
{
closed = 1;
nodes = (
"213 700 LINE {name = mh02;}",
"245 700 LINE {name = mv01;}",
"379 540 LINE {name = mh03;}",
"373 529 LINE",
"295 529 LINE {name = mv02;}",
"228 581 LINE",
"161 529 LINE",
"84 529 LINE",
"79 541 LINE {name = mh01;}"
);
},
{
closed = 1;
nodes = (
"446 29 LINE {name = hr01;}",
"422.242 8.722 OFFCURVE",
"397.666 -4 OFFCURVE",
"366 -4 CURVE SMOOTH",
"329.993 -4 OFFCURVE",
"302.335 11.314 OFFCURVE",
"286 44 CURVE",
"255.98 13.982 OFFCURVE",
"216.647 -4 OFFCURVE",
"174 -4 CURVE SMOOTH",
"92.103 -4 OFFCURVE",
"29 42.644 OFFCURVE",
"29 129 CURVE SMOOTH",
"29 251.805 OFFCURVE",
"176.44 285.62 OFFCURVE",
"274 288 CURVE",
"274 367 LINE SMOOTH",
"274 393.082 OFFCURVE",
"226.832 397 OFFCURVE",
"209 397 CURVE SMOOTH",
"199.791 397 OFFCURVE",
"188.683 397.418 OFFCURVE",
"180 394 CURVE",
"154 320 LINE",
"30 374 LINE",
"60.912 448.187 OFFCURVE",
"145.415 491 OFFCURVE",
"223 491 CURVE SMOOTH {name = mv03;}",
"325.935 491 OFFCURVE",
"395 436.642 OFFCURVE",
"395 330 CURVE SMOOTH",
"395 105 LINE SMOOTH",
"395 78.975 OFFCURVE",
"409.055 83.21 OFFCURVE",
"428 85 CURVE"
);
},
{
closed = 1;
nodes = (
"229.331 92 OFFCURVE",
"260.443 110.206 OFFCURVE",
"274 139 CURVE",
"274 204 LINE",
"233.58 201.872 OFFCURVE",
"153 192.779 OFFCURVE",
"153 138 CURVE SMOOTH",
"153 110.968 OFFCURVE",
"170.897 92 OFFCURVE",
"198 92 CURVE SMOOTH"
);
}
);
width = 463;
}
);
leftKerningGroup = a;
rightKerningGroup = a;
unicode = 00E2;
userData = {
com.typemytype.robofont.mark = (
0.713,
0.6,
1,
1
);
};
},
{
glyphname = adieresis;
lastChange = "2018-07-24 15:11:20 +0000";
layers = (
{
layerId = "1178ECA0-A987-4969-BD6E-681EE9C1B9C8";
paths = (
{
closed = 1;
nodes = (
"89 646.501 OFFCURVE",
"110.57 668 OFFCURVE",
"138 668 CURVE SMOOTH",
"164.301 668 OFFCURVE",
"186 644.965 OFFCURVE",
"186 619 CURVE SMOOTH",
"186 593.604 OFFCURVE",
"163.659 570 OFFCURVE",
"138 570 CURVE SMOOTH",
"111.145 570 OFFCURVE",
"89 592.089 OFFCURVE",
"89 619 CURVE SMOOTH {name = mh01;}"
);
},
{
closed = 1;
nodes = (
"229 646.316 OFFCURVE",
"249.412 668 OFFCURVE",
"277 668 CURVE SMOOTH",
"303.394 668 OFFCURVE",
"324 644.773 OFFCURVE",
"324 619 CURVE SMOOTH {name = mh02;}",
"324 593.819 OFFCURVE",
"302.71 570 OFFCURVE",
"277 570 CURVE SMOOTH",
"249.993 570 OFFCURVE",
"229 592.222 OFFCURVE",
"229 619 CURVE SMOOTH"
);
},
{
closed = 1;
nodes = (
"396.217 50 OFFCURVE",
"403.366 52.349 OFFCURVE",
"410 55 CURVE",
"421 17 LINE",
"406.574 2.563 OFFCURVE",
"386.144 -4 OFFCURVE",
"366 -4 CURVE SMOOTH",
"334.992 -4 OFFCURVE",
"316.007 9.512 OFFCURVE",
"308 40 CURVE",
"275.164 10.018 OFFCURVE",
"234.145 -4 OFFCURVE",
"190 -4 CURVE SMOOTH",
"111.625 -4 OFFCURVE",
"41 44.138 OFFCURVE",
"41 128 CURVE SMOOTH {name = mh04;}",
"41 261.139 OFFCURVE",
"200.428 285.147 OFFCURVE",
"303 288 CURVE",
"303 352 LINE SMOOTH",
"303 401.882 OFFCURVE",
"258.855 422 OFFCURVE",
"215 422 CURVE SMOOTH",
"194.169 422 OFFCURVE",
"164.01 420.067 OFFCURVE",
"146 409 CURVE",
"130 356 LINE {name = mh05;}",
"48 371 LINE",
"70.774 441.882 OFFCURVE",
"137.016 479 OFFCURVE",
"209 479 CURVE SMOOTH {name = mh06;}",
"304.308 479 OFFCURVE",
"366 437.625 OFFCURVE",
"366 337 CURVE SMOOTH {name = mh07;}",
"366 79 LINE SMOOTH",
"366 62.933 OFFCURVE",
"371.021 50 OFFCURVE",
"389 50 CURVE SMOOTH"
);
},
{
closed = 1;
nodes = (
"107 77.987 OFFCURVE",
"148.295 53 OFFCURVE",
"197 53 CURVE SMOOTH",
"238.298 53 OFFCURVE",
"280.168 73.072 OFFCURVE",
"303 108 CURVE",
"303 232 LINE",
"237.564 231.994 OFFCURVE",
"107 219.973 OFFCURVE",
"107 131 CURVE SMOOTH"
);
}
);
width = 448;
},
{
layerId = "753CA70B-25C4-47AF-A15F-390B5E4CCE16";
paths = (
{
closed = 1;
nodes = (
"70 668.818 OFFCURVE",
"97.182 696 OFFCURVE",
"132 696 CURVE SMOOTH {name = fv01;}",
"166.818 696 OFFCURVE",
"194 668.818 OFFCURVE",
"194 634 CURVE SMOOTH {name = mh02;}",
"194 599.182 OFFCURVE",
"166.818 572 OFFCURVE",
"132 572 CURVE SMOOTH {name = mv01;}",
"97.182 572 OFFCURVE",
"70 599.182 OFFCURVE",
"70 634 CURVE SMOOTH {name = mh01;}"
);
},
{
closed = 1;
nodes = (
"231 668.818 OFFCURVE",
"258.182 696 OFFCURVE",
"293 696 CURVE SMOOTH",
"327.818 696 OFFCURVE",
"355 668.818 OFFCURVE",
"355 634 CURVE SMOOTH",
"355 599.182 OFFCURVE",
"327.818 572 OFFCURVE",
"293 572 CURVE SMOOTH {name = mv02;}",
"258.182 572 OFFCURVE",
"231 599.182 OFFCURVE",
"231 634 CURVE SMOOTH {name = mh03;}"
);
},
{
closed = 1;
nodes = (
"446 29 LINE",
"422.242 8.722 OFFCURVE",
"397.666 -4 OFFCURVE",
"366 -4 CURVE SMOOTH",
"329.993 -4 OFFCURVE",
"302.335 11.314 OFFCURVE",
"286 44 CURVE",
"255.98 13.982 OFFCURVE",
"216.647 -4 OFFCURVE",
"174 -4 CURVE SMOOTH",
"92.103 -4 OFFCURVE",
"29 42.644 OFFCURVE",
"29 129 CURVE SMOOTH {name = mh05;}",
"29 251.805 OFFCURVE",
"176.44 285.62 OFFCURVE",
"274 288 CURVE",
"274 367 LINE SMOOTH",
"274 393.082 OFFCURVE",
"226.832 397 OFFCURVE",
"209 397 CURVE SMOOTH",
"199.791 397 OFFCURVE",
"188.683 397.418 OFFCURVE",
"180 394 CURVE",
"154 320 LINE",
"30 374 LINE {name = hr01;}",
"60.912 448.187 OFFCURVE",
"145.415 491 OFFCURVE",
"223 491 CURVE SMOOTH {name = mv03;}",
"325.935 491 OFFCURVE",
"395 436.642 OFFCURVE",
"395 330 CURVE SMOOTH {name = mh06;}",
"395 105 LINE SMOOTH {name = mh04;}",
"395 78.975 OFFCURVE",
"409.055 83.21 OFFCURVE",
"428 85 CURVE"
);
},
{
closed = 1;
nodes = (
"229.331 92 OFFCURVE",
"260.443 110.206 OFFCURVE",
"274 139 CURVE",
"274 204 LINE",
"233.58 201.872 OFFCURVE",
"153 192.779 OFFCURVE",
"153 138 CURVE SMOOTH",
"153 110.968 OFFCURVE",
"170.897 92 OFFCURVE",
"198 92 CURVE SMOOTH"
);
}
);
width = 463;
}
);
leftKerningGroup = a;
rightKerningGroup = a;
unicode = 00E4;
userData = {
com.typemytype.robofont.mark = (
0.713,
0.6,
1,
1
);
};
},
{
glyphname = agrave;
lastChange = "2018-07-24 15:11:20 +0000";
layers = (
{
layerId = "1178ECA0-A987-4969-BD6E-681EE9C1B9C8";
paths = (
{
closed = 1;
nodes = (
"396.217 50 OFFCURVE",
"403.366 52.349 OFFCURVE",
"410 55 CURVE",
"421 17 LINE",
"406.574 2.563 OFFCURVE",
"386.144 -4 OFFCURVE",
"366 -4 CURVE SMOOTH",
"334.992 -4 OFFCURVE",
"316.007 9.512 OFFCURVE",
"308 40 CURVE",
"275.164 10.018 OFFCURVE",
"234.145 -4 OFFCURVE",
"190 -4 CURVE SMOOTH",
"111.625 -4 OFFCURVE",
"41 44.138 OFFCURVE",
"41 128 CURVE SMOOTH",
"41 261.139 OFFCURVE",
"200.428 285.147 OFFCURVE",
"303 288 CURVE",
"303 352 LINE SMOOTH",
"303 401.882 OFFCURVE",
"258.855 422 OFFCURVE",
"215 422 CURVE SMOOTH",
"194.169 422 OFFCURVE",
"164.01 420.067 OFFCURVE",
"146 409 CURVE",
"130 356 LINE",
"48 371 LINE",
"70.774 441.882 OFFCURVE",
"137.016 479 OFFCURVE",
"209 479 CURVE SMOOTH {name = mh01;}",
"304.308 479 OFFCURVE",
"366 437.625 OFFCURVE",
"366 337 CURVE SMOOTH",
"366 79 LINE SMOOTH {name = hr00;}",
"366 62.933 OFFCURVE",
"371.021 50 OFFCURVE",
"389 50 CURVE SMOOTH {name = hr00;}"
);
},
{
closed = 1;
nodes = (
"107 77.987 OFFCURVE",
"148.295 53 OFFCURVE",
"197 53 CURVE SMOOTH",
"238.298 53 OFFCURVE",
"280.168 73.072 OFFCURVE",
"303 108 CURVE",
"303 232 LINE",
"237.564 231.994 OFFCURVE",
"107 219.973 OFFCURVE",
"107 131 CURVE SMOOTH"
);
},
{
closed = 1;
nodes = (
"130 674 LINE",
"174 727 LINE {name = mh02;}",
"200 727 LINE",
"304 587 LINE {name = mh03;}",
"270 554 LINE"
);
}
);
width = 448;
},
{
layerId = "753CA70B-25C4-47AF-A15F-390B5E4CCE16";
paths = (
{
closed = 1;
nodes = (
"145.415 491 OFFCURVE",
"60.912 448.187 OFFCURVE",
"30 374 CURVE",
"154 320 LINE",
"180 394 LINE",
"188.683 397.418 OFFCURVE",
"199.791 397 OFFCURVE",
"209 397 CURVE SMOOTH",
"226.832 397 OFFCURVE",
"274 393.082 OFFCURVE",
"274 367 CURVE SMOOTH",
"274 288 LINE",
"176.44 285.62 OFFCURVE",
"29 251.805 OFFCURVE",
"29 129 CURVE SMOOTH",
"29 42.644 OFFCURVE",
"92.103 -4 OFFCURVE",
"174 -4 CURVE SMOOTH",
"216.647 -4 OFFCURVE",
"255.98 13.982 OFFCURVE",
"286 44 CURVE",
"302.335 11.314 OFFCURVE",
"329.993 -4 OFFCURVE",
"366 -4 CURVE SMOOTH",
"397.666 -4 OFFCURVE",
"422.242 8.722 OFFCURVE",
"446 29 CURVE",
"428 85 LINE",
"422.928 84.521 OFFCURVE",
"418.144 83 OFFCURVE",
"413 83 CURVE SMOOTH",
"398.422 83 OFFCURVE",
"395 92.264 OFFCURVE",
"395 105 CURVE SMOOTH",
"395 330 LINE SMOOTH {name = hr00;}",
"395 436.642 OFFCURVE",
"325.935 491 OFFCURVE",
"223 491 CURVE SMOOTH {name = av01;}"
);
},
{
closed = 1;
nodes = (
"170.897 92 OFFCURVE",
"153 110.968 OFFCURVE",
"153 138 CURVE SMOOTH",
"153 192.779 OFFCURVE",
"233.58 201.872 OFFCURVE",
"274 204 CURVE",
"274 139 LINE",
"260.443 110.206 OFFCURVE",
"229.331 92 OFFCURVE",
"198 92 CURVE SMOOTH"
);
},
{
closed = 1;
nodes = (
"89 630 LINE",
"166 736 LINE",
"202 722 LINE",
"328 561 LINE",
"282 509 LINE {name = mh01;}"
);
}
);
width = 463;
}
);
leftKerningGroup = a;
rightKerningGroup = a;
unicode = 00E0;
userData = {
com.typemytype.robofont.mark = (
0.713,
0.6,
1,
1
);
};
},
{
glyphname = aring;
lastChange = "2018-07-24 15:11:20 +0000";
layers = (
{
layerId = "1178ECA0-A987-4969-BD6E-681EE9C1B9C8";
paths = (
{
closed = 1;
nodes = (
"124 651.948 OFFCURVE",
"163.052 691 OFFCURVE",
"214 691 CURVE SMOOTH {name = mh02;}",
"264.948 691 OFFCURVE",
"304 651.948 OFFCURVE",
"304 601 CURVE SMOOTH",
"304 549.577 OFFCURVE",
"265.838 510 OFFCURVE",
"214 510 CURVE SMOOTH",
"162.162 510 OFFCURVE",
"124 549.577 OFFCURVE",
"124 601 CURVE SMOOTH {name = mh01;}"
);
},
{
closed = 1;
nodes = (
"176 577.756 OFFCURVE",
"190.656 563 OFFCURVE",
"214 563 CURVE SMOOTH",
"237.344 563 OFFCURVE",
"252 577.756 OFFCURVE",
"252 601 CURVE SMOOTH",
"252 623.804 OFFCURVE",
"236.479 638 OFFCURVE",
"214 638 CURVE SMOOTH",
"191.521 638 OFFCURVE",
"176 623.804 OFFCURVE",
"176 601 CURVE SMOOTH"
);
},
{
closed = 1;
nodes = (
"396.217 50 OFFCURVE",
"403.366 52.349 OFFCURVE",
"410 55 CURVE",
"421 17 LINE",
"406.574 2.563 OFFCURVE",
"386.144 -4 OFFCURVE",
"366 -4 CURVE SMOOTH",
"334.992 -4 OFFCURVE",
"316.007 9.512 OFFCURVE",
"308 40 CURVE",
"275.164 10.018 OFFCURVE",
"234.145 -4 OFFCURVE",
"190 -4 CURVE SMOOTH",
"111.625 -4 OFFCURVE",
"41 44.138 OFFCURVE",
"41 128 CURVE SMOOTH",
"41 261.139 OFFCURVE",
"200.428 285.147 OFFCURVE",
"303 288 CURVE",
"303 352 LINE SMOOTH",
"303 401.882 OFFCURVE",
"258.855 422 OFFCURVE",
"215 422 CURVE SMOOTH",
"194.169 422 OFFCURVE",
"164.01 420.067 OFFCURVE",
"146 409 CURVE",
"130 356 LINE",
"48 371 LINE",
"70.774 441.882 OFFCURVE",
"137.016 479 OFFCURVE",
"209 479 CURVE SMOOTH {name = mh03;}",
"304.308 479 OFFCURVE",
"366 437.625 OFFCURVE",
"366 337 CURVE SMOOTH",
"366 79 LINE SMOOTH",
"366 62.933 OFFCURVE",
"371.021 50 OFFCURVE",
"389 50 CURVE SMOOTH"
);
},
{
closed = 1;
nodes = (
"107 77.987 OFFCURVE",
"148.295 53 OFFCURVE",
"197 53 CURVE SMOOTH",
"238.298 53 OFFCURVE",
"280.168 73.072 OFFCURVE",
"303 108 CURVE",
"303 232 LINE",
"237.564 231.994 OFFCURVE",
"107 219.973 OFFCURVE",
"107 131 CURVE SMOOTH"
);
}
);
width = 448;
},
{
layerId = "753CA70B-25C4-47AF-A15F-390B5E4CCE16";
paths = (
{
closed = 1;
nodes = (
"118 691.071 OFFCURVE",
"163.999 737 OFFCURVE",
"224 737 CURVE SMOOTH {name = mv01;}",
"283.83 737 OFFCURVE",
"330 690.83 OFFCURVE",
"330 631 CURVE SMOOTH",
"330 571 OFFCURVE",
"284.071 525 OFFCURVE",
"224 525 CURVE SMOOTH",
"163.854 525 OFFCURVE",
"118 570.854 OFFCURVE",
"118 631 CURVE SMOOTH {name = hr00;}"
);
},
{
closed = 1;
nodes = (
"181 604.408 OFFCURVE",
"197.408 588 OFFCURVE",
"224 588 CURVE SMOOTH {name = hr01;}",
"250.592 588 OFFCURVE",
"267 604.408 OFFCURVE",
"267 631 CURVE SMOOTH",
"267 657.592 OFFCURVE",
"250.592 674 OFFCURVE",
"224 674 CURVE SMOOTH",
"197.408 674 OFFCURVE",
"181 657.592 OFFCURVE",
"181 631 CURVE SMOOTH"
);
},
{
closed = 1;
nodes = (
"446 29 LINE",
"422.242 8.722 OFFCURVE",
"397.666 -4 OFFCURVE",
"366 -4 CURVE SMOOTH",
"329.993 -4 OFFCURVE",
"302.335 11.314 OFFCURVE",
"286 44 CURVE",
"255.98 13.982 OFFCURVE",
"216.647 -4 OFFCURVE",
"174 -4 CURVE SMOOTH",
"92.103 -4 OFFCURVE",
"29 42.644 OFFCURVE",
"29 129 CURVE SMOOTH",
"29 251.805 OFFCURVE",
"176.44 285.62 OFFCURVE",
"274 288 CURVE",
"274 367 LINE SMOOTH",
"274 393.082 OFFCURVE",
"226.832 397 OFFCURVE",
"209 397 CURVE SMOOTH",
"199.791 397 OFFCURVE",
"188.683 397.418 OFFCURVE",
"180 394 CURVE",
"154 320 LINE",
"30 374 LINE {name = hr02;}",
"60.912 448.187 OFFCURVE",
"145.415 491 OFFCURVE",
"223 491 CURVE SMOOTH {name = mv02;}",
"325.935 491 OFFCURVE",
"395 436.642 OFFCURVE",
"395 330 CURVE SMOOTH",
"395 105 LINE SMOOTH",
"395 78.975 OFFCURVE",
"409.055 83.21 OFFCURVE",
"428 85 CURVE"
);
},
{
closed = 1;
nodes = (
"229.331 92 OFFCURVE",
"260.443 110.206 OFFCURVE",
"274 139 CURVE",
"274 204 LINE",
"233.58 201.872 OFFCURVE",
"153 192.779 OFFCURVE",
"153 138 CURVE SMOOTH",
"153 110.968 OFFCURVE",
"170.897 92 OFFCURVE",
"198 92 CURVE SMOOTH"
);
}
);
width = 463;
}
);
leftKerningGroup = a;
rightKerningGroup = a;
unicode = 00E5;
userData = {
com.typemytype.robofont.mark = (
0.713,
0.6,
1,
1
);
};
},
{
glyphname = atilde;
lastChange = "2018-07-24 15:11:20 +0000";
layers = (
{
layerId = "1178ECA0-A987-4969-BD6E-681EE9C1B9C8";
paths = (
{
closed = 1;
nodes = (
"365 601 LINE",
"338.796 578.725 OFFCURVE",
"317.873 563 OFFCURVE",
"282 563 CURVE SMOOTH",
"237.646 563 OFFCURVE",
"208.175 600 OFFCURVE",
"173 600 CURVE SMOOTH",
"144.606 600 OFFCURVE",
"124.807 578.531 OFFCURVE",
"115 554 CURVE",
"72 580 LINE",
"73 597 LINE",
"94.433 633.741 OFFCURVE",
"120.648 663 OFFCURVE",
"166 663 CURVE SMOOTH {name = mh01;}",
"205.038 663 OFFCURVE",
"239.14 633.958 OFFCURVE",
"275 622 CURVE",
"328 663 LINE {name = hr00;}"
);
},
{
closed = 1;
nodes = (
"396.217 50 OFFCURVE",
"403.366 52.349 OFFCURVE",
"410 55 CURVE",
"421 17 LINE",
"406.574 2.563 OFFCURVE",
"386.144 -4 OFFCURVE",
"366 -4 CURVE SMOOTH",
"334.992 -4 OFFCURVE",
"316.007 9.512 OFFCURVE",
"308 40 CURVE",
"275.164 10.018 OFFCURVE",
"234.145 -4 OFFCURVE",
"190 -4 CURVE SMOOTH",
"111.625 -4 OFFCURVE",
"41 44.138 OFFCURVE",
"41 128 CURVE SMOOTH {name = mh02;}",
"41 261.139 OFFCURVE",
"200.428 285.147 OFFCURVE",
"303 288 CURVE",
"303 352 LINE SMOOTH",
"303 401.882 OFFCURVE",
"258.855 422 OFFCURVE",
"215 422 CURVE SMOOTH",
"194.169 422 OFFCURVE",
"164.01 420.067 OFFCURVE",
"146 409 CURVE",
"130 356 LINE",
"48 371 LINE",
"70.774 441.882 OFFCURVE",
"137.016 479 OFFCURVE",
"209 479 CURVE SMOOTH {name = mh03;}",
"304.308 479 OFFCURVE",
"366 437.625 OFFCURVE",
"366 337 CURVE SMOOTH",
"366 79 LINE SMOOTH",
"366 62.933 OFFCURVE",
"371.021 50 OFFCURVE",
"389 50 CURVE SMOOTH"
);
},
{
closed = 1;
nodes = (
"107 77.987 OFFCURVE",
"148.295 53 OFFCURVE",
"197 53 CURVE SMOOTH",
"238.298 53 OFFCURVE",
"280.168 73.072 OFFCURVE",
"303 108 CURVE",
"303 232 LINE",
"237.564 231.994 OFFCURVE",
"107 219.973 OFFCURVE",
"107 131 CURVE SMOOTH"
);
}
);
width = 448;
},
{
layerId = "753CA70B-25C4-47AF-A15F-390B5E4CCE16";
paths = (
{
closed = 1;
nodes = (
"388 627 LINE",
"366.065 595.318 OFFCURVE",
"328.657 554 OFFCURVE",
"287 554 CURVE SMOOTH {name = mh01;}",
"240.316 554 OFFCURVE",
"210.344 595 OFFCURVE",
"169 595 CURVE SMOOTH {name = mh02;}",
"138.717 595 OFFCURVE",
"117.364 575.432 OFFCURVE",
"109 547 CURVE",
"45 589 LINE {name = mv01;}",
"46.481 647.416 OFFCURVE",
"109.067 690 OFFCURVE",
"164 690 CURVE SMOOTH {name = mv02;}",
"219.924 690 OFFCURVE",
"253.952 650.131 OFFCURVE",
"278 646 CURVE {name = mh03;}",
"314 697 LINE {name = hr00;}"
);
},
{
closed = 1;
nodes = (
"446 29 LINE",
"422.242 8.722 OFFCURVE",
"397.666 -4 OFFCURVE",
"366 -4 CURVE SMOOTH",
"329.993 -4 OFFCURVE",
"302.335 11.314 OFFCURVE",
"286 44 CURVE {name = mh04;}",
"255.98 13.982 OFFCURVE",
"216.647 -4 OFFCURVE",
"174 -4 CURVE SMOOTH",
"92.103 -4 OFFCURVE",
"29 42.644 OFFCURVE",
"29 129 CURVE SMOOTH {name = mh06;}",
"29 251.805 OFFCURVE",
"176.44 285.62 OFFCURVE",
"274 288 CURVE",
"274 367 LINE SMOOTH",
"274 393.082 OFFCURVE",
"226.832 397 OFFCURVE",
"209 397 CURVE SMOOTH",
"199.791 397 OFFCURVE",
"188.683 397.418 OFFCURVE",
"180 394 CURVE",
"154 320 LINE",
"30 374 LINE",
"60.912 448.187 OFFCURVE",
"145.415 491 OFFCURVE",
"223 491 CURVE SMOOTH {name = mv06;}",
"325.935 491 OFFCURVE",
"395 436.642 OFFCURVE",
"395 330 CURVE SMOOTH {name = mh08;}",
"395 105 LINE SMOOTH",
"395 78.975 OFFCURVE",
"409.055 83.21 OFFCURVE",
"428 85 CURVE"
);
},
{
closed = 1;
nodes = (
"229.331 92 OFFCURVE",
"260.443 110.206 OFFCURVE",
"274 139 CURVE",
"274 204 LINE {name = hr01;}",
"233.58 201.872 OFFCURVE",
"153 192.779 OFFCURVE",
"153 138 CURVE SMOOTH",
"153 110.968 OFFCURVE",
"170.897 92 OFFCURVE",
"198 92 CURVE SMOOTH"
);
}
);
width = 463;
}
);
leftKerningGroup = a;
rightKerningGroup = a;
unicode = 00E3;
userData = {
com.typemytype.robofont.mark = (
0.713,
0.6,
1,
1
);
};
},
{
glyphname = ae;
lastChange = "2018-07-24 15:11:20 +0000";
layers = (
{
layerId = "1178ECA0-A987-4969-BD6E-681EE9C1B9C8";
paths = (
{
closed = 1;
nodes = (
"303 397.406 OFFCURVE",
"243.866 422 OFFCURVE",
"206 422 CURVE SMOOTH {name = mh01;}",
"189.448 422 OFFCURVE",
"158.784 420.099 OFFCURVE",
"146 409 CURVE",
"130 356 LINE",
"48 371 LINE",
"58.599 442.672 OFFCURVE",
"141.857 479 OFFCURVE",
"207 479 CURVE SMOOTH {name = mh02;}",
"268.59 479 OFFCURVE",
"326.981 458.879 OFFCURVE",
"353 399 CURVE",
"390.284 449.146 OFFCURVE",
"447.989 481 OFFCURVE",
"511 481 CURVE SMOOTH {name = mh03;}",
"593.965 481 OFFCURVE",
"664 443.405 OFFCURVE",
"664 352 CURVE SMOOTH",
"664 199.821 OFFCURVE",
"475.532 209 OFFCURVE",
"369 209 CURVE",
"374.744 120.746 OFFCURVE",
"427.312 56 OFFCURVE",
"520 56 CURVE SMOOTH",
"554.628 56 OFFCURVE",
"591.251 66.986 OFFCURVE",
"617 91 CURVE",
"635 36 LINE",
"594.881 4.603 OFFCURVE",
"553.618 -2 OFFCURVE",
"504 -2 CURVE SMOOTH",
"440.468 -2 OFFCURVE",
"382.234 26.515 OFFCURVE",
"346 79 CURVE",
"340.955 66.279 OFFCURVE",
"326.118 52.019 OFFCURVE",
"316.5 42.5 CURVE SMOOTH",
"284.478 10.806 OFFCURVE",
"240.473 -4 OFFCURVE",
"196 -4 CURVE SMOOTH",
"120.992 -4 OFFCURVE",
"41 38.896 OFFCURVE",
"41 123 CURVE SMOOTH",
"41 267.192 OFFCURVE",
"197.555 267 OFFCURVE",
"303 267 CURVE",
"303 352 LINE SMOOTH {name = hr00;}"
);
},
{
closed = 1;
nodes = (
"480.068 266 OFFCURVE",
"598 271.407 OFFCURVE",
"598 346 CURVE SMOOTH",
"598 396.942 OFFCURVE",
"554.931 423 OFFCURVE",
"508 423 CURVE SMOOTH {name = mh04;}",
"421.734 423 OFFCURVE",
"378.576 342.808 OFFCURVE",
"371 267 CURVE",
"389.672 266.998 OFFCURVE",
"408.324 266 OFFCURVE",
"427 266 CURVE SMOOTH"
);
},
{
closed = 1;
nodes = (
"107 82.676 OFFCURVE",
"148.898 54 OFFCURVE",
"196 54 CURVE SMOOTH",
"236.33 54 OFFCURVE",
"281.046 71.13 OFFCURVE",
"303 107 CURVE",
"303 211 LINE",
"270 211 LINE SMOOTH",
"214.008 211 OFFCURVE",
"107 212.155 OFFCURVE",
"107 133 CURVE SMOOTH"
);
}
);
width = 698;
},
{
layerId = "753CA70B-25C4-47AF-A15F-390B5E4CCE16";
paths = (
{
closed = 1;
nodes = (
"447.624 491 OFFCURVE",
"395.845 475.012 OFFCURVE",
"356 442 CURVE",
"322.06 477.925 OFFCURVE",
"271.018 491 OFFCURVE",
"223 491 CURVE SMOOTH",
"143.55 491 OFFCURVE",
"63.107 448.41 OFFCURVE",
"30 374 CURVE",
"154 320 LINE",
"180 394 LINE",
"189.269 397.352 OFFCURVE",
"199.314 397 OFFCURVE",
"209 397 CURVE SMOOTH",
"225.721 397 OFFCURVE",
"274 392.252 OFFCURVE",
"274 367 CURVE SMOOTH",
"274 288 LINE",
"176.885 285.344 OFFCURVE",
"29 251.557 OFFCURVE",
"29 129 CURVE SMOOTH",
"29 43.594 OFFCURVE",
"92.416 -4 OFFCURVE",
"174 -4 CURVE SMOOTH",
"232.851 -4 OFFCURVE",
"289.542 29.144 OFFCURVE",
"325 75 CURVE",
"368.141 21.099 OFFCURVE",
"435.208 -4 OFFCURVE",
"503 -4 CURVE SMOOTH",
"551.537 -4 OFFCURVE",
"633.388 16.321 OFFCURVE",
"666 56 CURVE",
"643 143 LINE",
"612.426 113.894 OFFCURVE",
"559.198 91 OFFCURVE",
"517 91 CURVE SMOOTH",
"449.472 91 OFFCURVE",
"410.529 133.303 OFFCURVE",
"402 198 CURVE",
"418.971 196.889 OFFCURVE",
"436.002 197 OFFCURVE",
"453 197 CURVE SMOOTH",
"558.661 197 OFFCURVE",
"667 228.292 OFFCURVE",
"667 354 CURVE SMOOTH",
"667 441.328 OFFCURVE",
"577.286 491 OFFCURVE",
"499 491 CURVE SMOOTH {name = hr00;}"
);
},
{
closed = 1;
nodes = (
"407.086 332.479 OFFCURVE",
"443.831 397 OFFCURVE",
"501 397 CURVE SMOOTH",
"529.633 397 OFFCURVE",
"546 377.983 OFFCURVE",
"546 350 CURVE SMOOTH",
"546 293.856 OFFCURVE",
"480.11 281 OFFCURVE",
"436 281 CURVE SMOOTH",
"425.026 281 OFFCURVE",
"413.921 280.736 OFFCURVE",
"403 282 CURVE"
);
},
{
closed = 1;
nodes = (
"170.709 92 OFFCURVE",
"153 111.139 OFFCURVE",
"153 138 CURVE SMOOTH",
"153 193.282 OFFCURVE",
"233.155 202.39 OFFCURVE",
"274 204 CURVE",
"274 140 LINE",
"262.082 111.081 OFFCURVE",
"228.526 92 OFFCURVE",
"198 92 CURVE SMOOTH"
);
}
);
width = 698;
}
);
leftKerningGroup = a;
rightKerningGroup = e;
unicode = 00E6;
userData = {
com.typemytype.robofont.mark = (
0.713,
0.6,
1,
1
);
};
},
{
glyphname = b;
lastChange = "2018-07-24 15:11:20 +0000";
layers = (
{
layerId = "1178ECA0-A987-4969-BD6E-681EE9C1B9C8";
paths = (
{
closed = 1;
nodes = (
"138 442 LINE",
"168.339 466.823 OFFCURVE",
"208.065 479 OFFCURVE",
"247 479 CURVE SMOOTH",
"382.009 479 OFFCURVE",
"442 363.111 OFFCURVE",
"442 242 CURVE SMOOTH",
"442 114.305 OFFCURVE",
"375.541 -4 OFFCURVE",
"235 -4 CURVE SMOOTH",
"197.617 -4 OFFCURVE",
"159.578 2.995 OFFCURVE",
"127 22 CURVE",
"104.705 6.393 OFFCURVE",
"103.065 0 OFFCURVE",
"75 0 CURVE",
"75 661 LINE",
"14 657 LINE",
"6 709 LINE",
"111 727 LINE {name = mh01;}",
"138 697 LINE {name = hr00;}"
);
},
{
closed = 1;
nodes = (
"339.152 53 OFFCURVE",
"376 144.809 OFFCURVE",
"376 237 CURVE SMOOTH",
"376 322.357 OFFCURVE",
"342.136 422 OFFCURVE",
"241 422 CURVE SMOOTH",
"204.673 422 OFFCURVE",
"157.47 402.982 OFFCURVE",
"138 371 CURVE",
"138 85 LINE",
"164.775 63.577 OFFCURVE",
"198.886 53 OFFCURVE",
"233 53 CURVE SMOOTH"
);
}
);
width = 484;
},
{
layerId = "753CA70B-25C4-47AF-A15F-390B5E4CCE16";
paths = (
{
closed = 1;
nodes = (
"1 716 LINE",
"150 736 LINE",
"184 701 LINE",
"184 472 LINE",
"211.292 485.63 OFFCURVE",
"240.686 491 OFFCURVE",
"271 491 CURVE SMOOTH {name = mh01;}",
"409.472 491 OFFCURVE",
"468 374.681 OFFCURVE",
"468 251 CURVE SMOOTH",
"468 106.757 OFFCURVE",
"401.83 -4 OFFCURVE",
"245 -4 CURVE SMOOTH",
"212.07 -4 OFFCURVE",
"178.29 1.234 OFFCURVE",
"149 17 CURVE",
"96 -4 LINE",
"64 23 LINE",
"64 651 LINE",
"12 648 LINE {name = hr00;}"
);
},
{
closed = 1;
nodes = (
"225.249 397 OFFCURVE",
"201.87 391.973 OFFCURVE",
"184 379 CURVE",
"184 103 LINE",
"199.021 93.078 OFFCURVE",
"227.162 90 OFFCURVE",
"245 90 CURVE SMOOTH",
"326.15 90 OFFCURVE",
"344 183.106 OFFCURVE",
"344 246 CURVE SMOOTH {name = mh03;}",
"344 308.597 OFFCURVE",
"327.164 397 OFFCURVE",
"247 397 CURVE SMOOTH"
);
}
);
width = 499;
}
);
rightKerningGroup = b;
unicode = 0062;
userData = {
com.typemytype.robofont.mark = (
0.713,
0.6,
1,
1
);
};
},
{
glyphname = c;
lastChange = "2018-07-24 15:11:20 +0000";
layers = (
{
layerId = "1178ECA0-A987-4969-BD6E-681EE9C1B9C8";
paths = (
{
closed = 1;
nodes = (
"280 420 LINE",
"268.303 422.89 OFFCURVE",
"255.937 422 OFFCURVE",
"244 422 CURVE SMOOTH",
"135.591 422 OFFCURVE",
"109 321.879 OFFCURVE",
"109 232 CURVE SMOOTH",
"109 133.559 OFFCURVE",
"148.472 53 OFFCURVE",
"258 53 CURVE SMOOTH",
"294.889 53 OFFCURVE",
"328.11 61.393 OFFCURVE",
"360 80 CURVE",
"377 31 LINE",
"340.845 3.187 OFFCURVE",
"292.516 -4 OFFCURVE",
"248 -4 CURVE SMOOTH",
"108.718 -4 OFFCURVE",
"43 104.52 OFFCURVE",
"43 233 CURVE SMOOTH",
"43 363.651 OFFCURVE",
"104.383 479 OFFCURVE",
"249 479 CURVE SMOOTH",
"293.057 479 OFFCURVE",
"346.874 468.581 OFFCURVE",
"383 442 CURVE",
"339 373 LINE {name = hr00;}"
);
}
);
width = 405;
},
{
layerId = "753CA70B-25C4-47AF-A15F-390B5E4CCE16";
paths = (
{
closed = 1;
nodes = (
"400.425 81.212 OFFCURVE",
"391.426 110.333 OFFCURVE",
"382 139 CURVE",
"350.542 110.926 OFFCURVE",
"313.18 91 OFFCURVE",
"270 91 CURVE SMOOTH",
"185.456 91 OFFCURVE",
"154 164.01 OFFCURVE",
"154 238 CURVE SMOOTH",
"154 299.08 OFFCURVE",
"171.706 397.16 OFFCURVE",
"251 397 CURVE",
"294 337 LINE",
"415 402 LINE",
"384.678 463.164 OFFCURVE",
"312.768 491 OFFCURVE",
"248 491 CURVE SMOOTH",
"95.647 491 OFFCURVE",
"30 373.16 OFFCURVE",
"30 233 CURVE SMOOTH",
"30 101.582 OFFCURVE",
"112.266 -4 OFFCURVE",
"249 -4 CURVE SMOOTH",
"305.064 -4 OFFCURVE",
"367.594 10.602 OFFCURVE",
"408 52 CURVE {name = hr00;}"
);
}
);
width = 431;
}
);
leftKerningGroup = o;
rightKerningGroup = c;
unicode = 0063;
userData = {
com.typemytype.robofont.mark = (
0.713,
0.6,
1,
1
);
};
},
{
glyphname = ccedilla;
lastChange = "2018-07-24 15:11:20 +0000";
layers = (
{
layerId = "1178ECA0-A987-4969-BD6E-681EE9C1B9C8";
paths = (
{
closed = 1;
nodes = (
"205 -60 LINE",
"225 -3 LINE",
"97.765 7.591 OFFCURVE",
"43 116.579 OFFCURVE",
"43 233 CURVE SMOOTH",
"43 363.671 OFFCURVE",
"104.401 479 OFFCURVE",
"249 479 CURVE SMOOTH",
"293.044 479 OFFCURVE",
"346.892 468.581 OFFCURVE",
"383 442 CURVE",
"339 373 LINE",
"280 420 LINE",
"268.303 422.89 OFFCURVE",
"255.937 422 OFFCURVE",
"244 422 CURVE SMOOTH",
"135.59 422 OFFCURVE",
"109 321.874 OFFCURVE",
"109 232 CURVE SMOOTH",
"109 133.499 OFFCURVE",
"148.513 53 OFFCURVE",
"258 53 CURVE SMOOTH",
"294.888 53 OFFCURVE",
"328.107 61.392 OFFCURVE",
"360 80 CURVE",
"377 31 LINE",
"348.125 9 OFFCURVE",
"311.747 -0.448 OFFCURVE",
"276 -3 CURVE",
"266 -32 LINE",
"309.989 -35.141 OFFCURVE",
"343 -67.339 OFFCURVE",
"343 -112 CURVE SMOOTH",
"343 -172.046 OFFCURVE",
"294.334 -196 OFFCURVE",
"241 -196 CURVE SMOOTH",
"208.59 -196 OFFCURVE",
"186.625 -187.52 OFFCURVE",
"157 -176 CURVE",
"188 -116 LINE",
"243 -150 LINE",
"265.596 -150.025 OFFCURVE",
"289 -138.466 OFFCURVE",
"289 -113 CURVE SMOOTH",
"289 -77.154 OFFCURVE",
"243.725 -73 OFFCURVE",
"218 -73 CURVE {name = hr00;}"
);
}
);
width = 406;
},
{
layerId = "753CA70B-25C4-47AF-A15F-390B5E4CCE16";
paths = (
{
closed = 1;
nodes = (
"374.818 17.819 OFFCURVE",
"326.21 1.719 OFFCURVE",
"279 -3 CURVE",
"267 -38 LINE",
"313.39 -48.592 OFFCURVE",
"343 -75.396 OFFCURVE",
"343 -125 CURVE SMOOTH",
"343 -195.306 OFFCURVE",
"275.779 -221 OFFCURVE",
"216 -221 CURVE SMOOTH",
"186.453 -221 OFFCURVE",
"152.261 -214.473 OFFCURVE",
"125 -203 CURVE",
"159 -129 LINE",
"214 -169 LINE",
"239.115 -167.307 OFFCURVE",
"266 -156.27 OFFCURVE",
"266 -127 CURVE SMOOTH",
"266 -86.545 OFFCURVE",
"229.549 -77.982 OFFCURVE",
"196 -78 CURVE",
"184 -62 LINE",
"205 0 LINE",
"88.088 24.801 OFFCURVE",
"31 118.385 OFFCURVE",
"31 233 CURVE SMOOTH",
"31 372.332 OFFCURVE",
"95.054 491 OFFCURVE",
"249 491 CURVE SMOOTH {name = mv01;}",
"319.951 491 OFFCURVE",
"378.659 463.754 OFFCURVE",
"416 402 CURVE",
"295 337 LINE",
"252 397 LINE",
"172.106 397.028 OFFCURVE",
"155 299.836 OFFCURVE",
"155 238 CURVE SMOOTH",
"155 163.441 OFFCURVE",
"185.777 91 OFFCURVE",
"271 91 CURVE SMOOTH",
"316.789 91 OFFCURVE",
"349.143 110.776 OFFCURVE",
"383 139 CURVE",
"391.233 110.283 OFFCURVE",
"399.634 80.304 OFFCURVE",
"409 52 CURVE {name = hr00;}"
);
}
);
width = 431;
}
);
leftKerningGroup = o;
rightKerningGroup = c;
unicode = 00E7;
userData = {
com.typemytype.robofont.mark = (
0.713,
0.6,
1,
1
);
};
},
{
glyphname = d;
lastChange = "2018-07-24 15:11:20 +0000";
layers = (
{
layerId = "1178ECA0-A987-4969-BD6E-681EE9C1B9C8";
paths = (
{
closed = 1;
nodes = (
"277 709 LINE",
"382 727 LINE {name = mh01;}",
"409 697 LINE",
"409 79 LINE SMOOTH",
"409 62.933 OFFCURVE",
"414.021 50 OFFCURVE",
"432 50 CURVE SMOOTH",
"439.217 50 OFFCURVE",
"446.366 52.349 OFFCURVE",
"453 55 CURVE",
"464 15 LINE",
"450.933 1.935 OFFCURVE",
"426.009 -4 OFFCURVE",
"408 -4 CURVE SMOOTH",
"379.229 -4 OFFCURVE",
"360.67 9.24 OFFCURVE",
"352 37 CURVE",
"321.158 8.836 OFFCURVE",
"281.394 -4 OFFCURVE",
"240 -4 CURVE SMOOTH",
"107.216 -4 OFFCURVE",
"42 115.22 OFFCURVE",
"42 235 CURVE SMOOTH",
"42 365.076 OFFCURVE",
"107.659 479 OFFCURVE",
"250 479 CURVE SMOOTH {name = mh02;}",
"283.517 479 OFFCURVE",
"315.306 472.636 OFFCURVE",
"346 459 CURVE",
"346 661 LINE",
"285 657 LINE {name = hr00;}"
);
},
{
closed = 1;
nodes = (
"148.455 422 OFFCURVE",
"108 332.191 OFFCURVE",
"108 239 CURVE SMOOTH",
"108 152.487 OFFCURVE",
"144.175 53 OFFCURVE",
"246 53 CURVE SMOOTH",
"284.839 53 OFFCURVE",
"324.702 70.71 OFFCURVE",
"346 104 CURVE",
"346 387 LINE",
"322.865 412.866 OFFCURVE",
"287.692 422 OFFCURVE",
"254 422 CURVE SMOOTH {name = mh03;}"
);
}
);
width = 495;
},
{
layerId = "753CA70B-25C4-47AF-A15F-390B5E4CCE16";
paths = (
{
closed = 1;
nodes = (
"314 478 LINE",
"291.448 487.045 OFFCURVE",
"267.242 491 OFFCURVE",
"243 491 CURVE SMOOTH",
"95.657 491 OFFCURVE",
"31 367.579 OFFCURVE",
"31 234 CURVE SMOOTH",
"31 116.119 OFFCURVE",
"87.778 -4 OFFCURVE",
"221 -4 CURVE SMOOTH",
"260.344 -4 OFFCURVE",
"300.59 7.196 OFFCURVE",
"327 38 CURVE",
"343.284 7.572 OFFCURVE",
"372.712 -4 OFFCURVE",
"406 -4 CURVE SMOOTH",
"439.85 -4 OFFCURVE",
"472.592 11.869 OFFCURVE",
"495 37 CURVE",
"476 89 LINE",
"469.537 85.622 OFFCURVE",
"461.309 83 OFFCURVE",
"454 83 CURVE SMOOTH",
"440.517 83 OFFCURVE",
"435 92.253 OFFCURVE",
"435 105 CURVE SMOOTH",
"435 700 LINE",
"400 737 LINE",
"252 716 LINE",
"263 648 LINE",
"314 648 LINE {name = hr00;}"
);
},
{
closed = 1;
nodes = (
"169.102 91 OFFCURVE",
"155 174.312 OFFCURVE",
"155 233 CURVE SMOOTH",
"155 299.598 OFFCURVE",
"168.929 398 OFFCURVE",
"255 398 CURVE SMOOTH",
"275.259 398 OFFCURVE",
"298.211 391.006 OFFCURVE",
"314 378 CURVE",
"314 140 LINE SMOOTH",
"314 114.105 OFFCURVE",
"266.224 91 OFFCURVE",
"244 91 CURVE SMOOTH"
);
}
);
width = 514;
}
);
leftKerningGroup = d;
unicode = 0064;
userData = {
com.typemytype.robofont.mark = (
0.713,
0.6,
1,
1
);
};
},
{
glyphname = eth;
lastChange = "2018-07-24 15:11:20 +0000";
layers = (
{
layerId = "1178ECA0-A987-4969-BD6E-681EE9C1B9C8";
paths = (
{
closed = 1;
nodes = (
"275 589 LINE",
"240.857 623.144 OFFCURVE",
"201.235 651.695 OFFCURVE",
"159 675 CURVE",
"188 728 LINE {name = av01;}",
"241.614 701.955 OFFCURVE",
"290.136 665.271 OFFCURVE",
"331 622 CURVE",
"450 692 LINE",
"483 633 LINE",
"370 574 LINE",
"429.264 491.94 OFFCURVE",
"459 399.088 OFFCURVE",
"459 298 CURVE SMOOTH {name = av02;}",
"459 162.834 OFFCURVE",
"418.851 -4 OFFCURVE",
"253 -4 CURVE SMOOTH",
"113.772 -4 OFFCURVE",
"43 100.456 OFFCURVE",
"43 231 CURVE SMOOTH",
"43 347.651 OFFCURVE",
"109.672 458 OFFCURVE",
"237 458 CURVE SMOOTH",
"289.004 458 OFFCURVE",
"337.938 445.821 OFFCURVE",
"378 411 CURVE",
"365.369 459.007 OFFCURVE",
"344.042 504.4 OFFCURVE",
"314 544 CURVE",
"197 482 LINE",
"169 528 LINE {name = hr00;}"
);
},
{
closed = 1;
nodes = (
"146.375 401 OFFCURVE",
"111 311.387 OFFCURVE",
"111 230 CURVE SMOOTH",
"111 143.026 OFFCURVE",
"148.402 53 OFFCURVE",
"249 53 CURVE SMOOTH",
"364.712 53 OFFCURVE",
"390 182.87 OFFCURVE",
"390 275 CURVE SMOOTH",
"390 350.548 OFFCURVE",
"309.166 401 OFFCURVE",
"241 401 CURVE SMOOTH"
);
}
);
width = 511;
},
{
layerId = "753CA70B-25C4-47AF-A15F-390B5E4CCE16";
paths = (
{
closed = 1;
nodes = (
"230.109 718.886 OFFCURVE",
"273.768 697.2 OFFCURVE",
"313 669 CURVE",
"396 735 LINE {name = mh01;}",
"462 633 LINE {name = mh02;}",
"399 595 LINE",
"468.663 519.532 OFFCURVE",
"510 429.567 OFFCURVE",
"510 326 CURVE SMOOTH",
"510 161.762 OFFCURVE",
"443.191 -4 OFFCURVE",
"254 -4 CURVE SMOOTH",
"126.611 -4 OFFCURVE",
"29 89.528 OFFCURVE",
"29 218 CURVE SMOOTH {name = mh03;}",
"29 343.088 OFFCURVE",
"100.736 455 OFFCURVE",
"236 455 CURVE SMOOTH",
"284.655 455 OFFCURVE",
"332.879 442.293 OFFCURVE",
"369 408 CURVE",
"352.174 454.602 OFFCURVE",
"321.113 494.693 OFFCURVE",
"283 526 CURVE {name = mv01;}",
"170 459 LINE",
"133 526 LINE {name = mh04;}",
"203 582 LINE",
"180.348 594.461 OFFCURVE",
"156.743 604.822 OFFCURVE",
"133 615 CURVE",
"185 736 LINE {name = hr00;}"
);
},
{
closed = 1;
nodes = (
"343.766 101 OFFCURVE",
"381 182.186 OFFCURVE",
"381 254 CURVE SMOOTH",
"381 311.673 OFFCURVE",
"320.367 356 OFFCURVE",
"267 356 CURVE SMOOTH",
"187.931 356 OFFCURVE",
"155 297.468 OFFCURVE",
"155 225 CURVE SMOOTH",
"155 164.657 OFFCURVE",
"198.011 101 OFFCURVE",
"263 101 CURVE SMOOTH"
);
}
);
width = 545;
}
);
unicode = 00F0;
userData = {
com.typemytype.robofont.mark = (
0.713,
0.6,
1,
1
);
};
},
{
glyphname = e;
lastChange = "2018-07-24 15:11:20 +0000";
layers = (
{
layerId = "1178ECA0-A987-4969-BD6E-681EE9C1B9C8";
paths = (
{
closed = 1;
nodes = (
"304.678 52 OFFCURVE",
"348.021 63.629 OFFCURVE",
"381 88 CURVE",
"398 34 LINE",
"358.271 5.229 OFFCURVE",
"307.207 -4 OFFCURVE",
"259 -4 CURVE SMOOTH",
"117.318 -4 OFFCURVE",
"42 97.04 OFFCURVE",
"42 232 CURVE SMOOTH",
"42 359.558 OFFCURVE",
"112.199 479 OFFCURVE",
"252 479 CURVE SMOOTH {name = mh01;}",
"330.632 479 OFFCURVE",
"401 432.374 OFFCURVE",
"401 348 CURVE SMOOTH",
"401 199.606 OFFCURVE",
"222.35 185.002 OFFCURVE",
"111 185 CURVE",
"125.572 100.407 OFFCURVE",
"177.097 52 OFFCURVE",
"264 52 CURVE SMOOTH {name = hr00;}"
);
},
{
closed = 1;
nodes = (
"197.044 244 OFFCURVE",
"335 247.205 OFFCURVE",
"335 348 CURVE SMOOTH",
"335 396.89 OFFCURVE",
"296.624 422 OFFCURVE",
"251 422 CURVE SMOOTH {name = mh02;}",
"153.803 422 OFFCURVE",
"110.363 329.162 OFFCURVE",
"108 244 CURVE",
"125 244 LINE SMOOTH"
);
}
);
width = 443;
},
{
layerId = "753CA70B-25C4-47AF-A15F-390B5E4CCE16";
paths = (
{
closed = 1;
nodes = (
"336.404 491 OFFCURVE",
"424 448.064 OFFCURVE",
"424 354 CURVE SMOOTH",
"424 213.601 OFFCURVE",
"265.508 188.083 OFFCURVE",
"156 198 CURVE",
"165.152 127.758 OFFCURVE",
"205.942 91 OFFCURVE",
"277 91 CURVE SMOOTH",
"327.653 91 OFFCURVE",
"360.632 108.669 OFFCURVE",
"397 143 CURVE",
"420 56 LINE",
"387.551 14.521 OFFCURVE",
"307.182 -4 OFFCURVE",
"257 -4 CURVE SMOOTH",
"115.743 -4 OFFCURVE",
"30 103.592 OFFCURVE",
"30 239 CURVE SMOOTH",
"30 373.43 OFFCURVE",
"108.366 491 OFFCURVE",
"253 491 CURVE SMOOTH {name = hr00;}"
);
},
{
closed = 1;
nodes = (
"161.909 281.039 OFFCURVE",
"167.018 281 OFFCURVE",
"172 281 CURVE SMOOTH",
"190 281 LINE SMOOTH",
"233.987 281 OFFCURVE",
"301 294.08 OFFCURVE",
"301 350 CURVE SMOOTH",
"301 378.715 OFFCURVE",
"283.839 396 OFFCURVE",
"255 396 CURVE SMOOTH",
"197.28 396 OFFCURVE",
"161.43 332.955 OFFCURVE",
"157 282 CURVE"
);
}
);
width = 454;
}
);
leftKerningGroup = o;
rightKerningGroup = e;
unicode = 0065;
userData = {
com.typemytype.robofont.mark = (
0.713,
0.6,
1,
1
);
};
},
{
glyphname = eacute;
lastChange = "2018-07-24 15:11:20 +0000";
layers = (
{
layerId = "1178ECA0-A987-4969-BD6E-681EE9C1B9C8";
paths = (
{
closed = 1;
nodes = (
"304.678 52 OFFCURVE",
"348.021 63.629 OFFCURVE",
"381 88 CURVE",
"398 34 LINE",
"358.271 5.229 OFFCURVE",
"307.207 -4 OFFCURVE",
"259 -4 CURVE SMOOTH",
"117.318 -4 OFFCURVE",
"42 97.04 OFFCURVE",
"42 232 CURVE SMOOTH",
"42 359.558 OFFCURVE",
"112.199 479 OFFCURVE",
"252 479 CURVE SMOOTH {name = mh01;}",
"330.632 479 OFFCURVE",
"401 432.374 OFFCURVE",
"401 348 CURVE SMOOTH",
"401 199.606 OFFCURVE",
"222.35 185.002 OFFCURVE",
"111 185 CURVE",
"125.572 100.407 OFFCURVE",
"177.097 52 OFFCURVE",
"264 52 CURVE SMOOTH {name = hr00;}"
);
},
{
closed = 1;
nodes = (
"197.044 244 OFFCURVE",
"335 247.205 OFFCURVE",
"335 348 CURVE SMOOTH",
"335 396.89 OFFCURVE",
"296.624 422 OFFCURVE",
"251 422 CURVE SMOOTH",
"153.803 422 OFFCURVE",
"110.363 329.162 OFFCURVE",
"108 244 CURVE",
"125 244 LINE SMOOTH"
);
},
{
closed = 1;
nodes = (
"281 725 LINE {name = mh02;}",
"308 725 LINE",
"352 673 LINE",
"212 553 LINE",
"177 586 LINE"
);
}
);
width = 443;
},
{
layerId = "753CA70B-25C4-47AF-A15F-390B5E4CCE16";
paths = (
{
closed = 1;
nodes = (
"336.404 491 OFFCURVE",
"424 448.064 OFFCURVE",
"424 354 CURVE SMOOTH",
"424 213.601 OFFCURVE",
"265.508 188.083 OFFCURVE",
"156 198 CURVE",
"165.152 127.758 OFFCURVE",
"205.942 91 OFFCURVE",
"277 91 CURVE SMOOTH",
"327.653 91 OFFCURVE",
"360.632 108.669 OFFCURVE",
"397 143 CURVE",
"420 56 LINE",
"387.551 14.521 OFFCURVE",
"307.182 -4 OFFCURVE",
"257 -4 CURVE SMOOTH",
"115.743 -4 OFFCURVE",
"30 103.592 OFFCURVE",
"30 239 CURVE SMOOTH",
"30 373.43 OFFCURVE",
"108.366 491 OFFCURVE",
"253 491 CURVE SMOOTH {name = hr00;}"
);
},
{
closed = 1;
nodes = (
"261 722 LINE",
"297 736 LINE",
"374 630 LINE",
"181 509 LINE",
"135 561 LINE"
);
},
{
closed = 1;
nodes = (
"161.909 281.039 OFFCURVE",
"167.018 281 OFFCURVE",
"172 281 CURVE SMOOTH",
"190 281 LINE SMOOTH",
"233.987 281 OFFCURVE",
"301 294.08 OFFCURVE",
"301 350 CURVE SMOOTH",
"301 378.715 OFFCURVE",
"283.839 396 OFFCURVE",
"255 396 CURVE SMOOTH",
"197.28 396 OFFCURVE",
"161.43 332.955 OFFCURVE",
"157 282 CURVE"
);
}
);
width = 454;
}
);
leftKerningGroup = o;
rightKerningGroup = e;
unicode = 00E9;
userData = {
com.typemytype.robofont.mark = (
0.713,
0.6,
1,
1
);
};
},
{
glyphname = ecircumflex;
lastChange = "2018-07-24 15:11:20 +0000";
layers = (
{
layerId = "1178ECA0-A987-4969-BD6E-681EE9C1B9C8";
paths = (
{
closed = 1;
nodes = (
"236 691 LINE {name = mh01;}",
"252 691 LINE",
"368 550 LINE",
"365 544 LINE",
"310 544 LINE",
"244 602 LINE",
"178 544 LINE {name = hr01;}",
"124 544 LINE",
"120 548 LINE {name = hr00;}"
);
},
{
closed = 1;
nodes = (
"304.678 52 OFFCURVE",
"348.021 63.629 OFFCURVE",
"381 88 CURVE",
"398 34 LINE",
"358.271 5.229 OFFCURVE",
"307.207 -4 OFFCURVE",
"259 -4 CURVE SMOOTH",
"117.318 -4 OFFCURVE",
"42 97.04 OFFCURVE",
"42 232 CURVE SMOOTH",
"42 359.558 OFFCURVE",
"112.199 479 OFFCURVE",
"252 479 CURVE SMOOTH {name = mh02;}",
"330.632 479 OFFCURVE",
"401 432.374 OFFCURVE",
"401 348 CURVE SMOOTH",
"401 199.606 OFFCURVE",
"222.35 185.002 OFFCURVE",
"111 185 CURVE",
"125.572 100.407 OFFCURVE",
"177.097 52 OFFCURVE",
"264 52 CURVE SMOOTH"
);
},
{
closed = 1;
nodes = (
"197.044 244 OFFCURVE",
"335 247.205 OFFCURVE",
"335 348 CURVE SMOOTH",
"335 396.89 OFFCURVE",
"296.624 422 OFFCURVE",
"251 422 CURVE SMOOTH",
"153.803 422 OFFCURVE",
"110.363 329.162 OFFCURVE",
"108 244 CURVE",
"125 244 LINE SMOOTH"
);
}
);
width = 443;
},
{
layerId = "753CA70B-25C4-47AF-A15F-390B5E4CCE16";
paths = (
{
closed = 1;
nodes = (
"336.404 491 OFFCURVE",
"424 448.064 OFFCURVE",
"424 354 CURVE SMOOTH",
"424 213.601 OFFCURVE",
"265.508 188.083 OFFCURVE",
"156 198 CURVE",
"165.152 127.758 OFFCURVE",
"205.942 91 OFFCURVE",
"277 91 CURVE SMOOTH",
"327.653 91 OFFCURVE",
"360.632 108.669 OFFCURVE",
"397 143 CURVE",
"420 56 LINE",
"387.551 14.521 OFFCURVE",
"307.182 -4 OFFCURVE",
"257 -4 CURVE SMOOTH",
"115.743 -4 OFFCURVE",
"30 103.592 OFFCURVE",
"30 239 CURVE SMOOTH",
"30 373.43 OFFCURVE",
"108.366 491 OFFCURVE",
"253 491 CURVE SMOOTH {name = hr00;}"
);
},
{
closed = 1;
nodes = (
"236 700 LINE",
"269 700 LINE",
"403 540 LINE",
"397 529 LINE",
"319 529 LINE",
"252 581 LINE",
"185 529 LINE",
"108 529 LINE",
"103 541 LINE"
);
},
{
closed = 1;
nodes = (
"161.909 281.039 OFFCURVE",
"167.018 281 OFFCURVE",
"172 281 CURVE SMOOTH",
"190 281 LINE SMOOTH",
"233.987 281 OFFCURVE",
"301 294.08 OFFCURVE",
"301 350 CURVE SMOOTH",
"301 378.715 OFFCURVE",
"283.839 396 OFFCURVE",
"255 396 CURVE SMOOTH",
"197.28 396 OFFCURVE",
"161.43 332.955 OFFCURVE",
"157 282 CURVE"
);
}
);
width = 454;
}
);
leftKerningGroup = o;
rightKerningGroup = e;
unicode = 00EA;
userData = {
com.typemytype.robofont.mark = (
0.713,
0.6,
1,
1
);
};
},
{
glyphname = edieresis;
lastChange = "2018-07-24 15:11:20 +0000";
layers = (
{
layerId = "1178ECA0-A987-4969-BD6E-681EE9C1B9C8";
paths = (
{
closed = 1;
nodes = (
"122 646.501 OFFCURVE",
"143.57 668 OFFCURVE",
"171 668 CURVE SMOOTH {name = mh01;}",
"197.301 668 OFFCURVE",
"219 644.965 OFFCURVE",
"219 619 CURVE SMOOTH",
"219 593.604 OFFCURVE",
"196.659 570 OFFCURVE",
"171 570 CURVE SMOOTH",
"144.145 570 OFFCURVE",
"122 592.089 OFFCURVE",
"122 619 CURVE SMOOTH {name = hr00;}"
);
},
{
closed = 1;
nodes = (
"262 646.316 OFFCURVE",
"282.412 668 OFFCURVE",
"310 668 CURVE SMOOTH {name = mh02;}",
"336.394 668 OFFCURVE",
"357 644.773 OFFCURVE",
"357 619 CURVE SMOOTH",
"357 593.819 OFFCURVE",
"335.71 570 OFFCURVE",
"310 570 CURVE SMOOTH",
"282.993 570 OFFCURVE",
"262 592.222 OFFCURVE",
"262 619 CURVE SMOOTH"
);
},
{
closed = 1;
nodes = (
"304.678 52 OFFCURVE",
"348.021 63.629 OFFCURVE",
"381 88 CURVE",
"398 34 LINE",
"358.271 5.229 OFFCURVE",
"307.207 -4 OFFCURVE",
"259 -4 CURVE SMOOTH",
"117.318 -4 OFFCURVE",
"42 97.04 OFFCURVE",
"42 232 CURVE SMOOTH {name = mh03;}",
"42 359.558 OFFCURVE",
"112.199 479 OFFCURVE",
"252 479 CURVE SMOOTH {name = mh04;}",
"330.632 479 OFFCURVE",
"401 432.374 OFFCURVE",
"401 348 CURVE SMOOTH {name = mh05;}",
"401 199.606 OFFCURVE",
"222.35 185.002 OFFCURVE",
"111 185 CURVE",
"125.572 100.407 OFFCURVE",
"177.097 52 OFFCURVE",
"264 52 CURVE SMOOTH"
);
},
{
closed = 1;
nodes = (
"197.044 244 OFFCURVE",
"335 247.205 OFFCURVE",
"335 348 CURVE SMOOTH",
"335 396.89 OFFCURVE",
"296.624 422 OFFCURVE",
"251 422 CURVE SMOOTH",
"153.803 422 OFFCURVE",
"110.363 329.162 OFFCURVE",
"108 244 CURVE",
"125 244 LINE SMOOTH"
);
}
);
width = 443;
},
{
layerId = "753CA70B-25C4-47AF-A15F-390B5E4CCE16";
paths = (
{
closed = 1;
nodes = (
"336.404 491 OFFCURVE",
"424 448.064 OFFCURVE",
"424 354 CURVE SMOOTH",
"424 213.601 OFFCURVE",
"265.508 188.083 OFFCURVE",
"156 198 CURVE",
"165.152 127.758 OFFCURVE",
"205.942 91 OFFCURVE",
"277 91 CURVE SMOOTH",
"327.653 91 OFFCURVE",
"360.632 108.669 OFFCURVE",
"397 143 CURVE",
"420 56 LINE",
"387.551 14.521 OFFCURVE",
"307.182 -4 OFFCURVE",
"257 -4 CURVE SMOOTH",
"115.743 -4 OFFCURVE",
"30 103.592 OFFCURVE",
"30 239 CURVE SMOOTH",
"30 373.43 OFFCURVE",
"108.366 491 OFFCURVE",
"253 491 CURVE SMOOTH {name = hr00;}"
);
},
{
closed = 1;
nodes = (
"263 668.818 OFFCURVE",
"290.182 696 OFFCURVE",
"325 696 CURVE SMOOTH",
"359.818 696 OFFCURVE",
"387 668.818 OFFCURVE",
"387 634 CURVE SMOOTH",
"387 599.182 OFFCURVE",
"359.818 572 OFFCURVE",
"325 572 CURVE SMOOTH",
"290.182 572 OFFCURVE",
"263 599.182 OFFCURVE",
"263 634 CURVE SMOOTH"
);
},
{
closed = 1;
nodes = (
"102 668.818 OFFCURVE",
"129.182 696 OFFCURVE",
"164 696 CURVE SMOOTH",
"198.818 696 OFFCURVE",
"226 668.818 OFFCURVE",
"226 634 CURVE SMOOTH",
"226 599.182 OFFCURVE",
"198.818 572 OFFCURVE",
"164 572 CURVE SMOOTH",
"129.182 572 OFFCURVE",
"102 599.182 OFFCURVE",
"102 634 CURVE SMOOTH"
);
},
{
closed = 1;
nodes = (
"161.909 281.039 OFFCURVE",
"167.018 281 OFFCURVE",
"172 281 CURVE SMOOTH",
"190 281 LINE SMOOTH",
"233.987 281 OFFCURVE",
"301 294.08 OFFCURVE",
"301 350 CURVE SMOOTH",
"301 378.715 OFFCURVE",
"283.839 396 OFFCURVE",
"255 396 CURVE SMOOTH",
"197.28 396 OFFCURVE",
"161.43 332.955 OFFCURVE",
"157 282 CURVE"
);
}
);
width = 454;
}
);
leftKerningGroup = o;
rightKerningGroup = e;
unicode = 00EB;
userData = {
com.typemytype.robofont.mark = (
0.713,
0.6,
1,
1
);
};
},
{
glyphname = egrave;
lastChange = "2018-07-24 15:11:20 +0000";
layers = (
{
layerId = "1178ECA0-A987-4969-BD6E-681EE9C1B9C8";
paths = (
{
closed = 1;
nodes = (
"304.678 52 OFFCURVE",
"348.021 63.629 OFFCURVE",
"381 88 CURVE",
"398 34 LINE",
"358.271 5.229 OFFCURVE",
"307.207 -4 OFFCURVE",
"259 -4 CURVE SMOOTH",
"117.318 -4 OFFCURVE",
"42 97.04 OFFCURVE",
"42 232 CURVE SMOOTH",
"42 359.558 OFFCURVE",
"112.199 479 OFFCURVE",
"252 479 CURVE SMOOTH {name = mh01;}",
"330.632 479 OFFCURVE",
"401 432.374 OFFCURVE",
"401 348 CURVE SMOOTH",
"401 199.606 OFFCURVE",
"222.35 185.002 OFFCURVE",
"111 185 CURVE",
"125.572 100.407 OFFCURVE",
"177.097 52 OFFCURVE",
"264 52 CURVE SMOOTH {name = hr00;}"
);
},
{
closed = 1;
nodes = (
"197.044 244 OFFCURVE",
"335 247.205 OFFCURVE",
"335 348 CURVE SMOOTH",
"335 396.89 OFFCURVE",
"296.624 422 OFFCURVE",
"251 422 CURVE SMOOTH",
"153.803 422 OFFCURVE",
"110.363 329.162 OFFCURVE",
"108 244 CURVE",
"125 244 LINE SMOOTH"
);
},
{
closed = 1;
nodes = (
"129 673 LINE",
"173 726 LINE {name = mh02;}",
"199 726 LINE",
"303 586 LINE",
"269 553 LINE"
);
}
);
width = 443;
},
{
layerId = "753CA70B-25C4-47AF-A15F-390B5E4CCE16";
paths = (
{
closed = 1;
nodes = (
"108.366 491 OFFCURVE",
"30 373.43 OFFCURVE",
"30 239 CURVE SMOOTH",
"30 103.592 OFFCURVE",
"115.743 -4 OFFCURVE",
"257 -4 CURVE SMOOTH",
"307.182 -4 OFFCURVE",
"387.551 14.521 OFFCURVE",
"420 56 CURVE",
"397 143 LINE",
"360.632 108.669 OFFCURVE",
"327.653 91 OFFCURVE",
"277 91 CURVE SMOOTH",
"205.942 91 OFFCURVE",
"165.152 127.758 OFFCURVE",
"156 198 CURVE",
"172.939 196.466 OFFCURVE",
"190.016 197 OFFCURVE",
"207 197 CURVE SMOOTH",
"307.588 197 OFFCURVE",
"424 233.929 OFFCURVE",
"424 354 CURVE SMOOTH",
"424 448.064 OFFCURVE",
"336.404 491 OFFCURVE",
"253 491 CURVE SMOOTH {name = hr00;}"
);
},
{
closed = 1;
nodes = (
"102 630 LINE",
"179 736 LINE",
"215 722 LINE",
"341 561 LINE",
"295 509 LINE"
);
},
{
closed = 1;
nodes = (
"161.43 332.955 OFFCURVE",
"197.28 396 OFFCURVE",
"255 396 CURVE SMOOTH",
"283.839 396 OFFCURVE",
"301 378.715 OFFCURVE",
"301 350 CURVE SMOOTH",
"301 294.08 OFFCURVE",
"233.987 281 OFFCURVE",
"190 281 CURVE SMOOTH",
"172 281 LINE SMOOTH",
"167.018 281 OFFCURVE",
"161.909 281.039 OFFCURVE",
"157 282 CURVE"
);
}
);
width = 454;
}
);
leftKerningGroup = o;
rightKerningGroup = e;
unicode = 00E8;
userData = {
com.typemytype.robofont.mark = (
0.713,
0.6,
1,
1
);
};
},
{
glyphname = f;
lastChange = "2018-07-24 15:11:20 +0000";
layers = (
{
layerId = "1178ECA0-A987-4969-BD6E-681EE9C1B9C8";
paths = (
{
closed = 1;
nodes = (
"24 468 LINE",
"31 479 LINE",
"101 479 LINE",
"101 583.366 OFFCURVE",
"75.908 727 OFFCURVE",
"223 727 CURVE SMOOTH {name = mh01;}",
"263.051 727 OFFCURVE",
"301.177 710.294 OFFCURVE",
"335 690 CURVE",
"286 622 LINE",
"230 670 LINE",
"223.972 669.993 OFFCURVE",
"218.028 671 OFFCURVE",
"212 671 CURVE SMOOTH {name = mh02;}",
"171.672 671 OFFCURVE",
"164 642.396 OFFCURVE",
"164 608 CURVE SMOOTH",
"164 479 LINE",
"274 479 LINE SMOOTH",
"283.704 479 OFFCURVE",
"279 431.306 OFFCURVE",
"279 422 CURVE",
"164 422 LINE",
"164 61 LINE",
"274 45 LINE",
"274 0 LINE",
"50 0 LINE",
"42 44 LINE",
"101 58 LINE",
"101 422 LINE",
"38 422 LINE {name = hr00;}"
);
}
);
width = 311;
},
{
layerId = "753CA70B-25C4-47AF-A15F-390B5E4CCE16";
paths = (
{
closed = 1;
nodes = (
"220 74 LINE",
"316 63 LINE",
"316 41.993 OFFCURVE",
"315.021 21.002 OFFCURVE",
"315 0 CURVE",
"59 0 LINE",
"45 63 LINE {name = mh01;}",
"99 76 LINE",
"99 400 LINE",
"27 400 LINE",
"12 481 LINE",
"19 491 LINE",
"100 491 LINE",
"100 537.73 OFFCURVE",
"97.156 586.272 OFFCURVE",
"113.5 631 CURVE SMOOTH",
"138.202 698.602 OFFCURVE",
"188.795 734 OFFCURVE",
"261 734 CURVE SMOOTH {name = mh02;}",
"321.851 734 OFFCURVE",
"378.83 701.855 OFFCURVE",
"414 653 CURVE",
"300 584 LINE",
"260 639 LINE {name = mh03;}",
"228.802 639.039 OFFCURVE",
"220 620.536 OFFCURVE",
"220 592 CURVE SMOOTH",
"220 491 LINE",
"241.084 491 OFFCURVE",
"339 498.258 OFFCURVE",
"339 485 CURVE SMOOTH",
"339 400 LINE",
"220 400 LINE {name = hr00;}"
);
}
);
width = 359;
}
);
unicode = 0066;
userData = {
com.typemytype.robofont.mark = (
0.713,
0.6,
1,
1
);
};
},
{
glyphname = g;
lastChange = "2018-07-24 15:11:20 +0000";
layers = (
{
layerId = "1178ECA0-A987-4969-BD6E-681EE9C1B9C8";
paths = (
{
closed = 1;
nodes = (
"269.223 479 OFFCURVE",
"312.939 466.75 OFFCURVE",
"346 438 CURVE",
"437 483 LINE",
"456 480 LINE",
"466 412 LINE",
"379 401 LINE",
"397.671 372.273 OFFCURVE",
"406 338.041 OFFCURVE",
"406 304 CURVE SMOOTH",
"406 199.569 OFFCURVE",
"329.176 128 OFFCURVE",
"226 128 CURVE SMOOTH",
"208.517 128 OFFCURVE",
"190.981 129.756 OFFCURVE",
"174 134 CURVE",
"153 103 LINE",
"156 82 LINE",
"180.786 74.918 OFFCURVE",
"205.965 66.975 OFFCURVE",
"231 61 CURVE SMOOTH",
"319.186 39.955 OFFCURVE",
"421 17.734 OFFCURVE",
"421 -94 CURVE SMOOTH",
"421 -207.948 OFFCURVE",
"320.405 -265 OFFCURVE",
"217 -265 CURVE SMOOTH",
"121.194 -265 OFFCURVE",
"22 -211.831 OFFCURVE",
"22 -105 CURVE SMOOTH",
"22 -44.592 OFFCURVE",
"60.382 5.764 OFFCURVE",
"114 31 CURVE",
"93.163 44.878 OFFCURVE",
"81 61.356 OFFCURVE",
"81 87 CURVE SMOOTH",
"81 115.334 OFFCURVE",
"99.495 139.172 OFFCURVE",
"118 159 CURVE",
"69.576 192.746 OFFCURVE",
"47 244.924 OFFCURVE",
"47 303 CURVE SMOOTH",
"47 407.991 OFFCURVE",
"121.882 479 OFFCURVE",
"226 479 CURVE SMOOTH {name = hr00;}"
);
},
{
closed = 1;
nodes = (
"85 -169.702 OFFCURVE",
"162.98 -202 OFFCURVE",
"220 -202 CURVE SMOOTH",
"278.372 -202 OFFCURVE",
"364 -172.244 OFFCURVE",
"364 -102 CURVE SMOOTH",
"364 -20.994 OFFCURVE",
"237.086 -9.248 OFFCURVE",
"178 6 CURVE",
"129.245 -11.128 OFFCURVE",
"85 -47.527 OFFCURVE",
"85 -103 CURVE SMOOTH"
);
},
{
closed = 1;
nodes = (
"154.992 422 OFFCURVE",
"113 373.601 OFFCURVE",
"113 304 CURVE SMOOTH",
"113 234.545 OFFCURVE",
"154.809 185 OFFCURVE",
"226 185 CURVE SMOOTH",
"297.03 185 OFFCURVE",
"340 234.372 OFFCURVE",
"340 304 CURVE SMOOTH",
"340 373.772 OFFCURVE",
"296.846 422 OFFCURVE",
"226 422 CURVE SMOOTH"
);
}
);
width = 476;
},
{
layerId = "753CA70B-25C4-47AF-A15F-390B5E4CCE16";
paths = (
{
closed = 1;
nodes = (
"278.091 491 OFFCURVE",
"324.487 476.401 OFFCURVE",
"361 448 CURVE",
"470 503 LINE",
"493 500 LINE",
"504 401 LINE {name = hr01;}",
"411 390 LINE",
"425.256 362.91 OFFCURVE",
"432 332.528 OFFCURVE",
"432 302 CURVE SMOOTH",
"432 220.345 OFFCURVE",
"382.639 156.818 OFFCURVE",
"305 133 CURVE SMOOTH",
"276.765 124.338 OFFCURVE",
"235.308 118.109 OFFCURVE",
"206 123 CURVE",
"188 96 LINE",
"190 82 LINE",
"282.907 63.002 OFFCURVE",
"449 49.341 OFFCURVE",
"449 -81 CURVE SMOOTH",
"449 -210.896 OFFCURVE",
"330.823 -272 OFFCURVE",
"215 -272 CURVE SMOOTH",
"124.624 -272 OFFCURVE",
"22 -227.396 OFFCURVE",
"22 -123 CURVE SMOOTH",
"22 -65.156 OFFCURVE",
"49.786 -23.218 OFFCURVE",
"99 6 CURVE",
"82.122 24.276 OFFCURVE",
"75 48.467 OFFCURVE",
"75 73 CURVE SMOOTH",
"75 105.204 OFFCURVE",
"88.648 133.108 OFFCURVE",
"112 155 CURVE",
"59.013 188.302 OFFCURVE",
"33 240.115 OFFCURVE",
"33 302 CURVE SMOOTH",
"33 413.376 OFFCURVE",
"123.648 491 OFFCURVE",
"232 491 CURVE SMOOTH {name = hr00;}"
);
},
{
closed = 1;
nodes = (
"180.093 397 OFFCURVE",
"157 353.93 OFFCURVE",
"157 307 CURVE SMOOTH",
"157 259.399 OFFCURVE",
"179.233 216 OFFCURVE",
"232 216 CURVE SMOOTH {name = hr02;}",
"285.424 216 OFFCURVE",
"308 258.479 OFFCURVE",
"308 307 CURVE SMOOTH",
"308 354.688 OFFCURVE",
"284.439 397 OFFCURVE",
"232 397 CURVE SMOOTH"
);
},
{
closed = 1;
nodes = (
"353 -86.535 OFFCURVE",
"345.169 -79.601 OFFCURVE",
"335.5 -75 CURVE SMOOTH",
"285.137 -51.035 OFFCURVE",
"223.197 -51.732 OFFCURVE",
"170 -34 CURVE",
"148.744 -47.519 OFFCURVE",
"131 -66.188 OFFCURVE",
"131 -93 CURVE SMOOTH",
"131 -143.887 OFFCURVE",
"204.439 -152 OFFCURVE",
"242 -152 CURVE SMOOTH",
"272.744 -152 OFFCURVE",
"353 -139.425 OFFCURVE",
"353 -98 CURVE SMOOTH"
);
}
);
width = 503;
}
);
unicode = 0067;
userData = {
com.typemytype.robofont.mark = (
0.713,
0.6,
1,
1
);
};
},
{
glyphname = h;
lastChange = "2018-07-24 15:11:20 +0000";
layers = (
{
layerId = "1178ECA0-A987-4969-BD6E-681EE9C1B9C8";
paths = (
{
closed = 1;
nodes = (
"151 441 LINE",
"185.975 465.214 OFFCURVE",
"228.404 479 OFFCURVE",
"271 479 CURVE SMOOTH",
"365.323 479 OFFCURVE",
"414 427.617 OFFCURVE",
"414 334 CURVE SMOOTH",
"414 58 LINE",
"475 44 LINE",
"475 0 LINE",
"295 0 LINE",
"291 44 LINE",
"351 58 LINE",
"351 327 LINE SMOOTH",
"351 384.644 OFFCURVE",
"327.228 422 OFFCURVE",
"266 422 CURVE SMOOTH",
"224.477 422 OFFCURVE",
"182.339 406.251 OFFCURVE",
"151 379 CURVE",
"151 58 LINE",
"207 45 LINE",
"207 0 LINE",
"35 0 LINE",
"30 44 LINE",
"88 58 LINE",
"88 661 LINE",
"33 661 LINE",
"24 710 LINE",
"122 727 LINE {name = mh01;}",
"151 697 LINE {name = hr00;}"
);
}
);
width = 498;
},
{
layerId = "753CA70B-25C4-47AF-A15F-390B5E4CCE16";
paths = (
{
closed = 1;
nodes = (
"350 371.614 OFFCURVE",
"328.771 393 OFFCURVE",
"288 393 CURVE SMOOTH {name = mv02;}",
"261.666 393 OFFCURVE",
"217.441 377.499 OFFCURVE",
"201 356 CURVE {name = mh01;}",
"201 75 LINE",
"258 64 LINE",
"258 42.66 OFFCURVE",
"257.012 21.335 OFFCURVE",
"257 0 CURVE",
"35 0 LINE",
"23 64 LINE {name = mh02;}",
"80 77 LINE",
"80 648 LINE {name = mh03;}",
"28 648 LINE",
"18 716 LINE {name = mh04;}",
"166 737 LINE",
"201 700 LINE {name = mh05;}",
"201 455 LINE",
"231.666 477.588 OFFCURVE",
"279.151 491 OFFCURVE",
"317 491 CURVE SMOOTH {name = mh06;}",
"399.732 491 OFFCURVE",
"471 449.225 OFFCURVE",
"471 359 CURVE SMOOTH {name = mh07;}",
"471 76 LINE",
"526 64 LINE {name = mh08;}",
"526 42.66 OFFCURVE",
"525.012 21.335 OFFCURVE",
"525 0 CURVE",
"300 0 LINE",
"300 64 LINE",
"350 75 LINE {name = mv03;}",
"350 331 LINE SMOOTH {name = hr00;}"
);
}
);
width = 547;
}
);
leftKerningGroup = h;
rightKerningGroup = n;
unicode = 0068;
userData = {
com.typemytype.robofont.mark = (
0.713,
0.6,
1,
1
);
};
},
{
glyphname = i;
lastChange = "2018-07-24 15:11:20 +0000";
layers = (
{
layerId = "1178ECA0-A987-4969-BD6E-681EE9C1B9C8";
paths = (
{
closed = 1;
nodes = (
"160 59 LINE",
"221 44 LINE",
"221 0 LINE",
"46 0 LINE",
"37 43 LINE",
"97 58 LINE",
"97 416 LINE",
"43 412 LINE",
"34 463 LINE",
"133 481 LINE {name = mh01;}",
"160 451 LINE {name = hr00;}"
);
},
{
closed = 1;
nodes = (
"59 700.169 OFFCURVE",
"81.498 724 OFFCURVE",
"111 724 CURVE SMOOTH {name = mh02;}",
"140.372 724 OFFCURVE",
"164 700.372 OFFCURVE",
"164 671 CURVE SMOOTH",
"164 641.498 OFFCURVE",
"140.169 619 OFFCURVE",
"111 619 CURVE SMOOTH",
"81.697 619 OFFCURVE",
"59 641.697 OFFCURVE",
"59 671 CURVE SMOOTH"
);
}
);
width = 249;
},
{
layerId = "753CA70B-25C4-47AF-A15F-390B5E4CCE16";
paths = (
{
closed = 1;
nodes = (
"68 623.15 OFFCURVE",
"101.15 590 OFFCURVE",
"141 590 CURVE SMOOTH",
"180.974 590 OFFCURVE",
"213 623.326 OFFCURVE",
"213 663 CURVE SMOOTH",
"213 702.353 OFFCURVE",
"180.344 735 OFFCURVE",
"141 735 CURVE SMOOTH",
"101.785 735 OFFCURVE",
"68 702.52 OFFCURVE",
"68 663 CURVE SMOOTH {name = hr00;}"
);
},
{
closed = 1;
nodes = (
"125.09 485.27 OFFCURVE",
"75.912 473.025 OFFCURVE",
"26 466 CURVE",
"37 398 LINE",
"88 398 LINE {name = hr01;}",
"88 77 LINE",
"32 64 LINE",
"43 0 LINE",
"264 0 LINE",
"264 64 LINE",
"209 75 LINE",
"209 456 LINE",
"175 492 LINE"
);
}
);
width = 288;
}
);
leftKerningGroup = i;
rightKerningGroup = i;
unicode = 0069;
userData = {
com.typemytype.robofont.mark = (
0.713,
0.6,
1,
1
);
};
},
{
glyphname = iacute;
lastChange = "2018-07-24 15:11:20 +0000";
layers = (
{
layerId = "1178ECA0-A987-4969-BD6E-681EE9C1B9C8";
paths = (
{
closed = 1;
nodes = (
"160 59 LINE",
"221 44 LINE",
"221 0 LINE",
"46 0 LINE",
"37 43 LINE",
"97 58 LINE",
"97 416 LINE",
"43 412 LINE",
"34 463 LINE",
"133 481 LINE {name = mh01;}",
"160 451 LINE {name = hr00;}"
);
},
{
closed = 1;
nodes = (
"143 724 LINE {name = mh02;}",
"170 724 LINE",
"214 672 LINE",
"74 552 LINE",
"39 585 LINE"
);
}
);
width = 249;
},
{
layerId = "753CA70B-25C4-47AF-A15F-390B5E4CCE16";
paths = (
{
closed = 1;
nodes = (
"209 75 LINE",
"264 64 LINE",
"264 0 LINE",
"43 0 LINE",
"32 64 LINE",
"88 77 LINE",
"88 398 LINE",
"37 398 LINE",
"26 466 LINE",
"75.584 473.632 OFFCURVE",
"125.24 486.44 OFFCURVE",
"175 492 CURVE",
"209 456 LINE {name = hr00;}"
);
},
{
closed = 1;
nodes = (
"152 722 LINE",
"188 736 LINE",
"265 630 LINE",
"72 509 LINE",
"26 561 LINE"
);
}
);
width = 288;
}
);
leftKerningGroup = i;
rightKerningGroup = i;
unicode = 00ED;
userData = {
com.typemytype.robofont.mark = (
0.713,
0.6,
1,
1
);
};
},
{
glyphname = icircumflex;
lastChange = "2018-07-24 15:11:20 +0000";
layers = (
{
layerId = "1178ECA0-A987-4969-BD6E-681EE9C1B9C8";
paths = (
{
closed = 1;
nodes = (
"105 691 LINE {name = mh01;}",
"121 691 LINE",
"237 550 LINE",
"233 544 LINE",
"179 544 LINE",
"113 602 LINE",
"46 544 LINE",
"-7 544 LINE",
"-11 548 LINE {name = hr00;}"
);
},
{
closed = 1;
nodes = (
"160 59 LINE",
"221 44 LINE",
"221 0 LINE",
"46 0 LINE",
"37 43 LINE",
"97 58 LINE",
"97 416 LINE",
"43 412 LINE",
"34 463 LINE",
"133 481 LINE {name = mh02;}",
"160 451 LINE"
);
}
);
width = 249;
},
{
layerId = "753CA70B-25C4-47AF-A15F-390B5E4CCE16";
paths = (
{
closed = 1;
nodes = (
"129 700 LINE {name = mv01;}",
"162 700 LINE",
"296 540 LINE",
"290 529 LINE",
"212 529 LINE",
"145 581 LINE",
"78 529 LINE",
"1 529 LINE",
"-4 541 LINE {name = hr00;}"
);
},
{
closed = 1;
nodes = (
"209 75 LINE",
"264 64 LINE",
"264 0 LINE",
"43 0 LINE",
"32 64 LINE",
"88 77 LINE",
"88 398 LINE",
"37 398 LINE",
"26 466 LINE",
"75.584 473.632 OFFCURVE",
"125.24 486.44 OFFCURVE",
"175 492 CURVE",
"209 456 LINE {name = mh01;}"
);
}
);
width = 288;
}
);
leftKerningGroup = i;
rightKerningGroup = i;
unicode = 00EE;
userData = {
com.typemytype.robofont.mark = (
0.713,
0.6,
1,
1
);
};
},
{
glyphname = idieresis;
lastChange = "2018-07-24 15:11:20 +0000";
layers = (
{
layerId = "1178ECA0-A987-4969-BD6E-681EE9C1B9C8";
paths = (
{
closed = 1;
nodes = (
"3 646.475 OFFCURVE",
"24.552 668 OFFCURVE",
"52 668 CURVE SMOOTH {name = mh01;}",
"78.394 668 OFFCURVE",
"99 644.773 OFFCURVE",
"99 619 CURVE SMOOTH",
"99 593.819 OFFCURVE",
"77.71 570 OFFCURVE",
"52 570 CURVE SMOOTH",
"25.145 570 OFFCURVE",
"3 592.089 OFFCURVE",
"3 619 CURVE SMOOTH {name = hr00;}"
);
},
{
closed = 1;
nodes = (
"132 646.316 OFFCURVE",
"152.412 668 OFFCURVE",
"180 668 CURVE SMOOTH {name = mh02;}",
"206.394 668 OFFCURVE",
"227 644.773 OFFCURVE",
"227 619 CURVE SMOOTH",
"227 593.819 OFFCURVE",
"205.71 570 OFFCURVE",
"180 570 CURVE SMOOTH",
"152.993 570 OFFCURVE",
"132 592.222 OFFCURVE",
"132 619 CURVE SMOOTH"
);
},
{
closed = 1;
nodes = (
"160 59 LINE",
"221 44 LINE",
"221 0 LINE",
"46 0 LINE",
"37 43 LINE",
"97 58 LINE",
"97 416 LINE",
"43 412 LINE",
"34 463 LINE",
"133 481 LINE {name = mh03;}",
"160 451 LINE"
);
}
);
width = 249;
},
{
layerId = "753CA70B-25C4-47AF-A15F-390B5E4CCE16";
paths = (
{
closed = 1;
nodes = (
"-4 668.818 OFFCURVE",
"23.182 696 OFFCURVE",
"58 696 CURVE SMOOTH {name = at01;}",
"92.818 696 OFFCURVE",
"120 668.818 OFFCURVE",
"120 634 CURVE SMOOTH {name = mh01;}",
"120 599.182 OFFCURVE",
"92.818 572 OFFCURVE",
"58 572 CURVE SMOOTH {name = mh02;}",
"23.182 572 OFFCURVE",
"-4 599.182 OFFCURVE",
"-4 634 CURVE SMOOTH {name = hr00;}"
);
},
{
closed = 1;
nodes = (
"147 668.818 OFFCURVE",
"174.182 696 OFFCURVE",
"209 696 CURVE SMOOTH {name = at02;}",
"243.818 696 OFFCURVE",
"271 668.818 OFFCURVE",
"271 634 CURVE SMOOTH {name = mh03;}",
"271 599.182 OFFCURVE",
"243.818 572 OFFCURVE",
"209 572 CURVE SMOOTH {name = mv01;}",
"174.182 572 OFFCURVE",
"147 599.182 OFFCURVE",
"147 634 CURVE SMOOTH"
);
},
{
closed = 1;
nodes = (
"209 75 LINE {name = mh05;}",
"264 64 LINE",
"264 0 LINE",
"43 0 LINE {name = hr03;}",
"32 64 LINE",
"88 77 LINE",
"88 398 LINE {name = hr02;}",
"37 398 LINE",
"26 466 LINE",
"75.584 473.632 OFFCURVE",
"125.24 486.44 OFFCURVE",
"175 492 CURVE {name = hr01;}",
"209 456 LINE {name = mh04;}"
);
}
);
width = 288;
}
);
leftKerningGroup = i;
rightKerningGroup = i;
unicode = 00EF;
userData = {
com.typemytype.robofont.mark = (
0.713,
0.6,
1,
1
);
};
},
{
glyphname = igrave;
lastChange = "2018-07-24 15:11:20 +0000";
layers = (
{
layerId = "1178ECA0-A987-4969-BD6E-681EE9C1B9C8";
paths = (
{
closed = 1;
nodes = (
"160 59 LINE",
"221 44 LINE",
"221 0 LINE",
"46 0 LINE",
"37 43 LINE",
"97 58 LINE",
"97 416 LINE",
"43 412 LINE",
"34 463 LINE",
"133 481 LINE {name = mh01;}",
"160 451 LINE {name = hr00;}"
);
},
{
closed = 1;
nodes = (
"34 674 LINE",
"78 727 LINE",
"104 727 LINE {name = mh02;}",
"208 587 LINE",
"174 554 LINE"
);
}
);
width = 249;
},
{
layerId = "753CA70B-25C4-47AF-A15F-390B5E4CCE16";
paths = (
{
closed = 1;
nodes = (
"125.09 485.27 OFFCURVE",
"75.912 473.025 OFFCURVE",
"26 466 CURVE",
"37 398 LINE",
"88 398 LINE",
"88 77 LINE",
"32 64 LINE",
"43 0 LINE",
"264 0 LINE",
"264 64 LINE",
"209 75 LINE",
"209 456 LINE",
"175 492 LINE {name = hr00;}"
);
},
{
closed = 1;
nodes = (
"22 630 LINE",
"99 736 LINE",
"135 722 LINE",
"261 561 LINE",
"215 509 LINE"
);
}
);
width = 288;
}
);
leftKerningGroup = i;
rightKerningGroup = i;
unicode = 00EC;
userData = {
com.typemytype.robofont.mark = (
0.713,
0.6,
1,
1
);
};
},
{
glyphname = j;
lastChange = "2018-07-24 15:11:20 +0000";
layers = (
{
layerId = "1178ECA0-A987-4969-BD6E-681EE9C1B9C8";
paths = (
{
closed = 1;
nodes = (
"53 700.169 OFFCURVE",
"75.498 724 OFFCURVE",
"105 724 CURVE SMOOTH {name = mh01;}",
"134.372 724 OFFCURVE",
"158 700.372 OFFCURVE",
"158 671 CURVE SMOOTH",
"158 641.498 OFFCURVE",
"134.169 619 OFFCURVE",
"105 619 CURVE SMOOTH",
"75.697 619 OFFCURVE",
"53 641.697 OFFCURVE",
"53 671 CURVE SMOOTH {name = hr00;}"
);
},
{
closed = 1;
nodes = (
"15 462 LINE",
"128 481 LINE {name = mh02;}",
"155 451 LINE",
"155 -166 LINE SMOOTH",
"155 -229.83 OFFCURVE",
"127.181 -273 OFFCURVE",
"59 -273 CURVE SMOOTH",
"28.585 -273 OFFCURVE",
"-4.389 -259.54 OFFCURVE",
"-26 -238 CURVE",
"7 -190 LINE",
"21.173 -204.162 OFFCURVE",
"39.264 -217 OFFCURVE",
"60 -217 CURVE SMOOTH",
"92.689 -217 OFFCURVE",
"92 -180.337 OFFCURVE",
"92 -156 CURVE SMOOTH",
"92 416 LINE",
"23 411 LINE"
);
}
);
width = 228;
},
{
layerId = "753CA70B-25C4-47AF-A15F-390B5E4CCE16";
paths = (
{
closed = 1;
nodes = (
"165 492 LINE",
"17 466 LINE",
"28 398 LINE",
"79 398 LINE",
"79 -105 LINE SMOOTH",
"79 -123.208 OFFCURVE",
"81.916 -161 OFFCURVE",
"55 -161 CURVE SMOOTH",
"44.453 -161 OFFCURVE",
"34.61 -154.749 OFFCURVE",
"27 -148 CURVE",
"-27 -233 LINE",
"-0.839 -255.424 OFFCURVE",
"32.513 -268 OFFCURVE",
"67 -268 CURVE SMOOTH",
"166.779 -268 OFFCURVE",
"200 -194.292 OFFCURVE",
"200 -103 CURVE SMOOTH",
"200 456 LINE {name = hr00;}"
);
},
{
closed = 1;
nodes = (
"52 623.785 OFFCURVE",
"84.48 590 OFFCURVE",
"124 590 CURVE SMOOTH",
"163.85 590 OFFCURVE",
"197 623.15 OFFCURVE",
"197 663 CURVE SMOOTH",
"197 702.52 OFFCURVE",
"163.215 735 OFFCURVE",
"124 735 CURVE SMOOTH",
"85.105 735 OFFCURVE",
"52 701.895 OFFCURVE",
"52 663 CURVE SMOOTH {name = hr01;}"
);
}
);
width = 264;
}
);
unicode = 006A;
userData = {
com.typemytype.robofont.mark = (
0.713,
0.6,
1,
1
);
};
},
{
glyphname = k;
lastChange = "2018-07-24 15:11:20 +0000";
layers = (
{
layerId = "1178ECA0-A987-4969-BD6E-681EE9C1B9C8";
paths = (
{
closed = 1;
nodes = (
"151 271 LINE {name = mh01;}",
"327 434 LINE",
"286 434 LINE",
"278 481 LINE {name = mh02;}",
"416 481 LINE",
"430 454 LINE",
"262 297 LINE",
"385 55 LINE",
"437 44 LINE",
"437 0 LINE",
"338 0 LINE {name = mh03;}",
"210 250 LINE {name = mh04;}",
"151 194 LINE",
"151 58 LINE",
"207 45 LINE",
"207 0 LINE",
"35 0 LINE",
"30 44 LINE",
"88 58 LINE",
"88 661 LINE {name = mh05;}",
"33 661 LINE {name = mh06;}",
"24 710 LINE",
"124 727 LINE {name = mh07;}",
"151 697 LINE {name = hr00;}"
);
}
);
width = 458;
},
{
layerId = "753CA70B-25C4-47AF-A15F-390B5E4CCE16";
paths = (
{
closed = 1;
nodes = (
"18 716 LINE",
"28 648 LINE",
"80 648 LINE",
"80 77 LINE",
"23 64 LINE",
"35 0 LINE",
"247 0 LINE",
"247.036 21.335 OFFCURVE",
"247.995 42.661 OFFCURVE",
"248 64 CURVE",
"201 75 LINE",
"201 149 LINE",
"250 198 LINE",
"343 0 LINE",
"494 0 LINE",
"493.963 20.668 OFFCURVE",
"493.005 41.327 OFFCURVE",
"493 62 CURVE",
"446 73 LINE",
"339 287 LINE",
"478 426 LINE",
"443 491 LINE",
"266 491 LINE",
"276 413 LINE",
"329 413 LINE",
"201 272 LINE",
"201 700 LINE",
"166 737 LINE {name = hr00;}"
);
}
);
width = 509;
}
);
leftKerningGroup = h;
unicode = 006B;
userData = {
com.typemytype.robofont.mark = (
0.713,
0.6,
1,
1
);
};
},
{
glyphname = l;
lastChange = "2018-07-24 15:11:20 +0000";
layers = (
{
layerId = "1178ECA0-A987-4969-BD6E-681EE9C1B9C8";
paths = (
{
closed = 1;
nodes = (
"152 57 LINE",
"213 44 LINE",
"213 0 LINE",
"30 0 LINE",
"25 44 LINE",
"89 58 LINE",
"89 661 LINE",
"34 661 LINE",
"25 710 LINE",
"123 727 LINE {name = mh01;}",
"152 697 LINE {name = hr00;}"
);
}
);
width = 241;
},
{
layerId = "753CA70B-25C4-47AF-A15F-390B5E4CCE16";
paths = (
{
closed = 1;
nodes = (
"16 716 LINE",
"27 648 LINE",
"79 648 LINE",
"79 77 LINE",
"23 63 LINE",
"34 0 LINE",
"265 0 LINE",
"265 63 LINE",
"200 79 LINE",
"200 700 LINE",
"165 737 LINE {name = hr00;}"
);
}
);
width = 284;
}
);
unicode = 006C;
userData = {
com.typemytype.robofont.mark = (
0.713,
0.6,
1,
1
);
};
},
{
glyphname = m;
lastChange = "2018-07-24 15:11:20 +0000";
layers = (
{
layerId = "1178ECA0-A987-4969-BD6E-681EE9C1B9C8";
paths = (
{
closed = 1;
nodes = (
"744 44 LINE",
"744 0 LINE",
"564 0 LINE",
"560 44 LINE",
"620 58 LINE {name = hr01;}",
"620 327 LINE SMOOTH",
"620 384.645 OFFCURVE",
"596.228 422 OFFCURVE",
"535 422 CURVE SMOOTH {name = mh01;}",
"486.42 422 OFFCURVE",
"451.101 407.189 OFFCURVE",
"418 372 CURVE",
"420.09 359.45 OFFCURVE",
"421 346.718 OFFCURVE",
"421 334 CURVE SMOOTH",
"421 58 LINE",
"482 44 LINE",
"482 0 LINE",
"302 0 LINE",
"298 44 LINE",
"358 58 LINE",
"358 327 LINE SMOOTH",
"358 384.645 OFFCURVE",
"334.228 422 OFFCURVE",
"273 422 CURVE SMOOTH {name = mh02;}",
"231.624 422 OFFCURVE",
"189.334 407.247 OFFCURVE",
"158 380 CURVE",
"158 59 LINE",
"219 44 LINE {name = hr02;}",
"219 0 LINE",
"46 0 LINE",
"40 43 LINE",
"95 58 LINE",
"95 420 LINE",
"41 416 LINE {name = mh03;}",
"32 463 LINE",
"133 481 LINE {name = mh04;}",
"155 440 LINE",
"188.85 462.97 OFFCURVE",
"237.02 479 OFFCURVE",
"278 479 CURVE SMOOTH {name = mh05;}",
"322.788 479 OFFCURVE",
"367.464 466.696 OFFCURVE",
"395 429 CURVE",
"437.509 462.276 OFFCURVE",
"480.604 479 OFFCURVE",
"535 479 CURVE SMOOTH",
"630.415 479 OFFCURVE",
"683 430.5 OFFCURVE",
"683 334 CURVE SMOOTH",
"683 58 LINE {name = hr00;}"
);
}
);
width = 767;
},
{
layerId = "753CA70B-25C4-47AF-A15F-390B5E4CCE16";
paths = (
{
closed = 1;
nodes = (
"310 64 LINE",
"310 0 LINE",
"530 0 LINE",
"530.101 21.336 OFFCURVE",
"530.981 42.66 OFFCURVE",
"531 64 CURVE",
"478 74 LINE",
"478 356 LINE",
"495.424 376.697 OFFCURVE",
"538.695 393 OFFCURVE",
"565 393 CURVE SMOOTH",
"605.826 393 OFFCURVE",
"627 371.982 OFFCURVE",
"627 331 CURVE SMOOTH",
"627 75 LINE",
"571 63 LINE",
"571 0 LINE",
"798 0 LINE",
"798.101 21.336 OFFCURVE",
"798.981 42.66 OFFCURVE",
"799 64 CURVE",
"748 76 LINE",
"748 359 LINE SMOOTH",
"748 448.855 OFFCURVE",
"680.123 491 OFFCURVE",
"597 491 CURVE SMOOTH",
"541.831 491 OFFCURVE",
"492.813 476.683 OFFCURVE",
"448 444 CURVE",
"417.595 478.723 OFFCURVE",
"369.608 491 OFFCURVE",
"325 491 CURVE SMOOTH",
"287.207 491 OFFCURVE",
"239.91 477.19 OFFCURVE",
"209 455 CURVE",
"174 492 LINE {name = hr01;}",
"124.438 485.101 OFFCURVE",
"75.6 472.946 OFFCURVE",
"26 466 CURVE",
"37 398 LINE",
"88 398 LINE",
"88 77 LINE",
"30 63 LINE",
"43 0 LINE",
"265 0 LINE",
"265.099 21.003 OFFCURVE",
"265.982 41.994 OFFCURVE",
"266 63 CURVE",
"209 75 LINE",
"209 356 LINE",
"226.424 376.697 OFFCURVE",
"269.695 393 OFFCURVE",
"296 393 CURVE SMOOTH {name = hr02;}",
"336.826 393 OFFCURVE",
"358 371.982 OFFCURVE",
"358 331 CURVE SMOOTH",
"358 75 LINE {name = hr00;}"
);
}
);
width = 821;
}
);
leftKerningGroup = n;
rightKerningGroup = n;
unicode = 006D;
userData = {
com.typemytype.robofont.mark = (
0.713,
0.6,
1,
1
);
};
},
{
glyphname = n;
lastChange = "2018-07-24 15:11:20 +0000";
layers = (
{
layerId = "1178ECA0-A987-4969-BD6E-681EE9C1B9C8";
paths = (
{
closed = 1;
nodes = (
"482 44 LINE",
"482 0 LINE",
"302 0 LINE {name = hr01;}",
"298 44 LINE",
"358 58 LINE",
"358 327 LINE SMOOTH",
"358 384.642 OFFCURVE",
"334.229 422 OFFCURVE",
"273 422 CURVE SMOOTH",
"231.622 422 OFFCURVE",
"189.332 407.245 OFFCURVE",
"158 380 CURVE",
"158 59 LINE",
"219 44 LINE",
"219 0 LINE",
"46 0 LINE",
"40 43 LINE",
"95 58 LINE",
"95 420 LINE",
"41 416 LINE {name = mh01;}",
"32 463 LINE {name = hr02;}",
"133 481 LINE {name = mh02;}",
"155 440 LINE",
"191.439 465.385 OFFCURVE",
"233.541 479 OFFCURVE",
"278 479 CURVE SMOOTH {name = mh03;}",
"372.323 479 OFFCURVE",
"421 427.617 OFFCURVE",
"421 334 CURVE SMOOTH {name = mh04;}",
"421 58 LINE {name = hr00;}"
);
}
);
width = 505;
},
{
layerId = "753CA70B-25C4-47AF-A15F-390B5E4CCE16";
paths = (
{
closed = 1;
nodes = (
"124.438 485.089 OFFCURVE",
"75.6 472.951 OFFCURVE",
"26 466 CURVE",
"37 398 LINE",
"88 398 LINE",
"88 77 LINE",
"32 64 LINE",
"43 0 LINE",
"265 0 LINE",
"265.099 21.003 OFFCURVE",
"265.982 41.994 OFFCURVE",
"266 63 CURVE",
"209 75 LINE",
"209 356 LINE",
"226.424 376.697 OFFCURVE",
"269.695 393 OFFCURVE",
"296 393 CURVE SMOOTH {name = hr01;}",
"336.826 393 OFFCURVE",
"358 371.982 OFFCURVE",
"358 331 CURVE SMOOTH",
"358 75 LINE",
"308 64 LINE",
"308 0 LINE",
"533 0 LINE",
"533.101 21.336 OFFCURVE",
"533.981 42.66 OFFCURVE",
"534 64 CURVE",
"479 73 LINE",
"479 359 LINE SMOOTH",
"479 449.721 OFFCURVE",
"408.049 491 OFFCURVE",
"325 491 CURVE SMOOTH {name = hr02;}",
"287.207 491 OFFCURVE",
"239.91 477.19 OFFCURVE",
"209 455 CURVE",
"174 492 LINE {name = hr00;}"
);
}
);
width = 555;
}
);
leftKerningGroup = n;
rightKerningGroup = n;
unicode = 006E;
userData = {
com.typemytype.robofont.mark = (
0.713,
0.6,
1,
1
);
};
},
{
glyphname = ntilde;
lastChange = "2018-07-24 15:11:20 +0000";
layers = (
{
layerId = "1178ECA0-A987-4969-BD6E-681EE9C1B9C8";
paths = (
{
closed = 1;
nodes = (
"408 601 LINE",
"381.796 578.725 OFFCURVE",
"360.873 563 OFFCURVE",
"325 563 CURVE SMOOTH",
"280.646 563 OFFCURVE",
"251.175 600 OFFCURVE",
"216 600 CURVE SMOOTH",
"187.606 600 OFFCURVE",
"167.807 578.531 OFFCURVE",
"158 554 CURVE",
"115 580 LINE",
"116 597 LINE",
"137.433 633.741 OFFCURVE",
"163.648 663 OFFCURVE",
"209 663 CURVE SMOOTH {name = mh01;}",
"248.038 663 OFFCURVE",
"282.14 633.958 OFFCURVE",
"318 622 CURVE {name = mh02;}",
"371 663 LINE {name = hr00;}"
);
},
{
closed = 1;
nodes = (
"482 44 LINE",
"482 0 LINE",
"302 0 LINE",
"298 44 LINE",
"358 58 LINE",
"358 327 LINE SMOOTH",
"358 384.642 OFFCURVE",
"334.229 422 OFFCURVE",
"273 422 CURVE SMOOTH",
"231.622 422 OFFCURVE",
"189.332 407.245 OFFCURVE",
"158 380 CURVE",
"158 59 LINE",
"219 44 LINE",
"219 0 LINE",
"46 0 LINE",
"40 43 LINE",
"95 58 LINE",
"95 420 LINE",
"41 416 LINE",
"32 463 LINE",
"133 481 LINE",
"155 440 LINE",
"191.439 465.385 OFFCURVE",
"233.541 479 OFFCURVE",
"278 479 CURVE SMOOTH {name = mh03;}",
"372.323 479 OFFCURVE",
"421 427.617 OFFCURVE",
"421 334 CURVE SMOOTH",
"421 58 LINE"
);
}
);
width = 505;
},
{
layerId = "753CA70B-25C4-47AF-A15F-390B5E4CCE16";
paths = (
{
closed = 1;
nodes = (
"465 628 LINE",
"442.672 595.749 OFFCURVE",
"407.764 555 OFFCURVE",
"365 555 CURVE SMOOTH",
"318.903 555 OFFCURVE",
"286.093 596 OFFCURVE",
"247 596 CURVE SMOOTH",
"216.139 596 OFFCURVE",
"194.597 577.221 OFFCURVE",
"186 548 CURVE",
"122 590 LINE",
"123.497 649.028 OFFCURVE",
"186.743 691 OFFCURVE",
"242 691 CURVE SMOOTH {name = mv01;}",
"296.289 691 OFFCURVE",
"330.521 651.205 OFFCURVE",
"355 647 CURVE",
"392 698 LINE {name = hr02;}"
);
},
{
closed = 1;
nodes = (
"239.661 477.585 OFFCURVE",
"287.116 491 OFFCURVE",
"325 491 CURVE SMOOTH",
"407.726 491 OFFCURVE",
"479 449.244 OFFCURVE",
"479 359 CURVE SMOOTH",
"479 73 LINE",
"534 64 LINE",
"534 42.66 OFFCURVE",
"533.012 21.335 OFFCURVE",
"533 0 CURVE",
"308 0 LINE",
"308 64 LINE",
"358 75 LINE",
"358 331 LINE SMOOTH",
"358 371.618 OFFCURVE",
"336.766 393 OFFCURVE",
"296 393 CURVE SMOOTH",
"269.65 393 OFFCURVE",
"225.333 377.472 OFFCURVE",
"209 356 CURVE",
"209 75 LINE",
"266 63 LINE",
"266 41.993 OFFCURVE",
"265.012 21.002 OFFCURVE",
"265 0 CURVE",
"43 0 LINE",
"32 64 LINE",
"88 77 LINE",
"88 398 LINE",
"37 398 LINE",
"26 466 LINE",
"75.368 473.599 OFFCURVE",
"124.507 485.774 OFFCURVE",
"174 492 CURVE",
"209 455 LINE"
);
}
);
width = 555;
}
);
leftKerningGroup = n;
rightKerningGroup = n;
unicode = 00F1;
userData = {
com.typemytype.robofont.mark = (
0.713,
0.6,
1,
1
);
};
},
{
glyphname = o;
lastChange = "2018-07-24 15:11:20 +0000";
layers = (
{
layerId = "1178ECA0-A987-4969-BD6E-681EE9C1B9C8";
paths = (
{
closed = 1;
nodes = (
"42 363.573 OFFCURVE",
"107.685 481 OFFCURVE",
"244 481 CURVE SMOOTH {name = mh01;}",
"383.247 481 OFFCURVE",
"447 366.749 OFFCURVE",
"447 240 CURVE SMOOTH",
"447 113.92 OFFCURVE",
"383.852 -4 OFFCURVE",
"244 -4 CURVE SMOOTH",
"106.388 -4 OFFCURVE",
"42 116.151 OFFCURVE",
"42 240 CURVE SMOOTH {name = hr00;}"
);
},
{
closed = 1;
nodes = (
"108 143.56 OFFCURVE",
"147.207 54 OFFCURVE",
"244 54 CURVE SMOOTH",
"346.029 54 OFFCURVE",
"381 147.545 OFFCURVE",
"381 235 CURVE SMOOTH",
"381 320.026 OFFCURVE",
"344.709 423 OFFCURVE",
"244 423 CURVE SMOOTH {name = mh02;}",
"144.98 423 OFFCURVE",
"108 310.397 OFFCURVE",
"108 228 CURVE SMOOTH"
);
}
);
width = 489;
},
{
layerId = "753CA70B-25C4-47AF-A15F-390B5E4CCE16";
paths = (
{
closed = 1;
nodes = (
"29 116.006 OFFCURVE",
"109.773 -4 OFFCURVE",
"249 -4 CURVE SMOOTH",
"388.18 -4 OFFCURVE",
"470 115.724 OFFCURVE",
"470 246 CURVE SMOOTH",
"470 377.067 OFFCURVE",
"387.429 491 OFFCURVE",
"249 491 CURVE SMOOTH",
"110.517 491 OFFCURVE",
"29 376.79 OFFCURVE",
"29 246 CURVE SMOOTH {name = hr00;}"
);
},
{
closed = 1;
nodes = (
"153 301.919 OFFCURVE",
"168.824 397 OFFCURVE",
"249 397 CURVE SMOOTH",
"329.958 397 OFFCURVE",
"346 302.875 OFFCURVE",
"346 240 CURVE SMOOTH",
"346 175.272 OFFCURVE",
"330.178 90 OFFCURVE",
"249 90 CURVE SMOOTH",
"168.568 90 OFFCURVE",
"153 176.235 OFFCURVE",
"153 240 CURVE SMOOTH"
);
}
);
width = 499;
}
);
leftKerningGroup = o;
rightKerningGroup = o;
unicode = 006F;
userData = {
com.typemytype.robofont.mark = (
0.713,
0.6,
1,
1
);
};
},
{
glyphname = oacute;
lastChange = "2018-07-24 15:11:20 +0000";
layers = (
{
layerId = "1178ECA0-A987-4969-BD6E-681EE9C1B9C8";
paths = (
{
closed = 1;
nodes = (
"42 363.573 OFFCURVE",
"107.685 481 OFFCURVE",
"244 481 CURVE SMOOTH {name = mh01;}",
"383.247 481 OFFCURVE",
"447 366.749 OFFCURVE",
"447 240 CURVE SMOOTH",
"447 113.92 OFFCURVE",
"383.852 -4 OFFCURVE",
"244 -4 CURVE SMOOTH",
"106.388 -4 OFFCURVE",
"42 116.151 OFFCURVE",
"42 240 CURVE SMOOTH {name = hr00;}"
);
},
{
closed = 1;
nodes = (
"108 143.56 OFFCURVE",
"147.207 54 OFFCURVE",
"244 54 CURVE SMOOTH",
"346.029 54 OFFCURVE",
"381 147.545 OFFCURVE",
"381 235 CURVE SMOOTH",
"381 320.026 OFFCURVE",
"344.709 423 OFFCURVE",
"244 423 CURVE SMOOTH {name = mh02;}",
"144.98 423 OFFCURVE",
"108 310.397 OFFCURVE",
"108 228 CURVE SMOOTH"
);
},
{
closed = 1;
nodes = (
"274 725 LINE {name = mh03;}",
"301 725 LINE",
"345 673 LINE",
"205 553 LINE",
"170 586 LINE"
);
}
);
width = 489;
},
{
layerId = "753CA70B-25C4-47AF-A15F-390B5E4CCE16";
paths = (
{
closed = 1;
nodes = (
"29 116.006 OFFCURVE",
"109.773 -4 OFFCURVE",
"249 -4 CURVE SMOOTH",
"388.18 -4 OFFCURVE",
"470 115.724 OFFCURVE",
"470 246 CURVE SMOOTH",
"470 377.067 OFFCURVE",
"387.429 491 OFFCURVE",
"249 491 CURVE SMOOTH",
"110.517 491 OFFCURVE",
"29 376.79 OFFCURVE",
"29 246 CURVE SMOOTH {name = hr00;}"
);
},
{
closed = 1;
nodes = (
"153 301.919 OFFCURVE",
"168.824 397 OFFCURVE",
"249 397 CURVE SMOOTH",
"329.958 397 OFFCURVE",
"346 302.875 OFFCURVE",
"346 240 CURVE SMOOTH",
"346 175.272 OFFCURVE",
"330.178 90 OFFCURVE",
"249 90 CURVE SMOOTH",
"168.568 90 OFFCURVE",
"153 176.235 OFFCURVE",
"153 240 CURVE SMOOTH"
);
},
{
closed = 1;
nodes = (
"382 630 LINE",
"305 736 LINE",
"269 722 LINE",
"143 561 LINE",
"189 509 LINE"
);
}
);
width = 499;
}
);
leftKerningGroup = o;
rightKerningGroup = o;
unicode = 00F3;
userData = {
com.typemytype.robofont.mark = (
0.713,
0.6,
1,
1
);
};
},
{
glyphname = ocircumflex;
lastChange = "2018-07-24 15:11:20 +0000";
layers = (
{
layerId = "1178ECA0-A987-4969-BD6E-681EE9C1B9C8";
paths = (
{
closed = 1;
nodes = (
"238 691 LINE {name = mh01;}",
"254 691 LINE",
"369 550 LINE",
"366 544 LINE",
"312 544 LINE",
"245 602 LINE",
"179 544 LINE",
"126 544 LINE",
"122 548 LINE {name = hr00;}"
);
},
{
closed = 1;
nodes = (
"42 363.573 OFFCURVE",
"107.685 481 OFFCURVE",
"244 481 CURVE SMOOTH {name = mh02;}",
"383.247 481 OFFCURVE",
"447 366.749 OFFCURVE",
"447 240 CURVE SMOOTH",
"447 113.92 OFFCURVE",
"383.852 -4 OFFCURVE",
"244 -4 CURVE SMOOTH",
"106.388 -4 OFFCURVE",
"42 116.151 OFFCURVE",
"42 240 CURVE SMOOTH"
);
},
{
closed = 1;
nodes = (
"108 143.56 OFFCURVE",
"147.207 54 OFFCURVE",
"244 54 CURVE SMOOTH {name = hr01;}",
"346.029 54 OFFCURVE",
"381 147.545 OFFCURVE",
"381 235 CURVE SMOOTH",
"381 320.026 OFFCURVE",
"344.709 423 OFFCURVE",
"244 423 CURVE SMOOTH {name = mh03;}",
"144.98 423 OFFCURVE",
"108 310.397 OFFCURVE",
"108 228 CURVE SMOOTH"
);
}
);
width = 489;
},
{
layerId = "753CA70B-25C4-47AF-A15F-390B5E4CCE16";
paths = (
{
closed = 1;
nodes = (
"229 700 LINE {name = mh02;}",
"262 700 LINE",
"396 540 LINE {name = mh03;}",
"390 529 LINE",
"312 529 LINE",
"245 581 LINE",
"178 529 LINE {name = mv01;}",
"101 529 LINE {name = mv02;}",
"96 541 LINE {name = mh01;}"
);
},
{
closed = 1;
nodes = (
"29 375.649 OFFCURVE",
"110.631 491 OFFCURVE",
"249 491 CURVE SMOOTH",
"387.95 491 OFFCURVE",
"470 376.467 OFFCURVE",
"470 246 CURVE SMOOTH",
"470 115.526 OFFCURVE",
"389.245 -4 OFFCURVE",
"249 -4 CURVE SMOOTH",
"109.354 -4 OFFCURVE",
"29 116.359 OFFCURVE",
"29 246 CURVE SMOOTH"
);
},
{
closed = 1;
nodes = (
"153 176.392 OFFCURVE",
"168.033 90 OFFCURVE",
"249 90 CURVE SMOOTH",
"330.867 90 OFFCURVE",
"346 175.404 OFFCURVE",
"346 240 CURVE SMOOTH",
"346 303.178 OFFCURVE",
"330.542 397 OFFCURVE",
"249 397 CURVE SMOOTH",
"168.448 397 OFFCURVE",
"153 302.219 OFFCURVE",
"153 240 CURVE SMOOTH"
);
}
);
width = 499;
}
);
leftKerningGroup = o;
rightKerningGroup = o;
unicode = 00F4;
userData = {
com.typemytype.robofont.mark = (
0.713,
0.6,
1,
1
);
};
},
{
glyphname = odieresis;
lastChange = "2018-07-24 15:11:20 +0000";
layers = (
{
layerId = "1178ECA0-A987-4969-BD6E-681EE9C1B9C8";
paths = (
{
closed = 1;
nodes = (
"132 646.501 OFFCURVE",
"153.57 668 OFFCURVE",
"181 668 CURVE SMOOTH {name = mh01;}",
"207.301 668 OFFCURVE",
"229 644.965 OFFCURVE",
"229 619 CURVE SMOOTH",
"229 593.604 OFFCURVE",
"206.659 570 OFFCURVE",
"181 570 CURVE SMOOTH",
"154.145 570 OFFCURVE",
"132 592.089 OFFCURVE",
"132 619 CURVE SMOOTH {name = hr00;}"
);
},
{
closed = 1;
nodes = (
"272 646.316 OFFCURVE",
"292.412 668 OFFCURVE",
"320 668 CURVE SMOOTH {name = mh02;}",
"346.394 668 OFFCURVE",
"367 644.773 OFFCURVE",
"367 619 CURVE SMOOTH",
"367 593.819 OFFCURVE",
"345.71 570 OFFCURVE",
"320 570 CURVE SMOOTH",
"292.993 570 OFFCURVE",
"272 592.222 OFFCURVE",
"272 619 CURVE SMOOTH"
);
},
{
closed = 1;
nodes = (
"42 363.573 OFFCURVE",
"107.685 481 OFFCURVE",
"244 481 CURVE SMOOTH {name = mh03;}",
"383.247 481 OFFCURVE",
"447 366.749 OFFCURVE",
"447 240 CURVE SMOOTH",
"447 113.92 OFFCURVE",
"383.852 -4 OFFCURVE",
"244 -4 CURVE SMOOTH",
"106.388 -4 OFFCURVE",
"42 116.151 OFFCURVE",
"42 240 CURVE SMOOTH"
);
},
{
closed = 1;
nodes = (
"108 143.56 OFFCURVE",
"147.207 54 OFFCURVE",
"244 54 CURVE SMOOTH",
"346.029 54 OFFCURVE",
"381 147.545 OFFCURVE",
"381 235 CURVE SMOOTH",
"381 320.026 OFFCURVE",
"344.709 423 OFFCURVE",
"244 423 CURVE SMOOTH {name = mh04;}",
"144.98 423 OFFCURVE",
"108 310.397 OFFCURVE",
"108 228 CURVE SMOOTH"
);
}
);
width = 489;
},
{
layerId = "753CA70B-25C4-47AF-A15F-390B5E4CCE16";
paths = (
{
closed = 1;
nodes = (
"105 668.818 OFFCURVE",
"132.182 696 OFFCURVE",
"167 696 CURVE SMOOTH",
"201.818 696 OFFCURVE",
"229 668.818 OFFCURVE",
"229 634 CURVE SMOOTH {name = mh01;}",
"229 599.182 OFFCURVE",
"201.818 572 OFFCURVE",
"167 572 CURVE SMOOTH {name = av02;}",
"132.182 572 OFFCURVE",
"105 599.182 OFFCURVE",
"105 634 CURVE SMOOTH {name = hr00;}"
);
},
{
closed = 1;
nodes = (
"267 668.818 OFFCURVE",
"294.182 696 OFFCURVE",
"329 696 CURVE SMOOTH",
"363.818 696 OFFCURVE",
"391 668.818 OFFCURVE",
"391 634 CURVE SMOOTH",
"391 599.182 OFFCURVE",
"363.818 572 OFFCURVE",
"329 572 CURVE SMOOTH {name = av01;}",
"294.182 572 OFFCURVE",
"267 599.182 OFFCURVE",
"267 634 CURVE SMOOTH {name = mh02;}"
);
},
{
closed = 1;
nodes = (
"29 375.649 OFFCURVE",
"110.631 491 OFFCURVE",
"249 491 CURVE SMOOTH",
"387.95 491 OFFCURVE",
"470 376.467 OFFCURVE",
"470 246 CURVE SMOOTH {name = mh05;}",
"470 115.526 OFFCURVE",
"389.245 -4 OFFCURVE",
"249 -4 CURVE SMOOTH",
"109.354 -4 OFFCURVE",
"29 116.359 OFFCURVE",
"29 246 CURVE SMOOTH {name = mh03;}"
);
},
{
closed = 1;
nodes = (
"153 176.392 OFFCURVE",
"168.033 90 OFFCURVE",
"249 90 CURVE SMOOTH",
"330.867 90 OFFCURVE",
"346 175.404 OFFCURVE",
"346 240 CURVE SMOOTH",
"346 303.178 OFFCURVE",
"330.542 397 OFFCURVE",
"249 397 CURVE SMOOTH",
"168.448 397 OFFCURVE",
"153 302.219 OFFCURVE",
"153 240 CURVE SMOOTH"
);
}
);
width = 499;
}
);
leftKerningGroup = o;
rightKerningGroup = o;
unicode = 00F6;
userData = {
com.typemytype.robofont.mark = (
0.713,
0.6,
1,
1
);
};
},
{
glyphname = ograve;
lastChange = "2018-07-24 15:11:20 +0000";
layers = (
{
layerId = "1178ECA0-A987-4969-BD6E-681EE9C1B9C8";
paths = (
{
closed = 1;
nodes = (
"42 363.573 OFFCURVE",
"107.685 481 OFFCURVE",
"244 481 CURVE SMOOTH {name = mh01;}",
"383.247 481 OFFCURVE",
"447 366.749 OFFCURVE",
"447 240 CURVE SMOOTH",
"447 113.92 OFFCURVE",
"383.852 -4 OFFCURVE",
"244 -4 CURVE SMOOTH",
"106.388 -4 OFFCURVE",
"42 116.151 OFFCURVE",
"42 240 CURVE SMOOTH {name = hr00;}"
);
},
{
closed = 1;
nodes = (
"108 143.56 OFFCURVE",
"147.207 54 OFFCURVE",
"244 54 CURVE SMOOTH",
"346.029 54 OFFCURVE",
"381 147.545 OFFCURVE",
"381 235 CURVE SMOOTH",
"381 320.026 OFFCURVE",
"344.709 423 OFFCURVE",
"244 423 CURVE SMOOTH {name = mh02;}",
"144.98 423 OFFCURVE",
"108 310.397 OFFCURVE",
"108 228 CURVE SMOOTH"
);
},
{
closed = 1;
nodes = (
"177 673 LINE",
"221 726 LINE {name = mh03;}",
"247 726 LINE",
"351 586 LINE",
"317 553 LINE"
);
}
);
width = 489;
},
{
layerId = "753CA70B-25C4-47AF-A15F-390B5E4CCE16";
paths = (
{
closed = 1;
nodes = (
"29 116.006 OFFCURVE",
"109.773 -4 OFFCURVE",
"249 -4 CURVE SMOOTH",
"388.18 -4 OFFCURVE",
"470 115.724 OFFCURVE",
"470 246 CURVE SMOOTH",
"470 377.067 OFFCURVE",
"387.429 491 OFFCURVE",
"249 491 CURVE SMOOTH",
"110.517 491 OFFCURVE",
"29 376.79 OFFCURVE",
"29 246 CURVE SMOOTH {name = hr00;}"
);
},
{
closed = 1;
nodes = (
"153 301.919 OFFCURVE",
"168.824 397 OFFCURVE",
"249 397 CURVE SMOOTH",
"329.958 397 OFFCURVE",
"346 302.875 OFFCURVE",
"346 240 CURVE SMOOTH",
"346 175.272 OFFCURVE",
"330.178 90 OFFCURVE",
"249 90 CURVE SMOOTH",
"168.568 90 OFFCURVE",
"153 176.235 OFFCURVE",
"153 240 CURVE SMOOTH"
);
},
{
closed = 1;
nodes = (
"117 630 LINE",
"194 736 LINE",
"230 722 LINE",
"356 561 LINE",
"310 509 LINE"
);
}
);
width = 499;
}
);
leftKerningGroup = o;
rightKerningGroup = o;
unicode = 00F2;
userData = {
com.typemytype.robofont.mark = (
0.713,
0.6,
1,
1
);
};
},
{
glyphname = oslash;
lastChange = "2018-07-24 15:11:20 +0000";
layers = (
{
layerId = "1178ECA0-A987-4969-BD6E-681EE9C1B9C8";
paths = (
{
closed = 1;
nodes = (
"63 -90 LINE",
"60 -77 LINE",
"119 41 LINE",
"62.868 90.11 OFFCURVE",
"42 167.624 OFFCURVE",
"42 240 CURVE SMOOTH",
"42 363.573 OFFCURVE",
"107.685 481 OFFCURVE",
"244 481 CURVE SMOOTH {name = mh01;}",
"273.896 481 OFFCURVE",
"302.481 474.585 OFFCURVE",
"330 463 CURVE",
"399 602 LINE {name = mh02;}",
"450 602 LINE {name = mh03;}",
"449 587 LINE",
"373 435 LINE",
"426.967 386.718 OFFCURVE",
"447 310.26 OFFCURVE",
"447 240 CURVE SMOOTH",
"447 113.809 OFFCURVE",
"383.774 -4 OFFCURVE",
"244 -4 CURVE SMOOTH",
"215.928 -4 OFFCURVE",
"187.916 1.088 OFFCURVE",
"162 12 CURVE",
"111 -90 LINE {name = hr00;}"
);
},
{
closed = 1;
nodes = (
"108 182.603 OFFCURVE",
"119.012 134.889 OFFCURVE",
"148 99 CURVE {name = mh04;}",
"302 408 LINE {name = mh05;}",
"284.431 418.246 OFFCURVE",
"264.255 423 OFFCURVE",
"244 423 CURVE SMOOTH {name = mh07;}",
"144.967 423 OFFCURVE",
"108 310.378 OFFCURVE",
"108 228 CURVE SMOOTH"
);
},
{
closed = 1;
nodes = (
"346.005 54 OFFCURVE",
"381 147.506 OFFCURVE",
"381 235 CURVE SMOOTH",
"381 282.015 OFFCURVE",
"368.934 333.945 OFFCURVE",
"342 373 CURVE {name = mh08;}",
"189 66 LINE",
"206.025 57.489 OFFCURVE",
"225.063 54 OFFCURVE",
"244 54 CURVE SMOOTH"
);
}
);
width = 489;
},
{
layerId = "753CA70B-25C4-47AF-A15F-390B5E4CCE16";
paths = (
{
closed = 1;
nodes = (
"29 375.683 OFFCURVE",
"110.7 491 OFFCURVE",
"249 491 CURVE SMOOTH {name = ah01;}",
"261.056 491 OFFCURVE",
"273.108 489.983 OFFCURVE",
"285 488 CURVE",
"325 585 LINE",
"443 585 LINE",
"446.111 571.995 OFFCURVE",
"395.829 459.139 OFFCURVE",
"388 440 CURVE",
"446.229 391.473 OFFCURVE",
"470 319.926 OFFCURVE",
"470 246 CURVE SMOOTH",
"470 115.606 OFFCURVE",
"389.366 -4 OFFCURVE",
"249 -4 CURVE SMOOTH",
"235.576 -4 OFFCURVE",
"222.162 -2.634 OFFCURVE",
"209 0 CURVE",
"167 -105 LINE",
"52 -105 LINE",
"49 -92 LINE",
"107 51 LINE",
"51.35 101.882 OFFCURVE",
"29 172.207 OFFCURVE",
"29 246 CURVE SMOOTH {name = hr00;}"
);
},
{
closed = 1;
nodes = (
"346 265.186 OFFCURVE",
"343.838 290.678 OFFCURVE",
"337 315 CURVE",
"249 90 LINE {name = ah03;}",
"330.846 89.985 OFFCURVE",
"346 175.389 OFFCURVE",
"346 240 CURVE SMOOTH {name = ah04;}"
);
},
{
closed = 1;
nodes = (
"153 219.274 OFFCURVE",
"154.152 198.22 OFFCURVE",
"159 178 CURVE {name = ah05;}",
"248 397 LINE {name = ah02;}",
"168.777 397.021 OFFCURVE",
"153 300.936 OFFCURVE",
"153 240 CURVE SMOOTH"
);
}
);
width = 499;
}
);
leftKerningGroup = o;
rightKerningGroup = o;
unicode = 00F8;
userData = {
com.typemytype.robofont.mark = (
0.713,
0.6,
1,
1
);
};
},
{
glyphname = otilde;
lastChange = "2018-07-24 15:11:20 +0000";
layers = (
{
layerId = "1178ECA0-A987-4969-BD6E-681EE9C1B9C8";
paths = (
{
closed = 1;
nodes = (
"387 601 LINE",
"360.796 578.725 OFFCURVE",
"339.873 563 OFFCURVE",
"304 563 CURVE SMOOTH {name = mh01;}",
"259.646 563 OFFCURVE",
"230.175 600 OFFCURVE",
"195 600 CURVE SMOOTH {name = mh02;}",
"166.606 600 OFFCURVE",
"146.807 578.531 OFFCURVE",
"137 554 CURVE",
"94 580 LINE",
"95 597 LINE",
"116.433 633.741 OFFCURVE",
"142.648 663 OFFCURVE",
"188 663 CURVE SMOOTH {name = mh03;}",
"227.038 663 OFFCURVE",
"261.14 633.958 OFFCURVE",
"297 622 CURVE {name = mh04;}",
"350 663 LINE {name = hr00;}"
);
},
{
closed = 1;
nodes = (
"42 363.573 OFFCURVE",
"107.685 481 OFFCURVE",
"244 481 CURVE SMOOTH {name = mh05;}",
"383.247 481 OFFCURVE",
"447 366.749 OFFCURVE",
"447 240 CURVE SMOOTH",
"447 113.92 OFFCURVE",
"383.852 -4 OFFCURVE",
"244 -4 CURVE SMOOTH",
"106.388 -4 OFFCURVE",
"42 116.151 OFFCURVE",
"42 240 CURVE SMOOTH"
);
},
{
closed = 1;
nodes = (
"108 143.56 OFFCURVE",
"147.207 54 OFFCURVE",
"244 54 CURVE SMOOTH {name = mh07;}",
"346.029 54 OFFCURVE",
"381 147.545 OFFCURVE",
"381 235 CURVE SMOOTH",
"381 320.026 OFFCURVE",
"344.709 423 OFFCURVE",
"244 423 CURVE SMOOTH {name = mh08;}",
"144.98 423 OFFCURVE",
"108 310.397 OFFCURVE",
"108 228 CURVE SMOOTH"
);
}
);
width = 489;
},
{
layerId = "753CA70B-25C4-47AF-A15F-390B5E4CCE16";
paths = (
{
closed = 1;
nodes = (
"436 627 LINE",
"414.065 595.318 OFFCURVE",
"376.657 554 OFFCURVE",
"335 554 CURVE SMOOTH",
"288.316 554 OFFCURVE",
"258.344 595 OFFCURVE",
"217 595 CURVE SMOOTH {name = at01;}",
"186.717 595 OFFCURVE",
"165.364 575.432 OFFCURVE",
"157 547 CURVE",
"93 589 LINE",
"94.481 647.416 OFFCURVE",
"157.067 690 OFFCURVE",
"212 690 CURVE SMOOTH",
"267.924 690 OFFCURVE",
"301.952 650.131 OFFCURVE",
"326 646 CURVE",
"362 697 LINE {name = hr02;}"
);
},
{
closed = 1;
nodes = (
"29 375.649 OFFCURVE",
"110.631 491 OFFCURVE",
"249 491 CURVE SMOOTH",
"387.95 491 OFFCURVE",
"470 376.467 OFFCURVE",
"470 246 CURVE SMOOTH",
"470 115.526 OFFCURVE",
"389.245 -4 OFFCURVE",
"249 -4 CURVE SMOOTH",
"109.354 -4 OFFCURVE",
"29 116.359 OFFCURVE",
"29 246 CURVE SMOOTH"
);
},
{
closed = 1;
nodes = (
"153 176.392 OFFCURVE",
"168.033 90 OFFCURVE",
"249 90 CURVE SMOOTH",
"330.867 90 OFFCURVE",
"346 175.404 OFFCURVE",
"346 240 CURVE SMOOTH",
"346 303.178 OFFCURVE",
"330.542 397 OFFCURVE",
"249 397 CURVE SMOOTH",
"168.448 397 OFFCURVE",
"153 302.219 OFFCURVE",
"153 240 CURVE SMOOTH"
);
}
);
width = 499;
}
);
leftKerningGroup = o;
rightKerningGroup = o;
unicode = 00F5;
userData = {
com.typemytype.robofont.mark = (
0.713,
0.6,
1,
1
);
};
},
{
glyphname = oe;
lastChange = "2018-07-24 15:11:20 +0000";
layers = (
{
layerId = "1178ECA0-A987-4969-BD6E-681EE9C1B9C8";
paths = (
{
closed = 1;
nodes = (
"42 363.573 OFFCURVE",
"107.685 481 OFFCURVE",
"244 481 CURVE SMOOTH {name = ah01;}",
"322.542 481 OFFCURVE",
"383.068 446.401 OFFCURVE",
"418 375 CURVE",
"454.851 438.186 OFFCURVE",
"516.643 480 OFFCURVE",
"591 480 CURVE SMOOTH",
"669.543 480 OFFCURVE",
"740 433.462 OFFCURVE",
"740 349 CURVE SMOOTH",
"740 196.879 OFFCURVE",
"563.672 186 OFFCURVE",
"450 186 CURVE",
"464.571 101.393 OFFCURVE",
"516.108 53 OFFCURVE",
"603 53 CURVE SMOOTH",
"643.679 53 OFFCURVE",
"687.02 64.629 OFFCURVE",
"720 89 CURVE",
"737 35 LINE",
"697.27 6.228 OFFCURVE",
"646.207 -3 OFFCURVE",
"598 -3 CURVE SMOOTH",
"520.151 -3 OFFCURVE",
"453.954 26.835 OFFCURVE",
"414 96 CURVE",
"378.013 28.507 OFFCURVE",
"319.711 -4 OFFCURVE",
"244 -4 CURVE SMOOTH",
"106.345 -4 OFFCURVE",
"42 116.215 OFFCURVE",
"42 240 CURVE SMOOTH {name = hr00;}"
);
},
{
closed = 1;
nodes = (
"108 143.56 OFFCURVE",
"147.207 54 OFFCURVE",
"244 54 CURVE SMOOTH",
"345.203 54 OFFCURVE",
"381 148.197 OFFCURVE",
"381 235 CURVE SMOOTH",
"381 320.026 OFFCURVE",
"344.709 423 OFFCURVE",
"244 423 CURVE SMOOTH {name = ah02;}",
"144.98 423 OFFCURVE",
"108 310.397 OFFCURVE",
"108 228 CURVE SMOOTH"
);
},
{
closed = 1;
nodes = (
"536.044 245 OFFCURVE",
"674 248.205 OFFCURVE",
"674 349 CURVE SMOOTH",
"674 397.89 OFFCURVE",
"635.624 423 OFFCURVE",
"590 423 CURVE SMOOTH {name = ah03;}",
"492.803 423 OFFCURVE",
"449.363 330.162 OFFCURVE",
"447 245 CURVE",
"464 245 LINE SMOOTH"
);
}
);
width = 782;
},
{
layerId = "753CA70B-25C4-47AF-A15F-390B5E4CCE16";
paths = (
{
closed = 1;
nodes = (
"652.409 491 OFFCURVE",
"740 448.061 OFFCURVE",
"740 354 CURVE SMOOTH",
"740 213.601 OFFCURVE",
"581.524 188.082 OFFCURVE",
"472 198 CURVE",
"481.136 127.862 OFFCURVE",
"521.813 91 OFFCURVE",
"593 91 CURVE SMOOTH",
"643.648 91 OFFCURVE",
"676.68 108.716 OFFCURVE",
"713 143 CURVE",
"736 56 LINE",
"703.551 14.52 OFFCURVE",
"623.208 -4 OFFCURVE",
"573 -4 CURVE SMOOTH",
"509.876 -4 OFFCURVE",
"449.514 19.844 OFFCURVE",
"406 66 CURVE",
"365.483 21.678 OFFCURVE",
"309.267 -4 OFFCURVE",
"249 -4 CURVE SMOOTH",
"109.262 -4 OFFCURVE",
"29 116.422 OFFCURVE",
"29 246 CURVE SMOOTH",
"29 375.735 OFFCURVE",
"110.765 491 OFFCURVE",
"249 491 CURVE SMOOTH",
"309.857 491 OFFCURVE",
"366.966 465.887 OFFCURVE",
"408 421 CURVE",
"449.914 466.732 OFFCURVE",
"507.047 491 OFFCURVE",
"569 491 CURVE SMOOTH {name = hr00;}"
);
},
{
closed = 1;
nodes = (
"153 176.392 OFFCURVE",
"168.033 90 OFFCURVE",
"249 90 CURVE SMOOTH",
"330.867 90 OFFCURVE",
"346 175.404 OFFCURVE",
"346 240 CURVE SMOOTH",
"346 303.178 OFFCURVE",
"330.542 397 OFFCURVE",
"249 397 CURVE SMOOTH",
"168.448 397 OFFCURVE",
"153 302.219 OFFCURVE",
"153 240 CURVE SMOOTH"
);
},
{
closed = 1;
nodes = (
"477.909 281.039 OFFCURVE",
"483.018 281 OFFCURVE",
"488 281 CURVE SMOOTH",
"506 281 LINE SMOOTH",
"549.987 281 OFFCURVE",
"617 294.08 OFFCURVE",
"617 350 CURVE SMOOTH",
"617 378.715 OFFCURVE",
"599.839 396 OFFCURVE",
"571 396 CURVE SMOOTH",
"513.28 396 OFFCURVE",
"477.43 332.955 OFFCURVE",
"473 282 CURVE"
);
}
);
width = 770;
}
);
leftKerningGroup = o;
rightKerningGroup = e;
unicode = 0153;
userData = {
com.typemytype.robofont.mark = (
0.713,
0.6,
1,
1
);
};
},
{
glyphname = p;
lastChange = "2018-07-24 15:11:20 +0000";
layers = (
{
layerId = "1178ECA0-A987-4969-BD6E-681EE9C1B9C8";
paths = (
{
closed = 1;
nodes = (
"22 463 LINE",
"127 481 LINE {name = mh01;}",
"154 445 LINE",
"185.218 467.702 OFFCURVE",
"224.597 479 OFFCURVE",
"263 479 CURVE SMOOTH {name = mh02;}",
"398.014 479 OFFCURVE",
"458 363.105 OFFCURVE",
"458 242 CURVE SMOOTH {name = hr01;}",
"458 114.304 OFFCURVE",
"391.54 -4 OFFCURVE",
"251 -4 CURVE SMOOTH",
"217.755 -4 OFFCURVE",
"183.974 1.012 OFFCURVE",
"154 16 CURVE",
"154 -208 LINE",
"275 -229 LINE",
"275 -273 LINE",
"41 -273 LINE",
"32 -229 LINE",
"91 -215 LINE",
"91 416 LINE",
"30 412 LINE {name = hr00;}"
);
},
{
closed = 1;
nodes = (
"355.152 53 OFFCURVE",
"392 144.809 OFFCURVE",
"392 237 CURVE SMOOTH",
"392 322.357 OFFCURVE",
"358.136 422 OFFCURVE",
"257 422 CURVE SMOOTH",
"220.673 422 OFFCURVE",
"173.47 402.982 OFFCURVE",
"154 371 CURVE",
"154 85 LINE",
"180.775 63.577 OFFCURVE",
"214.886 53 OFFCURVE",
"249 53 CURVE SMOOTH"
);
}
);
width = 500;
},
{
layerId = "753CA70B-25C4-47AF-A15F-390B5E4CCE16";
paths = (
{
closed = 1;
nodes = (
"16 467 LINE",
"29 395 LINE",
"80 402 LINE",
"80 -195 LINE",
"29 -210 LINE",
"45 -273 LINE",
"318 -273 LINE",
"318.187 -251.33 OFFCURVE",
"318.954 -229.673 OFFCURVE",
"319 -208 CURVE",
"201 -182 LINE",
"201 4 LINE",
"220.559 -1.17 OFFCURVE",
"240.758 -4 OFFCURVE",
"261 -4 CURVE SMOOTH",
"416.781 -4 OFFCURVE",
"484 104.714 OFFCURVE",
"484 251 CURVE SMOOTH",
"484 375.469 OFFCURVE",
"425.607 491 OFFCURVE",
"287 491 CURVE SMOOTH",
"252.951 491 OFFCURVE",
"219.237 483.883 OFFCURVE",
"189 468 CURVE",
"166 491 LINE {name = hr00;}"
);
},
{
closed = 1;
nodes = (
"342.763 397 OFFCURVE",
"360 308.049 OFFCURVE",
"360 246 CURVE SMOOTH",
"360 183.219 OFFCURVE",
"340.883 90 OFFCURVE",
"261 90 CURVE SMOOTH",
"242.879 90 OFFCURVE",
"216.565 93.051 OFFCURVE",
"201 103 CURVE",
"201 379 LINE",
"218.873 392.024 OFFCURVE",
"242.224 397 OFFCURVE",
"264 397 CURVE SMOOTH"
);
}
);
width = 515;
}
);
rightKerningGroup = b;
unicode = 0070;
userData = {
com.typemytype.robofont.mark = (
0.713,
0.6,
1,
1
);
};
},
